<svg xmlns="http://www.w3.org/2000/svg" viewBox="0 0 67 65">
<path d="M13.2466 25.5817C12.8199 26.3358 12.587 27.1842 12.569 28.0505C12.5509 28.9169 12.7483 29.7742 13.1432 30.5455C13.5382 31.3168 14.1185 31.9779 14.832 32.4697C15.5455 32.9614 16.37 33.2683 17.2314 33.3628C17.2104 33.572 17.1895 33.7707 17.1895 33.9799C17.1895 36.8664 19.5322 39.2092 22.4188 39.2092C22.9104 39.2092 23.4019 39.136 23.8726 39C24.5001 41.1858 26.5186 42.7651 28.8927 42.7651C30.6602 42.7651 32.2499 41.8761 33.2016 40.506C33.6853 41.2012 34.3296 41.7695 35.0797 42.1628C35.8297 42.556 36.6636 42.7626 37.5105 42.7651C39.8846 42.7651 41.9031 41.1858 42.5306 39C43.31 39.2269 44.1314 39.2692 44.9299 39.1238C45.7285 38.9784 46.4822 38.6492 47.1316 38.1622C47.7809 37.6752 48.308 37.0438 48.6712 36.3179C49.0344 35.592 49.2237 34.7916 49.2241 33.9799C49.2241 33.7707 49.2137 33.5615 49.1823 33.3628C50.0437 33.2683 50.8681 32.9614 51.5816 32.4697C52.2952 31.9779 52.8754 31.3168 53.2704 30.5455C53.6654 29.7742 53.8627 28.9169 53.8447 28.0505C53.8266 27.1842 53.5938 26.3358 53.167 25.5817C54.2756 24.6195 54.9868 23.2285 54.9868 21.6492C54.9868 19.6935 53.8886 17.9992 52.2989 17.0998C52.8219 16.2735 53.1042 15.3323 53.1042 14.3387C53.1042 11.9437 51.4832 9.8938 49.2555 9.28721C49.2869 9.0362 49.3078 8.7852 49.3078 8.51327C49.3078 5.62671 46.9651 3.27353 44.0785 3.27353C43.5451 3.27353 43.0222 3.3572 42.5202 3.51408C42.1647 2.4879 41.4982 1.59801 40.6135 0.968198C39.7288 0.338387 38.6697 -3.68482e-05 37.5837 3.00925e-09C35.7639 3.00925e-09 34.1533 0.930813 33.2121 2.34272C32.7328 1.62227 32.0829 1.03142 31.3202 0.622707C30.5575 0.213994 29.7057 8.41073e-05 28.8404 3.00925e-09C26.5709 3.00925e-09 24.6151 1.44328 23.9039 3.51408C23.4019 3.3572 22.8685 3.27353 22.3247 3.27353C19.4381 3.27353 17.0954 5.62671 17.0954 8.51327C17.0954 8.77474 17.1163 9.0362 17.1582 9.28721C16.0539 9.59487 15.0803 10.2548 14.3855 11.1667C13.6908 12.0785 13.3129 13.1923 13.3094 14.3387C13.3094 15.3323 13.6022 16.2735 14.1147 17.0998C12.5145 17.9992 11.4269 19.6935 11.4269 21.6492C11.4269 23.2285 12.138 24.6195 13.2466 25.5817ZM33.1179 13.2615C38.2635 13.2615 42.447 17.4449 42.447 22.5905C42.447 27.7361 38.2635 31.9195 33.1179 31.9195C27.9723 31.9195 23.7889 27.7361 23.7889 22.5905C23.7889 17.4449 27.9723 13.2615 33.1179 13.2615ZM37.5837 1.75704C39.3512 1.75704 40.8259 3.07482 41.0246 4.83186C41.0351 4.89461 41.0664 4.9469 41.0874 5.00965C41.0664 5.08286 41.0455 5.15607 41.0455 5.23974C41.0455 7.15366 39.4872 8.70153 37.5837 8.70153C37.0922 8.70153 36.7052 9.09895 36.7052 9.58005C36.7052 10.0716 37.1026 10.4586 37.5837 10.4586C40.4494 10.4586 42.7921 8.12631 42.813 5.26066C43.2209 5.10378 43.6497 5.00965 44.0994 5.00965C44.6109 5.01091 45.1157 5.12489 45.5781 5.34348C46.0405 5.56208 46.449 5.87992 46.7745 6.27437C47.1001 6.66882 47.3347 7.13019 47.4616 7.62562C47.5885 8.12106 47.6047 8.63839 47.5089 9.14079C44.8524 9.39179 42.7712 11.609 42.7712 14.3282C42.7712 14.8198 43.1686 15.2068 43.6497 15.2068C44.1308 15.2068 44.5282 14.8093 44.5282 14.3282C44.5282 12.4143 46.0866 10.856 48.0005 10.856C48.0318 10.856 48.0528 10.8455 48.0737 10.8455C48.0841 10.8455 48.1051 10.856 48.1155 10.856C48.9932 10.9194 49.8143 11.3127 50.4139 11.9569C51.0134 12.601 51.3469 13.4483 51.3472 14.3282C51.3472 15.1231 51.0648 15.8656 50.5733 16.4827C50.3118 16.4409 50.0399 16.399 49.7575 16.399C48.0841 16.399 46.4944 17.2043 45.5113 18.564C45.229 18.9614 45.3126 19.5052 45.71 19.7981C46.1075 20.0909 46.6513 19.9968 46.9442 19.5994C47.2671 19.1551 47.6901 18.793 48.1788 18.5423C48.6675 18.2916 49.2083 18.1593 49.7575 18.1561C50.6623 18.1783 51.5225 18.5533 52.1546 19.2011C52.7866 19.8489 53.1404 20.718 53.1404 21.6231C53.1404 22.5281 52.7866 23.3973 52.1546 24.0451C51.5225 24.6928 50.6623 25.0679 49.7575 25.0901C49.266 25.0901 48.879 25.4875 48.879 25.9686C48.879 26.4602 49.2764 26.8471 49.7575 26.8471C50.4269 26.8471 51.0648 26.7112 51.661 26.4811C51.9434 26.9936 52.0898 27.5583 52.0898 28.144C52.0898 30.0579 50.5314 31.6058 48.628 31.6162H48.6175C47.1324 31.6162 45.8146 30.675 45.3335 29.284C45.2958 29.1748 45.2369 29.0741 45.1602 28.9877C45.0835 28.9013 44.9906 28.8308 44.8866 28.7803C44.7827 28.7298 44.6699 28.7003 44.5545 28.6934C44.4392 28.6865 44.3237 28.7024 44.2145 28.7401C44.1053 28.7779 44.0046 28.8368 43.9182 28.9135C43.8318 28.9902 43.7613 29.0831 43.7108 29.187C43.6603 29.291 43.6307 29.4038 43.6238 29.5191C43.617 29.6345 43.6329 29.75 43.6706 29.8592C44.2563 31.5535 45.6682 32.7876 47.3625 33.206C47.4252 33.457 47.4566 33.708 47.4566 33.9694C47.4566 35.8833 45.8983 37.4417 43.9844 37.4417C43.5451 37.4417 43.1163 37.358 42.7189 37.1907C42.6143 35.6323 41.8299 34.1891 40.554 33.2687C40.3638 33.1319 40.1272 33.076 39.8959 33.1133C39.6646 33.1505 39.4575 33.2778 39.3199 33.4674C39.0375 33.8648 39.1211 34.4087 39.5186 34.7015C39.9662 35.0244 40.3312 35.4485 40.5838 35.9392C40.8364 36.43 40.9695 36.9734 40.9723 37.5253C40.9723 37.5358 40.9828 37.5567 40.9828 37.5672C40.9723 37.609 40.9618 37.6508 40.9618 37.7031C40.9171 38.5913 40.5329 39.4284 39.8887 40.0415C39.2445 40.6546 38.3894 40.9968 37.5001 40.9976C35.8058 40.9976 34.3416 39.753 34.0801 38.0901V33.6452C39.7382 33.1432 44.1936 28.3846 44.1936 22.601C44.1936 16.8174 39.7382 12.0587 34.0801 11.5567V5.23974C34.0862 4.31432 34.4579 3.42885 35.1143 2.77643C35.7706 2.12401 36.6583 1.75757 37.5837 1.75704ZM16.6561 18.177C18.0053 18.177 19.2394 18.9614 19.8042 20.185C20.0133 20.6243 20.5363 20.8125 20.9755 20.6138C21.4148 20.4047 21.603 19.8817 21.4043 19.4425C20.9814 18.5399 20.3103 17.7764 19.4695 17.2412C18.6287 16.7059 17.6529 16.4211 16.6561 16.4199C16.3738 16.4199 16.1123 16.4618 15.8404 16.5036C15.3488 15.8761 15.0664 15.1335 15.0664 14.3492C15.0664 12.5294 16.4888 11.0024 18.2981 10.8769C18.3086 10.8769 18.3295 10.8665 18.34 10.8665C18.3713 10.8665 18.3923 10.8769 18.4132 10.8769C20.3271 10.8769 21.8854 12.4352 21.8854 14.3492C21.8854 14.8407 22.2829 15.2277 22.7639 15.2277C23.245 15.2277 23.6425 14.8302 23.6425 14.3492C23.6425 11.6299 21.5508 9.41271 18.9047 9.1617C18.7897 8.55011 18.8405 7.91886 19.0518 7.33353C19.2632 6.74819 19.6274 6.2301 20.1066 5.83307C20.5858 5.43603 21.1626 5.17453 21.777 5.07571C22.3914 4.97689 23.0211 5.04436 23.6006 5.27112C23.6111 6.65188 24.1664 7.97265 25.1457 8.94609C26.125 9.91952 27.4491 10.4669 28.8299 10.469C29.3215 10.469 29.7084 10.0716 29.7084 9.59051C29.7084 9.09895 29.311 8.71199 28.8299 8.71199C26.916 8.71199 25.3577 7.15366 25.3577 5.2502C25.3577 5.16653 25.3368 5.10378 25.3158 5.02011C25.3368 4.95736 25.3786 4.90507 25.389 4.83186C25.5878 3.07482 27.0624 1.75704 28.8299 1.75704C30.7543 1.75704 32.3231 3.31537 32.3231 5.23974V11.5463C26.5709 11.9541 22.0109 16.7442 22.0109 22.601C22.0109 28.4578 26.5709 33.2478 32.3231 33.6557V38.0692C32.0825 39.753 30.6079 41.0185 28.8927 41.0185C28.0028 41.0195 27.1467 40.6779 26.5021 40.0644C25.8575 39.451 25.4739 38.6129 25.4309 37.7241C25.4309 37.6822 25.4204 37.6508 25.41 37.609C25.41 37.5881 25.4204 37.5672 25.4204 37.5463C25.4204 36.3121 26.0898 35.1617 27.1565 34.5342C27.5749 34.2936 27.7213 33.7498 27.4703 33.3315C27.4125 33.2313 27.3353 33.1437 27.2433 33.0736C27.1514 33.0035 27.0464 32.9524 26.9345 32.9232C26.8226 32.894 26.706 32.8873 26.5916 32.9036C26.4771 32.9198 26.3669 32.9586 26.2676 33.0177C25.5266 33.4519 24.9035 34.0614 24.4531 34.7926C24.0027 35.5238 23.7387 36.3545 23.6843 37.2116C23.2764 37.3789 22.8581 37.4626 22.4188 37.4626C20.5049 37.4626 18.9466 35.9043 18.9466 33.9903C18.9466 33.7393 18.9884 33.4883 19.0407 33.2373C20.4003 32.9027 21.603 32.0241 22.3142 30.79C22.5548 30.3717 22.4188 29.8278 21.99 29.5873C21.5717 29.3467 21.0278 29.4827 20.7873 29.9115C20.2539 30.8423 19.3126 31.4594 18.2668 31.6058C18.2249 31.6058 18.1831 31.6058 18.1413 31.6162C18.1308 31.6162 18.1099 31.6162 18.089 31.6267C17.9844 31.6372 17.8798 31.6476 17.7752 31.6476H17.7647C15.8508 31.6476 14.303 30.0893 14.303 28.1858C14.303 27.6002 14.4494 27.0354 14.7318 26.5229C15.3174 26.753 15.9554 26.889 16.6352 26.889C17.1268 26.889 17.5137 26.4915 17.5137 26.0105C17.5137 25.5189 17.1163 25.1319 16.6352 25.1319C14.7213 25.1319 13.1734 23.5736 13.1734 21.6702C13.1839 19.7353 14.7422 18.177 16.6561 18.177ZM62.4542 58.2124H59.6304V52.8158C59.6304 50.5776 57.8106 48.7578 55.5725 48.7578H11.3536C9.11551 48.7578 7.29572 50.5776 7.29572 52.8158V58.2124H4.47191C2.40111 58.2124 0.717285 59.8962 0.717285 61.967V64.1215C0.717285 64.613 1.11471 65 1.5958 65H65.3199C65.8114 65 66.1984 64.6026 66.1984 64.1215V61.967C66.2088 59.8858 64.525 58.2124 62.4542 58.2124ZM9.06322 52.8158C9.06322 51.5503 10.0882 50.5253 11.3536 50.5253H55.5725C56.838 50.5253 57.8629 51.5503 57.8629 52.8158V58.2124H9.06322V52.8158ZM64.4413 63.2325H2.48478V61.9566C2.48478 60.8584 3.37376 59.9694 4.47191 59.9694H62.4437C63.5419 59.9694 64.4309 60.8584 64.4309 61.9566V63.2325H64.4413Z"/><path d="M13.3826 53.4851H12.9747C12.4831 53.4851 12.0962 53.8825 12.0962 54.3636C12.0962 54.8447 12.4936 55.2421 12.9747 55.2421H13.3826C13.8741 55.2421 14.2611 54.8447 14.2611 54.3636C14.2611 53.8825 13.8637 53.4851 13.3826 53.4851ZM16.9594 53.4851H16.5515C16.0599 53.4851 15.673 53.8825 15.673 54.3636C15.673 54.8447 16.0704 55.2421 16.5515 55.2421H16.9594C17.4509 55.2421 17.8379 54.8447 17.8379 54.3636C17.8379 53.8825 17.4509 53.4851 16.9594 53.4851ZM20.5467 53.4851H20.1388C19.6472 53.4851 19.2603 53.8825 19.2603 54.3636C19.2603 54.8447 19.6577 55.2421 20.1388 55.2421H20.5467C21.0382 55.2421 21.4252 54.8447 21.4252 54.3636C21.4252 53.8825 21.0382 53.4851 20.5467 53.4851ZM24.134 53.4851H23.7261C23.2345 53.4851 22.8476 53.8825 22.8476 54.3636C22.8476 54.8447 23.245 55.2421 23.7261 55.2421H24.134C24.6255 55.2421 25.0125 54.8447 25.0125 54.3636C25.0125 53.8825 24.6151 53.4851 24.134 53.4851ZM27.7213 53.4851H27.3134C26.8218 53.4851 26.4349 53.8825 26.4349 54.3636C26.4349 54.8447 26.8323 55.2421 27.3134 55.2421H27.7213C28.2128 55.2421 28.5998 54.8447 28.5998 54.3636C28.5998 53.8825 28.2023 53.4851 27.7213 53.4851ZM52.8323 45.8085C52.9892 45.9235 53.1669 45.9758 53.3447 45.9758C53.6167 45.9758 53.8886 45.8503 54.0664 45.6098L65.7068 29.3258C65.8417 29.1341 65.8954 28.8968 65.8562 28.6657C65.817 28.4346 65.6881 28.2283 65.4976 28.0917C65.3059 27.9568 65.0686 27.9031 64.8375 27.9423C64.6064 27.9814 64.4001 28.1103 64.2635 28.3009L52.6336 44.5849C52.3512 44.9823 52.4453 45.5261 52.8323 45.8085ZM50.5 40.1818L47.352 44.5849C47.2267 44.7766 47.1803 45.0093 47.2224 45.2345C47.2645 45.4596 47.3919 45.6598 47.578 45.7934C47.7642 45.9269 47.9946 45.9834 48.2214 45.9512C48.4482 45.9189 48.6538 45.8004 48.7953 45.6202L51.9328 41.2067C52.2152 40.8093 52.1211 40.2655 51.7237 39.9726C51.3262 39.6798 50.7824 39.7844 50.5 40.1818ZM56.9529 33.5406C57.2249 33.5406 57.4968 33.4151 57.6746 33.1746L60.4252 29.3153C60.7076 28.9179 60.6134 28.3741 60.216 28.0812C59.8186 27.7884 59.2747 27.893 58.9819 28.2904L56.2313 32.1496C55.9489 32.547 56.0431 33.0909 56.4405 33.3837C56.5974 33.4883 56.7752 33.5406 56.9529 33.5406ZM12.5354 45.9758C12.7132 45.9758 12.891 45.9235 13.0479 45.8085C13.4453 45.5261 13.5394 44.9718 13.2571 44.5744L1.60621 28.3009C1.32383 27.9034 0.769525 27.8093 0.3721 28.0917C-0.025326 28.3741 -0.119453 28.9284 0.162928 29.3258L11.8033 45.6098C11.9916 45.8503 12.2635 45.9758 12.5354 45.9758ZM14.1565 39.9726C13.7591 40.255 13.6649 40.8093 13.9473 41.2067L17.0953 45.6098C17.2627 45.8503 17.5346 45.9758 17.817 45.9758C17.9948 45.9758 18.1726 45.9235 18.3295 45.8085C18.7269 45.5261 18.821 44.9718 18.5386 44.5744L15.3906 40.1713C15.2516 39.9836 15.0447 39.8577 14.814 39.8205C14.5834 39.7834 14.3474 39.838 14.1565 39.9726ZM8.21603 33.1746C8.38336 33.4151 8.65528 33.5406 8.92721 33.5406C9.105 33.5406 9.2828 33.4883 9.43968 33.3733C9.8371 33.0909 9.93123 32.5366 9.64885 32.1392L6.89825 28.2799C6.61586 27.8825 6.06156 27.7884 5.66413 28.0708C5.26671 28.3532 5.17258 28.9075 5.45496 29.3049L8.21603 33.1746ZM28.6939 23.6468H31.685L30.1895 27.8511C29.9908 28.4159 30.1999 29.033 30.7124 29.3467C30.9216 29.4827 31.1517 29.5454 31.3818 29.5454C31.706 29.5454 32.0302 29.4199 32.2812 29.1689L38.4413 22.9042C38.7969 22.5382 38.9015 22.0048 38.7027 21.5342C38.504 21.0635 38.0439 20.7602 37.5418 20.7602H34.5925L35.8162 17.3298C35.9521 16.9429 35.8894 16.5141 35.6593 16.1794C35.4188 15.8447 35.0318 15.646 34.6239 15.646H33.6931C33.3375 15.646 33.0028 15.7924 32.7623 16.0539L27.7631 21.5342C27.4284 21.9002 27.3343 22.4336 27.5435 22.8938C27.7422 23.354 28.1919 23.6468 28.6939 23.6468ZM36.3496 22.5173L32.6054 26.3242L33.7663 23.0611C33.8272 22.8855 33.8309 22.6951 33.7768 22.5173H36.3496ZM33.9127 17.403L32.5113 21.3355C32.4503 21.5111 32.4467 21.7015 32.5008 21.8793H29.8234L33.9127 17.403Z"/></svg>