<svg xmlns="http://www.w3.org/2000/svg" viewBox="0 0 40 40"><path d="M37.3783 5.48152H26.965C26.6421 5.48152 26.3805 5.74316 26.3805 6.06605C26.3805 6.38895 26.6421 6.65058 26.965 6.65058H37.3783C38.1792 6.65058 38.8309 7.30221 38.8309 8.10325V28.4387H34.5548C34.2319 28.4387 33.9702 28.7003 33.9702 29.0232C33.9702 29.3461 34.2319 29.6077 34.5548 29.6077H38.8309V30.052C38.8309 30.853 38.1793 31.5047 37.3783 31.5047H19.8408C19.5179 31.5047 19.2562 31.7663 19.2562 32.0892C19.2562 32.4121 19.5179 32.6737 19.8408 32.6737H24.1518V36.2282C24.1518 36.4062 24.2329 36.5745 24.3721 36.6854L26.9644 38.7503H13.0356L15.468 36.8127H21.404C21.7269 36.8127 21.9886 36.5511 21.9886 36.2282C21.9886 35.9053 21.7269 35.6437 21.404 35.6437H15.8482V32.6737H17.3497C17.6726 32.6737 17.9343 32.4121 17.9343 32.0892C17.9343 31.7663 17.6726 31.5047 17.3497 31.5047H2.62173C1.82077 31.5047 1.16906 30.853 1.16906 30.052V29.6077H32.0637C32.3866 29.6077 32.6482 29.3461 32.6482 29.0232C32.6482 28.7003 32.3866 28.4387 32.0637 28.4387H1.16906V8.10317C1.16906 7.30221 1.82069 6.6505 2.62173 6.6505H12.8406C13.1635 6.6505 13.4251 6.38887 13.4251 6.06597C13.4251 5.74308 13.1635 5.48145 12.8406 5.48145H2.62173C1.17607 5.48152 0 6.65759 0 8.10317V30.0519C0 31.4976 1.17607 32.6736 2.62173 32.6736H14.6792V35.9465L12.1486 37.9622C11.7783 38.2572 11.6399 38.7367 11.7963 39.1837C11.9525 39.6305 12.3594 39.9193 12.8328 39.9193H27.1673C27.6408 39.9193 28.0476 39.6305 28.2039 39.1837C28.3602 38.7367 28.2218 38.2572 27.8515 37.9622L25.321 35.9465V32.6736H37.3784C38.8241 32.6736 40.0002 31.4976 40.0002 30.0519V8.10317C40 6.65759 38.824 5.48152 37.3783 5.48152Z"/><path d="M15.5665 13.9482C15.8242 13.7536 15.8752 13.387 15.6806 13.1294C15.2808 12.6002 14.9896 12.0124 14.8134 11.3888L19.3183 13.9799V15.201C18.6397 15.1257 17.9794 14.9204 17.3816 14.5955C17.0976 14.4413 16.743 14.5463 16.5888 14.83C16.4347 15.1137 16.5397 15.4685 16.8233 15.6227C17.5919 16.0404 18.4446 16.2968 19.3183 16.3762V18.0702C19.3183 18.3931 19.5799 18.6547 19.9028 18.6547C20.2257 18.6547 20.4873 18.3931 20.4873 18.0702V16.3754C23.7749 16.0788 26.3602 13.3092 26.3602 9.94564C26.3602 7.02752 22.3332 2.23602 20.6017 0.311281C20.4235 0.113476 20.1687 0 19.9027 0C19.6367 0 19.3819 0.113477 19.2036 0.311515C17.4722 2.23602 13.4453 7.02744 13.4453 9.94564C13.4453 11.3617 13.8956 12.7063 14.7477 13.8342C14.9425 14.0917 15.3091 14.1429 15.5665 13.9482ZM14.6153 9.92623C14.621 9.26603 14.9261 8.40848 15.42 7.4564L19.3183 9.69858V12.6313L14.6153 9.92623ZM17.2303 4.59541L19.3183 5.79634V8.35003L15.9953 6.43878C16.3608 5.83812 16.7802 5.21657 17.2303 4.59541ZM23.8103 6.43878L20.4873 8.35003V5.79634L22.5753 4.59549C23.0254 5.21665 23.4448 5.83819 23.8103 6.43878ZM25.1904 9.92623L20.4873 12.6313V9.69858L24.3856 7.4564C24.8796 8.40856 25.1847 9.2661 25.1904 9.92623ZM20.4873 15.201V13.9799L24.9888 11.3908C24.4099 13.425 22.6423 14.9628 20.4873 15.201ZM21.8693 3.65291L20.4873 4.44772V1.95451C20.9518 2.49796 21.4188 3.06994 21.8693 3.65291ZM19.3183 1.95459V4.4478L17.9363 3.65291C18.3868 3.06994 18.8538 2.49789 19.3183 1.95459Z"/><path d="M9.44994 9.14746H5.83592C5.00987 9.14746 4.33789 9.81944 4.33789 10.6454V14.6956C4.33789 15.5216 5.00987 16.1935 5.83592 16.1935H9.44994C10.2759 16.1935 10.9479 15.5216 10.9479 14.6956V10.6454C10.9479 9.81944 10.2759 9.14746 9.44994 9.14746ZM9.77884 14.6955C9.77884 14.8769 9.6313 15.0244 9.44994 15.0244H5.83592C5.65456 15.0244 5.50695 14.8769 5.50695 14.6955V10.6453C5.50695 10.464 5.65456 10.3164 5.83592 10.3164H9.44994C9.6313 10.3164 9.77884 10.464 9.77884 10.6453V14.6955Z"/><path d="M29.4009 10.9972H36.2915C36.6144 10.9972 36.876 10.7355 36.876 10.4127C36.876 10.0898 36.6144 9.82812 36.2915 9.82812H29.4009C29.078 9.82812 28.8164 10.0898 28.8164 10.4127C28.8164 10.7355 29.0781 10.9972 29.4009 10.9972Z"/><path d="M29.4009 13.6739H36.2915C36.6144 13.6739 36.876 13.4123 36.876 13.0894C36.876 12.7665 36.6144 12.5049 36.2915 12.5049H29.4009C29.078 12.5049 28.8164 12.7665 28.8164 13.0894C28.8164 13.4123 29.0781 13.6739 29.4009 13.6739Z"/><path d="M29.4009 16.3497H36.2915C36.6144 16.3497 36.876 16.088 36.876 15.7651C36.876 15.4422 36.6144 15.1806 36.2915 15.1806H29.4009C29.078 15.1806 28.8164 15.4422 28.8164 15.7651C28.8164 16.088 29.0781 16.3497 29.4009 16.3497Z"/><path d="M12.6367 22.5439C13.641 22.5439 14.458 21.7269 14.458 20.7226C14.458 19.7184 13.641 18.9014 12.6367 18.9014C11.6324 18.9014 10.8154 19.7184 10.8154 20.7226C10.8154 21.7269 11.6324 22.5439 12.6367 22.5439ZM12.6367 20.0704C12.9963 20.0704 13.2889 20.363 13.2889 20.7226C13.2889 21.0823 12.9963 21.3749 12.6367 21.3749C12.2771 21.3749 11.9845 21.0823 11.9845 20.7226C11.9844 20.363 12.277 20.0704 12.6367 20.0704Z"/><path d="M6.60308 20.1387C6.28019 20.1387 6.01855 20.4003 6.01855 20.7232C6.01855 21.0461 6.28019 21.3077 6.60308 21.3077H9.3167C9.63959 21.3077 9.90123 21.0461 9.90123 20.7232C9.90123 20.4003 9.63959 20.1387 9.3167 20.1387H6.60308Z"/><path d="M15.4658 20.7232C15.4658 21.0461 15.7275 21.3077 16.0503 21.3077H33.3097C33.6326 21.3077 33.8942 21.0461 33.8942 20.7232C33.8942 20.4003 33.6326 20.1387 33.3097 20.1387H16.0503C15.7275 20.1387 15.4658 20.4004 15.4658 20.7232Z"/><path d="M25.4541 24.8721C25.4541 25.8764 26.2711 26.6934 27.2754 26.6934C28.2797 26.6934 29.0967 25.8764 29.0967 24.8721C29.0967 23.8678 28.2797 23.0508 27.2754 23.0508C26.2711 23.0508 25.4541 23.8678 25.4541 24.8721ZM27.9277 24.8721C27.9277 25.2318 27.6351 25.5244 27.2754 25.5244C26.9157 25.5244 26.6232 25.2318 26.6232 24.8721C26.6232 24.5124 26.9157 24.2198 27.2754 24.2198C27.6351 24.2198 27.9277 24.5124 27.9277 24.8721Z"/><path d="M33.3089 24.2881H30.5953C30.2724 24.2881 30.0107 24.5497 30.0107 24.8726C30.0107 25.1955 30.2724 25.4571 30.5953 25.4571H33.3089C33.6318 25.4571 33.8934 25.1955 33.8934 24.8726C33.8934 24.5497 33.6317 24.2881 33.3089 24.2881Z"/><path d="M6.60308 25.4573H23.8624C24.1853 25.4573 24.447 25.1957 24.447 24.8728C24.447 24.5499 24.1853 24.2883 23.8624 24.2883H6.60308C6.28019 24.2883 6.01855 24.5499 6.01855 24.8728C6.01855 25.1957 6.28019 25.4573 6.60308 25.4573Z"/></svg>