<svg xmlns="http://www.w3.org/2000/svg" viewBox="0 0 30 30"><path d="M29.2847 13.2479C29.2847 13.134 29.2506 13.019 29.1784 12.9197C29.1534 12.8854 29.125 12.8551 29.0944 12.8283C29.0945 12.8282 29.0945 12.8282 29.0947 12.828L27.1688 11.1426C27.5838 10.8085 27.85 10.2967 27.85 9.72376V8.80802C27.85 6.34642 25.8473 4.34375 23.3857 4.34375C20.9241 4.34375 18.9214 6.34642 18.9214 8.80802C18.9214 11.2696 20.9241 13.2723 23.3857 13.2723C23.6939 13.2723 23.9437 13.0225 23.9437 12.7143C23.9437 12.4061 23.6939 12.1562 23.3857 12.1562C21.5395 12.1562 20.0375 10.6542 20.0375 8.80802C20.0375 6.96182 21.5395 5.45982 23.3857 5.45982C25.2319 5.45982 26.7339 6.96182 26.7339 8.80802V9.72376C26.7339 10.1127 26.4175 10.4291 26.0285 10.4291C25.6395 10.4291 25.3231 10.1127 25.3231 9.72376V8.95267V7.34832C25.3231 7.19486 25.26 7.04821 25.1485 6.94279C24.6698 6.49028 24.0438 6.24107 23.3857 6.24107C21.9703 6.24107 20.8187 7.39263 20.8187 8.80802C20.8187 10.2234 21.9703 11.375 23.3857 11.375C23.8646 11.375 24.3262 11.2424 24.7268 10.9961C25.0471 11.3236 25.4894 11.5309 25.9795 11.544C26.0095 11.5963 26.048 11.6448 26.0959 11.6868L27.8339 13.2078L23.3701 16.4553V15.0005C23.3701 14.6923 23.1202 14.4424 22.812 14.4424C22.5038 14.4424 22.254 14.6923 22.254 15.0005V17.2672L18.088 20.2979L15.3278 18.2899C15.1321 18.1475 14.867 18.1475 14.6713 18.2899L11.911 20.2979L2.18942 13.2254L5.3648 10.4464C5.59672 10.2435 5.62016 9.89089 5.4172 9.65897C5.21419 9.42705 4.86168 9.40361 4.62976 9.60657L0.91967 12.8152C0.919447 12.8154 0.919224 12.8156 0.919001 12.8158C0.793833 12.9182 0.713867 13.0737 0.713867 13.248V28.7281C0.713867 29.0363 0.963699 29.2861 1.2719 29.2861H28.7272C29.0354 29.2861 29.2852 29.0363 29.2852 28.7281V13.248C29.2851 13.248 29.2848 13.2479 29.2847 13.2479ZM24.2071 8.95272V9.72381V10.0037C23.9667 10.1695 23.6819 10.2589 23.3857 10.2589C22.5857 10.2589 21.9348 9.60802 21.9348 8.80802C21.9348 8.00803 22.5857 7.35714 23.3857 7.35714C23.6819 7.35714 23.9667 7.44659 24.2071 7.61238V8.95272ZM1.82994 14.344L10.9625 20.988L1.82994 27.632V14.344ZM2.98752 28.17L14.9995 19.4312L27.0116 28.17H2.98752ZM28.1692 27.632L19.0366 20.988L28.1692 14.344V27.632Z"/><path d="M19.5389 4.46591L15.3648 0.849851C15.1528 0.666091 14.8421 0.671225 14.6357 0.849182C14.6356 0.849014 14.6355 0.848903 14.6353 0.848735L12.6264 2.57864C12.3928 2.77976 12.3666 3.1321 12.5677 3.36564C12.6781 3.49382 12.8339 3.55955 12.9908 3.55955C13.1197 3.55955 13.2493 3.51513 13.3547 3.4244L14.9984 2.00894L17.6921 4.34253H7.18694C6.87874 4.34253 6.62891 4.59236 6.62891 4.90057V12.9345C6.62891 13.2427 6.87874 13.4926 7.18694 13.4926C7.49514 13.4926 7.74497 13.2427 7.74497 12.9345V5.45866H19.1735C19.1716 5.45402 19.1702 5.45001 19.1684 5.44549C19.17 5.44549 19.1716 5.44571 19.1732 5.44571C19.3294 5.44571 19.4848 5.38042 19.5952 5.25308C19.797 5.02015 19.7718 4.6677 19.5389 4.46591Z"/><path d="M15.0765 9.97754H9.49749C9.18929 9.97754 8.93945 10.2274 8.93945 10.5356C8.93945 10.8438 9.18929 11.0936 9.49749 11.0936H15.0765C15.3847 11.0936 15.6345 10.8438 15.6345 10.5356C15.6345 10.2274 15.3847 9.97754 15.0765 9.97754Z"/><path d="M14.9988 7.1875H9.49749C9.18929 7.1875 8.93945 7.43733 8.93945 7.74553C8.93945 8.05374 9.18929 8.30357 9.49749 8.30357H14.9988C15.307 8.30357 15.5568 8.05374 15.5568 7.74553C15.5568 7.43733 15.307 7.1875 14.9988 7.1875Z"/><path d="M7.58147 14.7905C7.47768 14.6867 7.3337 14.627 7.18694 14.627C7.04018 14.627 6.8962 14.6867 6.79241 14.7905C6.68862 14.8943 6.62891 15.0382 6.62891 15.185C6.62891 15.3323 6.68862 15.4757 6.79241 15.5795C6.8962 15.6839 7.04018 15.743 7.18694 15.743C7.3337 15.743 7.47768 15.6839 7.58147 15.5795C7.68527 15.4757 7.74497 15.3323 7.74497 15.185C7.74497 15.0382 7.68527 14.8943 7.58147 14.7905Z"/><path d="M18.7713 12.7275H17.6782C17.3699 12.7275 17.1201 12.9774 17.1201 13.2856C17.1201 13.5938 17.3699 13.8436 17.6782 13.8436H18.7713C19.0795 13.8436 19.3293 13.5938 19.3293 13.2856C19.3293 12.9774 19.0795 12.7275 18.7713 12.7275Z"/><path d="M15.2107 12.7266H15.2045C14.8963 12.7266 14.6465 12.9764 14.6465 13.2846C14.6465 13.5928 14.8963 13.8426 15.2045 13.8426H15.2107C15.5188 13.8426 15.7687 13.5928 15.7687 13.2846C15.7687 12.9764 15.5189 12.7266 15.2107 12.7266Z"/><path d="M12.5442 12.7266H9.49553C9.18733 12.7266 8.9375 12.9764 8.9375 13.2846C8.9375 13.5928 9.18733 13.8426 9.49553 13.8426H12.5442C12.8524 13.8426 13.1023 13.5928 13.1023 13.2846C13.1023 12.9764 12.8524 12.7266 12.5442 12.7266Z"/></svg>
