<svg xmlns="http://www.w3.org/2000/svg" viewBox="0 0 30 26"><path d="M20.0445 25.8128H1.1603C0.937084 25.8128 0.713867 25.6342 0.713867 25.3664C0.713867 25.0985 0.892441 24.9199 1.1603 24.9199H20.0445C20.2677 24.9199 20.4909 25.0985 20.4909 25.3664C20.4909 25.6342 20.2677 25.8128 20.0445 25.8128Z"/><path d="M20.0458 25.8114H3.88491C3.66169 25.8114 3.43848 25.6328 3.43848 25.3649V13.9809C3.43848 13.7576 3.61705 13.5344 3.88491 13.5344C4.15277 13.5344 4.33135 13.713 4.33135 13.9809V24.9185H20.0458C20.2691 24.9185 20.4923 25.0971 20.4923 25.3649C20.4923 25.6328 20.2691 25.8114 20.0458 25.8114Z"/><path d="M2.72282 14.8752C2.1871 14.8752 1.69602 14.6966 1.29423 14.2948C0.937084 13.9377 0.713867 13.402 0.713867 12.8662C0.713867 12.3752 0.937085 11.8841 1.24959 11.4823L11.4729 1.25894C12.9015 -0.169648 15.1783 -0.169648 16.6069 1.25894L20.982 5.634C21.1606 5.81258 21.1606 6.08044 20.982 6.25901C20.8034 6.43758 20.5356 6.43758 20.357 6.25901L15.9819 1.88395C14.9105 0.812509 13.1694 0.812509 12.0979 1.88395L1.91924 12.0627C1.74067 12.2859 1.60674 12.5984 1.60674 12.8662C1.60674 13.0895 1.65138 13.402 1.91924 13.6698C2.36568 14.1163 3.12461 14.1163 3.57105 13.6698L13.7498 3.49112C13.9283 3.31254 14.1962 3.31254 14.3748 3.49112L18.0802 7.19652C18.2587 7.3751 18.2587 7.64296 18.0802 7.82153C17.9016 8.00011 17.6337 8.00011 17.4552 7.82153L14.0623 4.42863L4.19606 14.2948C3.79427 14.6966 3.25854 14.8752 2.72282 14.8752Z"/><path d="M15.401 25.8139H9.06167C8.83845 25.8139 8.61523 25.6354 8.61523 25.3675V17.2424C8.61523 16.5281 9.1956 15.9031 9.95454 15.9031H14.5528C15.2671 15.9031 15.8475 16.5281 15.8475 17.2424V25.3675C15.8475 25.5907 15.6243 25.8139 15.401 25.8139ZM9.5081 24.9211H14.9546V17.2424C14.9546 16.9745 14.7314 16.7959 14.5528 16.7959H9.95454C9.68668 16.7959 9.5081 17.0192 9.5081 17.2424V24.9211Z"/><path d="M22.8109 25.7685C22.2305 25.7685 21.6948 25.456 21.3823 24.9649C19.8198 22.3756 16.293 16.1255 16.293 13.4469C16.293 9.87546 19.1948 6.97363 22.7663 6.97363C26.3377 6.97363 29.2842 9.87546 29.2842 13.4469C29.2842 15.322 27.5878 19.1613 24.2841 24.9649C23.927 25.456 23.3913 25.7685 22.8109 25.7685ZM22.7663 7.8665C19.6859 7.8665 17.1858 10.3665 17.1858 13.4469C17.1858 15.947 20.9805 22.5542 22.1413 24.5185C22.2752 24.7417 22.5431 24.9203 22.8556 24.9203C23.1681 24.9203 23.3913 24.7864 23.5699 24.5185C27.5431 17.5095 28.3913 14.6077 28.3913 13.4469C28.3913 10.3665 25.8913 7.8665 22.7663 7.8665Z"/><path d="M22.814 17.5967C20.5371 17.5967 18.6621 15.7216 18.6621 13.4448C18.6621 11.168 20.5371 9.29297 22.814 9.29297C25.0908 9.29297 26.9658 11.168 26.9658 13.4448C26.9658 15.7216 25.0908 17.5967 22.814 17.5967ZM22.814 10.1858C21.0282 10.1858 19.555 11.6591 19.555 13.4448C19.555 15.2305 21.0282 16.7038 22.814 16.7038C24.5997 16.7038 26.0729 15.2305 26.0729 13.4448C26.0729 11.6591 24.5997 10.1858 22.814 10.1858Z"/><path d="M10.4015 21.6607C10.1783 21.6607 9.95508 21.4822 9.95508 21.2143V20.6339C9.95508 20.4107 10.1337 20.1875 10.4015 20.1875C10.6694 20.1875 10.8479 20.3661 10.8479 20.6339V21.2143C10.8479 21.4375 10.6247 21.6607 10.4015 21.6607Z"/></svg>
