<svg xmlns="http://www.w3.org/2000/svg" viewBox="0 0 40 30"><path d="M39.0963 24.7692H38.8338V4.35799C38.8338 3.01468 37.7409 1.92188 36.3977 1.92188H29.4328C29.1086 1.92188 28.8459 2.18467 28.8459 2.50881C28.8459 2.83296 29.1086 3.09575 29.4328 3.09575H36.3977C37.0937 3.09575 37.6599 3.66195 37.6599 4.35799V24.7692H2.41835V4.35799C2.41835 3.66195 2.98455 3.09575 3.68058 3.09575H10.6454C10.9695 3.09575 11.2323 2.83296 11.2323 2.50881C11.2323 2.18467 10.9695 1.92188 10.6454 1.92188H3.68058C2.33727 1.92188 1.24447 3.01468 1.24447 4.35799V24.7692H0.90373C0.405458 24.7692 0 25.1746 0 25.673V25.988C0 27.9178 1.56995 29.4878 3.49972 29.4878H36.5003C38.4301 29.4878 40.0001 27.9178 40.0001 25.988V25.673C40 25.1746 39.5946 24.7692 39.0963 24.7692ZM38.8261 25.988C38.8261 27.2705 37.7827 28.3139 36.5002 28.3139H3.49972C2.21722 28.3139 1.17388 27.2705 1.17388 25.988V25.943H38.8261V25.988Z"/><path d="M10.8058 5.44314C11.13 5.44314 11.3928 5.18035 11.3928 4.8562C11.3928 4.53206 11.13 4.26926 10.8058 4.26926H4.17874C3.85459 4.26926 3.5918 4.53206 3.5918 4.8562V23.008C3.5918 23.3321 3.85459 23.5949 4.17874 23.5949H35.8987C36.2229 23.5949 36.4856 23.3321 36.4856 23.008V4.8562C36.4856 4.53206 36.2229 4.26926 35.8987 4.26926H29.2715C28.9473 4.26926 28.6846 4.53206 28.6846 4.8562C28.6846 5.18035 28.9473 5.44314 29.2715 5.44314H35.3117V22.421H25.4428L24.6995 21.4975C24.4961 21.245 24.1267 21.205 23.8742 21.4083C23.6216 21.6116 23.5818 21.9811 23.7849 22.2335L23.9358 22.421H16.1415L17.8904 20.2483C18.4166 19.5946 19.1995 19.2198 20.0386 19.2198C20.8777 19.2198 21.6608 19.5946 22.1867 20.2481L22.2134 20.2813C22.4164 20.5338 22.7858 20.574 23.0386 20.3709C23.2912 20.1677 23.3313 19.7983 23.1282 19.5457L23.1013 19.5123C22.4757 18.735 21.5948 18.2355 20.6256 18.0908V15.628H21.5106C23.4404 15.628 25.0105 14.058 25.0105 12.1281V11.2973C25.0105 10.77 24.5816 10.3412 24.0544 10.3412H22.9516C22.0593 10.3412 21.2444 10.6773 20.6256 11.229V8.01777H23.0967C25.6192 8.01777 27.6715 5.96544 27.6715 3.44293V1.89435C27.6715 1.1325 27.0517 0.512695 26.2898 0.512695H24.0266C22.3166 0.512695 20.8236 1.45642 20.0386 2.84973C19.2536 1.45642 17.7607 0.512695 16.0507 0.512695H13.7875C13.0256 0.512695 12.4057 1.1325 12.4057 1.89435V3.4427C12.4057 5.05608 13.2303 6.51928 14.6113 7.35688C14.8886 7.5249 15.2494 7.43647 15.4175 7.15935C15.5856 6.88216 15.4972 6.52123 15.22 6.35313C14.1929 5.73027 13.5796 4.64224 13.5796 3.44278V1.89435C13.5796 1.77978 13.6728 1.68657 13.7875 1.68657H16.0507C17.926 1.68657 19.4517 3.2123 19.4517 5.08754V6.84374H17.417C17.0928 6.84374 16.83 7.10653 16.83 7.43068C16.83 7.75482 17.0928 8.01762 17.417 8.01762H19.4517V13.2726L17.8558 11.1332C17.6737 10.8892 17.3833 10.7436 17.0789 10.7436H14.3328V9.85129C14.3328 9.17303 13.7809 8.62115 13.1026 8.62115H8.32488C7.64661 8.62115 7.09473 9.17303 7.09473 9.85129V13.168C7.09473 13.4921 7.35752 13.7549 7.68167 13.7549C8.00582 13.7549 8.26861 13.4921 8.26861 13.168V9.85129C8.26861 9.8203 8.29389 9.79502 8.32488 9.79502H13.1026C13.1336 9.79502 13.1589 9.8203 13.1589 9.85129V16.7515C13.1589 16.7825 13.1336 16.8078 13.1026 16.8078H8.32488C8.29389 16.8078 8.26861 16.7825 8.26861 16.7515V15.6693C8.26861 15.3451 8.00582 15.0823 7.68167 15.0823C7.35752 15.0823 7.09473 15.3451 7.09473 15.6693V16.7515C7.09473 17.4298 7.64661 17.9817 8.32488 17.9817H13.1026C13.7809 17.9817 14.3328 17.4298 14.3328 16.7515V11.9175H16.9763L19.4518 15.2358V18.0907C18.4826 18.2354 17.6017 18.7349 16.9761 19.5122L14.6347 22.421H4.76568V5.44314H10.8058ZM22.9516 11.515H23.8367V12.1281C23.8367 13.4107 22.7932 14.4541 21.5107 14.4541H20.6256V13.841C20.6256 12.5584 21.6691 11.515 22.9516 11.515ZM24.0267 1.68657H26.2899C26.4045 1.68657 26.4977 1.77978 26.4977 1.89435V3.44278C26.4977 5.31809 24.972 6.84374 23.0967 6.84374H20.6256V5.08754C20.6256 3.2123 22.1514 1.68657 24.0267 1.68657Z"/><path d="M33.2708 11.3067C33.595 11.3067 33.8577 11.0439 33.8577 10.7198C33.8577 10.3956 33.595 10.1328 33.2708 10.1328H30.6006C30.2764 10.1328 30.0137 10.3956 30.0137 10.7198C30.0137 11.0439 30.2764 11.3067 30.6006 11.3067H33.2708Z"/><path d="M26.8018 13.6602C26.8018 13.9843 27.0645 14.2471 27.3887 14.2471H33.2708C33.595 14.2471 33.8577 13.9843 33.8577 13.6602C33.8577 13.336 33.595 13.0732 33.2708 13.0732H27.3887C27.0645 13.0732 26.8018 13.336 26.8018 13.6602Z"/><path d="M33.2708 16.0146H27.3887C27.0645 16.0146 26.8018 16.2774 26.8018 16.6016C26.8018 16.9257 27.0645 17.1885 27.3887 17.1885H33.2708C33.595 17.1885 33.8577 16.9257 33.8577 16.6016C33.8577 16.2774 33.595 16.0146 33.2708 16.0146Z"/><path d="M33.2708 18.9561H27.3887C27.0645 18.9561 26.8018 19.2188 26.8018 19.543C26.8018 19.8671 27.0645 20.1299 27.3887 20.1299H33.2708C33.595 20.1299 33.8577 19.8671 33.8577 19.543C33.8577 19.2188 33.595 18.9561 33.2708 18.9561Z"/><path d="M26.8018 10.7198C26.8018 11.0439 27.0645 11.3067 27.3887 11.3067H28.124C28.4482 11.3067 28.711 11.0439 28.711 10.7198C28.711 10.3956 28.4482 10.1328 28.124 10.1328H27.3887C27.0645 10.1328 26.8018 10.3956 26.8018 10.7198Z"/></svg>