<svg xmlns="http://www.w3.org/2000/svg" viewBox="0 0 40 36"><path d="M28.9556 17.628C28.6612 13.5115 26.9017 9.62729 24.0015 6.69077L21.4186 4.07561C21.041 3.69342 20.5373 3.48279 20 3.48279C19.4628 3.48287 18.959 3.69334 18.5815 4.07561L15.9986 6.69077C13.0707 9.65529 11.3084 13.5777 11.0367 17.7355C10.7648 21.8933 12.0013 26.0118 14.5183 29.3323L18.4112 34.468C18.7914 34.9696 19.3706 35.2572 20.0001 35.2573C20.6296 35.2573 21.2088 34.9696 21.589 34.4679L24.1095 31.1426C24.3047 30.8852 24.2541 30.5184 23.9967 30.3233C23.7393 30.128 23.3724 30.1787 23.1774 30.436L20.6569 33.7612C20.6347 33.7905 20.6103 33.8177 20.585 33.8433V28.6444L27.5248 21.9875C27.0668 24.3108 26.1009 26.5234 24.6765 28.4542C24.4847 28.7142 24.54 29.0803 24.8 29.272C25.0597 29.4639 25.4261 29.4085 25.6178 29.1486C28.0643 25.8322 29.2498 21.7408 28.9556 17.628ZM20.5849 11.6679L23.9858 8.40554C25.0928 9.70879 25.981 11.1742 26.6235 12.7429L20.5849 18.5354V11.6679ZM23.1693 7.51279C23.1786 7.52222 23.1877 7.53197 23.1969 7.54149L20.5849 10.047V4.89631C20.5854 4.89677 20.5859 4.89716 20.5864 4.89763L23.1693 7.51279ZM19.4137 4.89763C19.4141 4.89716 19.4147 4.89677 19.4152 4.89623V10.047L16.8031 7.54149C16.8125 7.53197 16.8214 7.52222 16.8308 7.51279L19.4137 4.89763ZM12.2038 17.8118C12.2904 16.4877 12.5393 15.1893 12.9381 13.9432L14.5418 15.4815C14.6552 15.5904 14.801 15.6444 14.9466 15.6444C15.1004 15.6444 15.2539 15.5842 15.3688 15.4643C15.5924 15.2312 15.5847 14.861 15.3515 14.6374L13.3761 12.7425C14.0184 11.1743 14.9065 9.70918 16.0141 8.40546L19.4152 11.6679V18.5354L17.1507 16.3632C16.9175 16.1395 16.5473 16.1471 16.3238 16.3805C16.1002 16.6135 16.1078 16.9837 16.341 17.2074L19.4152 20.1562V27.0237L12.2193 20.1211C12.1595 19.3565 12.1532 18.585 12.2038 17.8118ZM19.3433 33.7614L15.4503 28.6258C13.9556 26.6538 12.9461 24.3799 12.4748 21.9873L19.4152 28.6447V33.8436C19.3898 33.8177 19.3656 33.7907 19.3433 33.7614ZM20.5849 27.0236V20.1562L27.0611 13.944C27.4498 15.1586 27.6966 16.4227 27.7889 17.7115C27.8466 18.518 27.8425 19.3236 27.78 20.1218L20.5849 27.0236Z"/><path d="M25.702 6.43699C25.7913 6.48596 25.8877 6.5092 25.9828 6.5092C26.1894 6.5092 26.3898 6.39956 26.4961 6.20553L28.5191 2.51811H29.7135V5.79761C29.7135 6.45407 30.2476 6.98817 30.9041 6.98817H38.758C39.4145 6.98817 39.9486 6.45407 39.9486 5.79761V1.93324C39.9486 1.27678 39.4145 0.742676 38.758 0.742676H30.9041C30.4602 0.742676 30.073 0.987308 29.8683 1.34837H28.1729C27.9594 1.34837 27.7628 1.46472 27.6602 1.65196L25.4706 5.64297C25.3153 5.92612 25.4189 6.28165 25.702 6.43699ZM30.9041 1.9125H38.758C38.7695 1.9125 38.7788 1.92178 38.7788 1.93332V5.79768C38.7788 5.80915 38.7695 5.81851 38.758 5.81851H30.9041C30.8926 5.81851 30.8833 5.80923 30.8833 5.79768V1.93324C30.8834 1.92178 30.8926 1.9125 30.9041 1.9125Z"/><path d="M38.9093 28.7141H32.2712C32.2142 28.7141 32.1587 28.7198 32.1039 28.7283L31.1072 27.0773C31.0013 26.9019 30.8113 26.7947 30.6064 26.7947H28.7233C28.4002 26.7947 28.1384 27.0565 28.1384 27.3795C28.1384 27.7026 28.4002 27.9644 28.7233 27.9644H30.2764L31.2183 29.5245C31.1944 29.6141 31.1805 29.7078 31.1805 29.8048V32.1371C31.1805 32.7385 31.6697 33.2278 32.2712 33.2278H38.9093C39.5107 33.2278 39.9999 32.7385 39.9999 32.1371V29.8048C39.9999 29.2034 39.5107 28.7141 38.9093 28.7141ZM38.8302 32.0581H32.3501V29.8838H38.8302V32.0581Z"/><path d="M1.242 6.98817H3.12053C3.44354 6.98817 3.7054 6.72638 3.7054 6.4033C3.7054 6.08022 3.44354 5.81843 3.12053 5.81843H1.242C1.23054 5.81843 1.22126 5.80915 1.22126 5.79761V1.93324C1.22126 1.92178 1.23054 1.91242 1.242 1.91242H9.09589C9.10728 1.91242 9.11664 1.9217 9.11664 1.93324V5.79761C9.11664 5.80907 9.10728 5.81843 9.09589 5.81843H5.61302C5.29001 5.81843 5.02815 6.08022 5.02815 6.4033C5.02815 6.72638 5.29001 6.98817 5.61302 6.98817H9.09589C9.75235 6.98817 10.2864 6.45407 10.2864 5.79761V2.51811H11.4808L13.5038 6.20553C13.6102 6.39948 13.8105 6.50928 14.0172 6.5092C14.1122 6.5092 14.2087 6.48596 14.298 6.43699C14.5811 6.28165 14.6848 5.92612 14.5294 5.64289L12.3399 1.65196C12.2372 1.4648 12.0406 1.34837 11.8271 1.34837H10.1317C9.92696 0.987308 9.53977 0.742676 9.09589 0.742676H1.242C0.585541 0.742676 0.0515137 1.27678 0.0515137 1.93324V5.79761C0.0515137 6.45407 0.585541 6.98817 1.242 6.98817Z"/><path d="M11.2767 26.7947H9.39359C9.18872 26.7947 8.99876 26.9019 8.89294 27.0772L7.89608 28.7283C7.84141 28.7198 7.78589 28.7141 7.72888 28.7141H1.09075C0.489265 28.7141 0 29.2034 0 29.8048V32.1371C0 32.7385 0.489265 33.2278 1.09075 33.2278H7.72881C8.33021 33.2278 8.81955 32.7385 8.81955 32.1371V29.8048C8.81955 29.7078 8.80559 29.6142 8.78173 29.5245L9.72369 27.9644H11.2768C11.5998 27.9644 11.8617 27.7026 11.8617 27.3795C11.8617 27.0565 11.5997 26.7947 11.2767 26.7947ZM7.64981 32.0581H1.16974V29.8838H7.64981V32.0581Z"/><path d="M8.60757 12.833H5.32901C5.00601 12.833 4.74414 13.0948 4.74414 13.4179C4.74414 13.741 5.00601 14.0028 5.32901 14.0028H8.60757C8.93057 14.0028 9.19244 13.741 9.19244 13.4179C9.19244 13.0948 8.93057 12.833 8.60757 12.833Z"/><path d="M8.60764 16.3065H1.44718C1.12417 16.3065 0.862305 16.5683 0.862305 16.8914C0.862305 17.2145 1.12417 17.4763 1.44718 17.4763H8.60764C8.93065 17.4763 9.19252 17.2145 9.19252 16.8914C9.19252 16.5683 8.93065 16.3065 8.60764 16.3065Z"/><path d="M8.60764 19.7802H1.44718C1.12417 19.7802 0.862305 20.0419 0.862305 20.365C0.862305 20.6881 1.12417 20.9499 1.44718 20.9499H8.60764C8.93065 20.9499 9.19252 20.6881 9.19252 20.365C9.19252 20.0419 8.93065 19.7802 8.60764 19.7802Z"/><path d="M8.60764 23.2537H1.44718C1.12417 23.2537 0.862305 23.5155 0.862305 23.8385C0.862305 24.1616 1.12417 24.4234 1.44718 24.4234H8.60764C8.93065 24.4234 9.19252 24.1616 9.19252 23.8385C9.19252 23.5155 8.93065 23.2537 8.60764 23.2537Z"/><path d="M1.44718 14.0028H3.12053C3.44354 14.0028 3.70541 13.741 3.70541 13.4179C3.70541 13.0948 3.44354 12.833 3.12053 12.833H1.44718C1.12417 12.833 0.862305 13.0948 0.862305 13.4179C0.862305 13.741 1.12417 14.0028 1.44718 14.0028Z"/><path d="M38.5529 12.833H35.2743C34.9512 12.833 34.6895 13.0948 34.6895 13.4179C34.6895 13.741 34.9512 14.0028 35.2743 14.0028H38.5529C38.876 14.0028 39.1378 13.741 39.1378 13.4179C39.1378 13.0948 38.876 12.833 38.5529 12.833Z"/><path d="M38.5527 16.3065H31.3922C31.0692 16.3065 30.8074 16.5683 30.8074 16.8914C30.8074 17.2145 31.0692 17.4763 31.3922 17.4763H38.5527C38.8758 17.4763 39.1376 17.2145 39.1376 16.8914C39.1376 16.5683 38.8758 16.3065 38.5527 16.3065Z"/><path d="M38.5527 19.7802H31.3922C31.0692 19.7802 30.8074 20.0419 30.8074 20.365C30.8074 20.6881 31.0692 20.9499 31.3922 20.9499H38.5527C38.8758 20.9499 39.1376 20.6881 39.1376 20.365C39.1376 20.0419 38.8758 19.7802 38.5527 19.7802Z"/><path d="M38.5527 23.2537H31.3922C31.0692 23.2537 30.8074 23.5155 30.8074 23.8385C30.8074 24.1616 31.0692 24.4234 31.3922 24.4234H38.5527C38.8758 24.4234 39.1376 24.1616 39.1376 23.8385C39.1376 23.5155 38.8758 23.2537 38.5527 23.2537Z"/><path d="M31.3922 14.0028H33.0657C33.3888 14.0028 33.6506 13.741 33.6506 13.4179C33.6506 13.0948 33.3888 12.833 33.0657 12.833H31.3922C31.0692 12.833 30.8074 13.0948 30.8074 13.4179C30.8074 13.741 31.0692 14.0028 31.3922 14.0028Z"/></svg>