<svg xmlns="http://www.w3.org/2000/svg" viewBox="0 0 40 40"><path d="M5.09932 20.2067L6.35164 27.8791C6.45375 28.5047 6.98794 28.9587 7.62182 28.9587H8.228C8.93763 28.9587 9.51496 28.3814 9.51496 27.6718V19.5979C9.86169 19.104 10.066 18.5033 10.066 17.8554C10.066 17.8267 10.0646 17.7983 10.0638 17.7698L14.505 14.599L14.9047 14.9987C15.2194 15.3133 15.6377 15.4865 16.0826 15.4865H19.5905C19.9136 15.4865 20.1756 15.2246 20.1756 14.9015C20.1756 14.5784 19.9136 14.3164 19.5905 14.3164H16.0826C15.9502 14.3164 15.8257 14.2649 15.7321 14.1713L13.9542 12.3934C13.8606 12.2997 13.8091 12.1752 13.8091 12.0429V7.03166C13.8091 6.75832 14.0315 6.53601 14.3047 6.53601H25.6676C25.9409 6.53601 26.1633 6.7584 26.1633 7.03166V12.0429C26.1633 12.1753 26.1117 12.2998 26.0181 12.3935L24.2402 14.1714C24.1465 14.265 24.0221 14.3165 23.8897 14.3165H22.0837C21.7606 14.3165 21.4987 14.5785 21.4987 14.9016C21.4987 15.2247 21.7606 15.4866 22.0837 15.4866H23.8897C24.3345 15.4866 24.7528 15.3134 25.0676 14.9988L25.4997 14.5666L29.9864 17.7699C29.9856 17.7983 29.9842 17.8267 29.9842 17.8554C29.9842 18.5034 30.1885 19.1041 30.5353 19.598V27.6718C30.5353 28.3814 31.1126 28.9587 31.8222 28.9587H32.4284C33.0623 28.9587 33.5965 28.5047 33.6986 27.8791L34.9509 20.2067C35.6311 19.6486 36.0659 18.8019 36.0659 17.8554C36.0659 16.1786 34.7018 14.8146 33.0252 14.8146C33.0204 14.8146 33.0158 14.8149 33.011 14.815L27.3333 9.66523V7.03174C27.3333 6.11321 26.586 5.36599 25.6676 5.36599H23.0384V0.585048C23.0384 0.261946 22.7764 0 22.4533 0C22.1302 0 21.8683 0.261946 21.8683 0.585048V5.36583H18.104V0.585048C18.104 0.261946 17.8421 0 17.519 0C17.1959 0 16.9339 0.261946 16.9339 0.585048V5.36583H14.3047C13.3863 5.36583 12.639 6.11313 12.639 7.03158V9.73583L10.7339 11.4638C10.4946 11.6809 10.4765 12.0509 10.6936 12.2902C10.809 12.4175 10.9677 12.4822 11.1271 12.4822C11.2673 12.4822 11.4079 12.4321 11.52 12.3305L12.639 11.3155V12.0429C12.639 12.4878 12.8122 12.9061 13.1268 13.2208L13.6661 13.7601L9.76793 16.5432C9.48009 15.944 9.00128 15.4537 8.41116 15.1501L9.66691 14.0111C9.90624 13.794 9.92426 13.4241 9.70724 13.1847C9.49023 12.9454 9.12016 12.9273 8.88084 13.1444L7.03926 14.8148C7.03458 14.8148 7.0299 14.8144 7.02514 14.8144C5.3484 14.8144 3.98438 16.1785 3.98438 17.8551C3.9843 18.8018 4.41911 19.6486 5.09932 20.2067ZM32.5438 27.6907C32.5345 27.7474 32.486 27.7886 32.4284 27.7886H31.8222C31.7578 27.7886 31.7054 27.7362 31.7054 27.6718V20.5946C32.1048 20.7877 32.5524 20.8961 33.025 20.8961C33.2441 20.8961 33.4577 20.8723 33.6639 20.828L32.5438 27.6907ZM34.8958 17.8554C34.8958 18.8869 34.0566 19.726 33.0251 19.726C31.9936 19.726 31.1544 18.8868 31.1544 17.8554C31.1544 16.8239 31.9936 15.9847 33.0251 15.9847C34.0566 15.9847 34.8958 16.8238 34.8958 17.8554ZM31.639 15.1502C31.049 15.4538 30.5701 15.9441 30.2822 16.5433L26.3385 13.7277L26.8453 13.2208C27.1599 12.9061 27.3332 12.4878 27.3332 12.0429V11.2447L31.639 15.1502ZM8.22793 27.7886H7.62174C7.56417 27.7886 7.51565 27.7474 7.50637 27.6907L6.38627 20.8281C6.59236 20.8723 6.80595 20.8962 7.02514 20.8962C7.49771 20.8962 7.94539 20.7878 8.34478 20.5946V27.6719C8.34478 27.7362 8.29236 27.7886 8.22793 27.7886ZM7.02514 15.9847C8.05662 15.9847 8.89582 16.8239 8.89582 17.8554C8.89582 18.8868 8.05662 19.726 7.02514 19.726C5.99359 19.726 5.15447 18.8868 5.15447 17.8554C5.15447 16.8239 5.99359 15.9847 7.02514 15.9847Z"/><path d="M6.94735 18.4406H7.11912C7.44223 18.4406 7.70417 18.1787 7.70417 17.8556C7.70417 17.5325 7.44223 17.2705 7.11912 17.2705H6.94735C6.62425 17.2705 6.3623 17.5325 6.3623 17.8556C6.3623 18.1787 6.62425 18.4406 6.94735 18.4406Z"/><path d="M32.3457 17.8556C32.3457 18.1787 32.6076 18.4406 32.9308 18.4406H33.1025C33.4256 18.4406 33.6876 18.1787 33.6876 17.8556C33.6876 17.5325 33.4256 17.2705 33.1025 17.2705H32.9308C32.6076 17.2705 32.3457 17.5325 32.3457 17.8556Z"/><path d="M23.2361 10.4261C23.2361 8.65539 21.7954 7.21484 20.0248 7.21484C18.2541 7.21484 16.8135 8.65547 16.8135 10.4261C16.8135 12.1968 18.2541 13.6374 20.0248 13.6374C21.7954 13.6374 23.2361 12.1969 23.2361 10.4261ZM20.0248 12.4674C18.8992 12.4674 17.9836 11.5517 17.9836 10.4262C17.9836 9.30074 18.8993 8.38502 20.0248 8.38502C21.1502 8.38502 22.066 9.30074 22.066 10.4262C22.066 11.5517 21.1503 12.4674 20.0248 12.4674Z"/><path d="M20.145 9.8418H19.9474C19.6243 9.8418 19.3623 10.1037 19.3623 10.4268C19.3623 10.7499 19.6243 11.0119 19.9474 11.0119H20.145C20.4681 11.0119 20.7301 10.7499 20.7301 10.4268C20.7301 10.1037 20.4681 9.8418 20.145 9.8418Z"/><path d="M39.3591 38.8303H34.9166L33.6789 37.245C33.2874 36.7434 32.7451 36.4054 32.1399 36.2724V34.7015H32.8164C33.7909 34.7015 34.5836 33.9087 34.5836 32.9343C34.5836 31.9599 33.7908 31.1672 32.8164 31.1672H32.7369C32.2424 31.1672 31.795 31.3715 31.4739 31.6999C31.1114 31.3692 30.6295 31.1672 30.1013 31.1672C28.9772 31.1672 28.0627 32.0816 28.0627 33.2057V33.4216C28.0627 34.5457 28.9772 35.4602 30.1013 35.4602H30.9697V36.2723C30.3645 36.4054 29.8222 36.7435 29.4307 37.2449L28.193 38.8302H26.5391L24.2793 36.8948C23.2293 35.9955 21.927 35.4484 20.5597 35.3219L20.5439 34.5396H21.9222C24.9488 34.5396 27.4111 32.0773 27.4111 29.0507V24.6693C27.4111 23.9408 27.0326 23.2915 26.3988 22.9324C25.765 22.5733 25.0135 22.5825 24.3886 22.9569L22.5986 24.0296C21.9764 22.8659 21.3255 21.7521 20.8002 20.8836C20.6179 20.5823 20.2989 20.4023 19.9468 20.4023C19.5948 20.4023 19.2758 20.5823 19.0935 20.8837C18.7093 21.519 18.0057 22.7078 17.2987 24.0318L15.5051 22.957C14.8803 22.5826 14.1288 22.5733 13.4949 22.9325C12.8611 23.2916 12.4826 23.9409 12.4826 24.6694V29.0508C12.4826 32.0773 14.9449 34.5397 17.9715 34.5397H19.3735L19.3893 35.3173C18.0018 35.4341 16.6785 35.9835 15.6144 36.8949L13.3546 38.8304H11.7787L10.541 37.245C10.1495 36.7435 9.60717 36.4055 9.00199 36.2724V35.4603H9.87044C10.9945 35.4603 11.909 34.5459 11.909 33.4218V33.2059C11.909 32.0818 10.9945 31.1673 9.87044 31.1673C9.34218 31.1673 8.86025 31.3693 8.49776 31.7001C8.17668 31.3717 7.72932 31.1673 7.23483 31.1673H7.15527C6.18081 31.1673 5.38811 31.9601 5.38811 32.9345C5.38811 33.9089 6.18089 34.7016 7.15527 34.7016H7.83182V36.2725C7.22656 36.4056 6.68426 36.7437 6.29283 37.2451L5.0551 38.8304H0.640713C0.31761 38.8304 0.0556641 39.0924 0.0556641 39.4155C0.0556641 39.7386 0.31761 40.0005 0.640713 40.0005H39.3591C39.6822 40.0005 39.9441 39.7386 39.9441 39.4155C39.9441 39.0924 39.6822 38.8303 39.3591 38.8303ZM32.1399 32.9343C32.1399 32.6051 32.4078 32.3373 32.7369 32.3373H32.8165C33.1458 32.3373 33.4136 32.6051 33.4136 32.9343C33.4136 33.2635 33.1457 33.5314 32.8165 33.5314H32.14V32.9343H32.1399ZM29.2328 33.4216V33.2057C29.2328 32.7268 29.6224 32.3373 30.1013 32.3373C30.5801 32.3373 30.9697 32.7268 30.9697 33.2057V34.2901H30.1013C29.6224 34.2901 29.2328 33.9005 29.2328 33.4216ZM30.353 37.965C30.6439 37.5923 31.082 37.3785 31.5548 37.3785C32.0276 37.3785 32.4656 37.5922 32.7565 37.965L33.4321 38.8303H29.6775L30.353 37.965ZM24.9901 23.9606C25.2487 23.8057 25.5597 23.8019 25.8221 23.9505C26.0844 24.0991 26.241 24.3678 26.241 24.6693V29.0507C26.241 30.9282 25.0363 32.529 23.3596 33.1226C24.2324 32.2489 24.7729 31.0432 24.7729 29.7136C24.7729 28.6488 24.0433 26.8683 23.1389 25.0699L24.9901 23.9606ZM13.6528 29.0508V24.6694C13.6528 24.3679 13.8095 24.0991 14.0718 23.9505C14.334 23.8019 14.6451 23.8058 14.9037 23.9607L16.7585 25.0721C16.4041 25.7756 16.0702 26.4864 15.8003 27.1473C15.6781 27.4464 15.8215 27.788 16.1206 27.9102C16.4197 28.0324 16.7612 27.8889 16.8835 27.5898C17.7205 25.5405 19.2094 22.9666 19.947 21.7349C21.7417 24.7294 23.6029 28.3256 23.6029 29.7137C23.6029 31.7296 21.9628 33.3697 19.9469 33.3697C17.9626 33.3697 16.3233 31.7555 16.2926 29.7713C16.2876 29.4482 16.0192 29.1923 15.6986 29.1954C15.3755 29.2004 15.1177 29.4664 15.1227 29.7894C15.1422 31.0492 15.6428 32.2308 16.5321 33.1221C14.8565 32.5277 13.6528 30.9275 13.6528 29.0508ZM16.3756 37.7836C17.3697 36.9321 18.6381 36.4633 19.9469 36.4633C21.2558 36.4633 22.5241 36.9322 23.5182 37.7836L24.7403 38.8303H15.1535L16.3756 37.7836ZM9.87059 32.3373C10.3495 32.3373 10.739 32.7268 10.739 33.2057V33.4216C10.739 33.9005 10.3495 34.2901 9.87059 34.2901H9.00215V33.2057C9.00207 32.7268 9.39163 32.3373 9.87059 32.3373ZM7.15542 33.5314C6.82616 33.5314 6.55836 33.2635 6.55836 32.9343C6.55836 32.6051 6.82624 32.3373 7.15542 32.3373H7.23499C7.56418 32.3373 7.83205 32.6051 7.83205 32.9343V33.5314H7.15542ZM7.21525 37.965C7.50622 37.5923 7.94422 37.3785 8.41702 37.3785C8.88982 37.3785 9.32783 37.5922 9.61879 37.965L10.2943 38.8303H6.53972L7.21525 37.965Z"/></svg>