<svg xmlns="http://www.w3.org/2000/svg" viewBox="0 0 38 34"><path d="M19 1.88568C18.6438 1.88568 18.3028 2.03774 18.0642 2.3028C17.2214 3.23967 15.5362 5.16203 13.7187 7.51018C13.5308 7.75286 13.5752 8.10196 13.818 8.28981C14.0608 8.47765 14.4099 8.43319 14.5976 8.19044C16.1139 6.23147 17.5368 4.57262 18.4441 3.54668V31.9716C12.6094 31.6811 7.95186 26.843 7.95186 20.9376C7.95186 18.5483 9.76196 14.7909 13.1864 10.0715C13.3667 9.82305 13.3114 9.47559 13.063 9.2953C12.8147 9.11501 12.4671 9.17021 12.2868 9.41875C8.67273 14.3993 6.84033 18.2748 6.84033 20.9376C6.84033 27.6423 12.2951 33.097 18.9999 33.097C23.4999 33.097 27.6128 30.6283 29.7337 26.6542C29.8781 26.3833 29.7757 26.0467 29.505 25.9022C29.2341 25.7576 28.8976 25.8601 28.753 26.1308C26.9136 29.5777 23.4248 31.7768 19.5557 31.97V29.5464L28.373 20.7292C28.59 20.5121 28.59 20.1602 28.373 19.9433C28.1559 19.7262 27.804 19.7262 27.587 19.9433L19.5557 27.9746V23.9882L26.7347 16.8093C26.9517 16.5922 26.9517 16.2403 26.7347 16.0233C26.5175 15.8063 26.1657 15.8063 25.9487 16.0233L19.5558 22.4162V18.4298L25.0745 12.9111C25.2915 12.6941 25.2915 12.3422 25.0745 12.1252C24.8574 11.9081 24.5055 11.9081 24.2885 12.1252L19.5559 16.8578V12.8714L22.1856 10.2417C22.4027 10.0246 22.4027 9.6727 22.1856 9.45573C21.9685 9.23868 21.6167 9.23868 21.3996 9.45573L19.5559 11.2995V7.92078L20.6161 6.86053C20.8332 6.64348 20.8332 6.29157 20.6161 6.0746C20.399 5.85755 20.0472 5.85755 19.8301 6.0746L19.556 6.34878V3.54698C20.8377 4.99671 23.2631 7.83993 25.4556 10.9716C28.4601 15.2628 30.0482 18.7091 30.0482 20.9376C30.0482 21.9336 29.915 22.9224 29.6523 23.8766C29.5709 24.1726 29.7447 24.4784 30.0407 24.56C30.09 24.5736 30.1397 24.58 30.1884 24.58C30.4324 24.58 30.6562 24.4182 30.724 24.1717C31.0131 23.1214 31.1597 22.0334 31.1597 20.9377C31.1597 15.2232 22.5689 5.22961 19.9359 2.3028C19.6972 2.03774 19.3561 1.88568 19 1.88568Z"/><path d="M13.2248 16.4679C12.0799 16.0958 10.7792 17.046 10.2637 18.6314C10.0309 19.3476 9.99798 20.0893 10.171 20.72C10.364 21.4231 10.8068 21.9344 11.3861 22.1227C11.5486 22.1755 11.7173 22.2015 11.8885 22.2015C12.328 22.2015 12.7841 22.0304 13.1939 21.7028C13.7048 21.2945 14.1143 20.6752 14.3471 19.9591C14.58 19.2429 14.6129 18.5012 14.4399 17.8706C14.2471 17.1676 13.8042 16.6562 13.2248 16.4679ZM13.2901 19.6154C13.1261 20.12 12.8381 20.5644 12.5 20.8346C12.3401 20.9625 12.0271 21.1623 11.7298 21.0657C11.4323 20.969 11.2971 20.6234 11.2429 20.426C11.1284 20.0085 11.1568 19.4797 11.3209 18.9752C11.6233 18.0451 12.2563 17.5005 12.7202 17.5005C12.7767 17.5005 12.8306 17.5086 12.8811 17.525C13.1787 17.6218 13.314 17.9674 13.3681 18.1647C13.4826 18.5822 13.4542 19.111 13.2901 19.6154Z"/><path d="M16.0208 13.7464C16.0208 12.7628 15.2205 11.9625 14.2369 11.9625C13.2534 11.9625 12.4531 12.7628 12.4531 13.7464C12.4531 14.73 13.2534 15.5302 14.2369 15.5302C15.2205 15.5302 16.0208 14.73 16.0208 13.7464ZM14.2369 14.4186C13.8662 14.4186 13.5647 14.117 13.5647 13.7463C13.5647 13.3756 13.8662 13.074 14.2369 13.074C14.6076 13.074 14.9092 13.3756 14.9092 13.7463C14.9092 14.117 14.6076 14.4186 14.2369 14.4186Z"/><path d="M36.0429 0.484131C35.1567 0.484131 34.4066 1.07635 34.1664 1.8857H28.947C28.7584 1.8857 28.5827 1.98129 28.4803 2.13957L25.8753 6.16569C25.7086 6.42341 25.7823 6.76747 26.0401 6.9342C26.1334 6.99459 26.238 7.02342 26.3414 7.02342C26.5237 7.02342 26.7022 6.9339 26.8086 6.76947L29.2494 2.99723H34.1665C34.4066 3.80657 35.1568 4.3988 36.043 4.3988C37.1222 4.3988 38.0003 3.52076 38.0003 2.44146C38.0003 1.36217 37.1221 0.484131 36.0429 0.484131ZM36.0429 3.28734C35.5765 3.28734 35.1971 2.90794 35.1971 2.44154C35.1971 1.97514 35.5765 1.59574 36.0429 1.59574C36.5093 1.59574 36.8887 1.97514 36.8887 2.44154C36.8887 2.90794 36.5093 3.28734 36.0429 3.28734Z"/><path d="M8.45549 28.932C8.19784 28.7654 7.85378 28.839 7.68698 29.0967L6.4537 31.0028H3.83382C3.59365 30.1935 2.84352 29.6012 1.95733 29.6012C0.87811 29.6012 0 30.4793 0 31.5586C0 32.6379 0.87811 33.5159 1.95733 33.5159C2.84352 33.5159 3.59365 32.9237 3.83382 32.1143H6.75611C6.94463 32.1143 7.12032 32.0187 7.22273 31.8605L8.62022 29.7005C8.78695 29.4429 8.71322 29.0987 8.45549 28.932ZM1.95733 32.4044C1.49093 32.4044 1.11153 32.025 1.11153 31.5586C1.11153 31.0922 1.49093 30.7128 1.95733 30.7128C2.42373 30.7128 2.80313 31.0922 2.80313 31.5586C2.80313 32.025 2.42373 32.4044 1.95733 32.4044Z"/></svg>