<svg xmlns="http://www.w3.org/2000/svg" viewBox="0 0 40 40"><path d="M36.5093 6.18304H32.48C32.1734 6.18304 31.9248 6.4316 31.9248 6.73834C31.9248 7.04509 32.1734 7.29364 32.48 7.29364H36.5093C37.2702 7.29364 37.8893 7.91269 37.8893 8.67367V27.9922H33.0761C32.7695 27.9922 32.5208 28.2408 32.5208 28.5475C32.5208 28.8543 32.7695 29.1028 33.0761 29.1028H37.8893V29.5249C37.8893 30.2858 37.2703 30.9049 36.5093 30.9049H18.9439C18.6372 30.9049 18.3886 31.1534 18.3886 31.4602C18.3886 31.7669 18.6372 32.0155 18.9439 32.0155H23.9812V35.3922C23.9812 35.5613 24.0583 35.7212 24.1905 35.8265L26.6532 37.7882H13.4208L15.7316 35.9475H21.3707C21.6774 35.9475 21.926 35.699 21.926 35.3922C21.926 35.0855 21.6774 34.8369 21.3707 34.8369H16.0927V32.0154H16.5773C16.884 32.0154 17.1326 31.7669 17.1326 31.4601C17.1326 31.1534 16.884 30.9048 16.5773 30.9048H3.49063C2.72965 30.9048 2.1106 30.2858 2.1106 29.5249V29.1028H30.7096C31.0163 29.1028 31.2649 28.8543 31.2649 28.5475C31.2649 28.2408 31.0163 27.9922 30.7096 27.9922H2.1106V8.67367C2.1106 7.91276 2.72965 7.29364 3.49063 7.29364H7.64959C7.95627 7.29364 8.20489 7.04509 8.20489 6.73834C8.20489 6.4316 7.95627 6.18304 7.64959 6.18304H3.49063C2.11726 6.18304 1 7.30031 1 8.67367V29.5249C1 30.8982 2.11726 32.0154 3.49063 32.0154H14.9822V35.1246L12.5782 37.0395C12.2264 37.3198 12.0949 37.7752 12.2434 38.1998C12.3918 38.6244 12.7784 38.8987 13.2282 38.8987H26.8458C27.2956 38.8987 27.6822 38.6244 27.8306 38.1998C27.9791 37.7752 27.8477 37.3198 27.4958 37.0395L25.0918 35.1246V32.0154H36.5094C37.8827 32.0154 39 30.8981 39 29.5248V8.67367C38.9999 7.30031 37.8826 6.18304 36.5093 6.18304Z"/><path d="M9.90932 4.45682H10.6933V6.9276L5.93538 9.62532C5.69986 9.75889 5.55259 10.01 5.55104 10.2807C5.54948 10.5515 5.69386 10.8042 5.92783 10.9405L19.683 18.9494C19.8007 19.018 19.9327 19.0523 20.0647 19.0523C20.1966 19.0523 20.3286 19.018 20.4463 18.9495L30.1771 13.2837C30.4422 13.1294 30.5319 12.7894 30.3776 12.5244C30.2233 12.2593 29.8834 12.1695 29.6184 12.3239L27.9168 13.3147L21.1693 9.48879L26.4355 6.50284L33.1131 10.2891L31.7903 11.0592C31.5253 11.2135 31.4355 11.5535 31.5898 11.8185C31.7441 12.0836 32.084 12.1733 32.3491 12.019L34.2017 10.9404C34.4357 10.8042 34.58 10.5513 34.5784 10.2806C34.5769 10.01 34.4295 9.75889 34.1941 9.62532L20.4386 1.82589C20.208 1.69521 19.9214 1.69528 19.6906 1.82596L11.8039 6.29775V4.67894H12.5879C13.4988 4.67894 14.24 3.9378 14.24 3.02689V2.97543C14.24 2.06452 13.4989 1.32338 12.5879 1.32338H12.3453C11.9818 1.32338 11.6456 1.44162 11.3725 1.6413C11.0701 1.30968 10.6349 1.10126 10.1519 1.10126H9.90925C8.99833 1.10126 8.25719 1.8424 8.25719 2.75331V2.80477C8.25734 3.71568 8.99841 4.45682 9.90932 4.45682ZM26.8059 13.9615L20.0648 17.8865L13.3026 13.9492L20.0435 10.1271L26.8059 13.9615ZM20.0647 2.89058L25.3095 5.86446L20.0434 8.85042L14.7985 5.87653L20.0647 2.89058ZM13.6728 6.5149L18.9175 9.48872L12.1916 13.3024L7.01636 10.2892L10.6933 8.20427V9.73971C10.6933 10.0465 10.942 10.295 11.2486 10.295C11.5553 10.295 11.8039 10.0465 11.8039 9.73971V7.57456L13.6728 6.5149ZM12.3454 2.43397H12.588C12.8865 2.43397 13.1295 2.67683 13.1295 2.97543V3.02689C13.1295 3.32542 12.8866 3.56834 12.588 3.56834H11.8039V2.97543C11.8039 2.67683 12.0469 2.43397 12.3454 2.43397ZM9.36794 2.75331C9.36794 2.45478 9.61079 2.21186 9.90939 2.21186H10.152C10.4506 2.21186 10.6935 2.45471 10.6935 2.75331V3.34622H9.90947C9.61094 3.34622 9.36801 3.10337 9.36801 2.80477V2.75331H9.36794Z"/><path d="M19.5095 14.6428V15.7191C19.5095 16.0259 19.7581 16.2744 20.0648 16.2744C20.3714 16.2744 20.6201 16.0259 20.6201 15.7191V14.6428C21.2722 14.4131 21.7411 13.7911 21.7411 13.0614C21.7411 12.1371 20.9891 11.3851 20.0648 11.3851C19.1405 11.3851 18.3884 12.137 18.3884 13.0614C18.3885 13.7911 18.8573 14.4131 19.5095 14.6428ZM20.0648 12.4957C20.3767 12.4957 20.6305 12.7495 20.6305 13.0614C20.6305 13.3734 20.3767 13.6272 20.0648 13.6272C19.7528 13.6272 19.499 13.3734 19.499 13.0614C19.4991 12.7494 19.7528 12.4957 20.0648 12.4957Z"/><path d="M5.23132 23.2072H34.8999C35.2066 23.2072 35.4552 22.9586 35.4552 22.6519C35.4552 22.3451 35.2066 22.0966 34.8999 22.0966H5.23132C4.92465 22.0966 4.67603 22.3451 4.67603 22.6519C4.67603 22.9586 4.92465 23.2072 5.23132 23.2072Z"/><path d="M5.23132 19.6545H12.7392C13.0459 19.6545 13.2945 19.4059 13.2945 19.0992C13.2945 18.7924 13.0459 18.5439 12.7392 18.5439H5.23132C4.92465 18.5439 4.67603 18.7924 4.67603 19.0992C4.67603 19.4059 4.92465 19.6545 5.23132 19.6545Z"/><path d="M34.9002 18.5439H27.3348C27.0282 18.5439 26.7795 18.7924 26.7795 19.0992C26.7795 19.4059 27.0282 19.6545 27.3348 19.6545H34.9002C35.2069 19.6545 35.4555 19.4059 35.4555 19.0992C35.4555 18.7924 35.2069 18.5439 34.9002 18.5439Z"/><path d="M5.23132 16.1019H10.8028C11.1095 16.1019 11.3581 15.8534 11.3581 15.5466C11.3581 15.2399 11.1095 14.9913 10.8028 14.9913H5.23132C4.92465 14.9913 4.67603 15.2399 4.67603 15.5466C4.67603 15.8534 4.92465 16.1019 5.23132 16.1019Z"/><path d="M34.8999 14.9913H29.2709C28.9642 14.9913 28.7156 15.2399 28.7156 15.5466C28.7156 15.8534 28.9642 16.1019 29.2709 16.1019H34.8999C35.2066 16.1019 35.4552 15.8534 35.4552 15.5466C35.4552 15.2399 35.2066 14.9913 34.8999 14.9913Z"/></svg>