<svg xmlns="http://www.w3.org/2000/svg" viewBox="0 0 40 40"><path d="M36.1515 15.9417H34.2651C33.9088 14.4677 33.3286 13.0683 32.5353 11.7698L33.8705 10.4348C34.5823 9.72285 34.5823 8.56455 33.8705 7.85264L31.5533 5.53556C31.2084 5.19064 30.75 5.00075 30.2622 5.00075C29.7745 5.00075 29.316 5.19064 28.9712 5.53556L27.636 6.87072C26.6606 6.27528 25.6202 5.79842 24.536 5.44619L21.3974 0.715918C21.1008 0.26898 20.6034 0.00133508 20.067 0C20.0656 0 20.0644 0 20.063 0C19.5281 0 19.0312 0.265053 18.7331 0.7094L15.5812 5.40952C14.4533 5.76528 13.3735 6.25439 12.3638 6.87065L11.0286 5.53549C10.6837 5.19056 10.2253 5.00067 9.73751 5.00067C9.24973 5.00067 8.79125 5.19056 8.4464 5.53549L6.12949 7.85256C5.78457 8.1974 5.59459 8.65596 5.59459 9.14366C5.59459 9.63136 5.78457 10.0899 6.12941 10.4347L7.46449 11.7698C6.67114 13.0681 6.09101 14.4675 5.7347 15.9416H3.84838C2.84157 15.9416 2.02246 16.7607 2.02246 17.7675V21.0444C2.02246 22.0512 2.84157 22.8703 3.84838 22.8703H5.7347C6.09101 24.3444 6.67122 25.7438 7.46449 27.0422L6.12949 28.3772C5.78449 28.7222 5.59459 29.1807 5.59459 29.6684C5.59459 30.156 5.78449 30.6146 6.12941 30.9595L8.44648 33.2765C9.15847 33.9884 10.3167 33.9884 11.0288 33.2765L12.3638 31.9414C13.6622 32.7347 15.0616 33.3149 16.5356 33.6712V35.5576C16.5356 36.5644 17.3547 37.3835 18.3615 37.3835H19.4109V39.411C19.4109 39.7363 19.6745 40 19.9999 40C20.3253 40 20.5889 39.7363 20.5889 39.411V37.3835H21.6383C22.6451 37.3835 23.4642 36.5644 23.4642 35.5576V33.6712C24.9382 33.3149 26.3378 32.7346 27.636 31.9414L28.9711 33.2765C29.683 33.9884 30.8412 33.9885 31.5533 33.2765L33.8705 30.9595C34.5823 30.2475 34.5823 29.0892 33.8705 28.3772L32.5353 27.0422C33.3286 25.7438 33.9088 24.3444 34.2651 22.8703H36.1515C37.1582 22.8703 37.9773 22.0512 37.9773 21.0444V17.7676C37.9773 16.7608 37.1582 15.9417 36.1515 15.9417ZM9.29033 19.406C9.29033 17.2691 9.92222 15.2179 11.0768 13.4822C10.7896 14.667 10.6794 15.8967 10.755 17.1444C10.9156 19.794 11.9438 22.3644 13.6503 24.3821C13.8603 24.6305 14.2319 24.6616 14.4804 24.4514C14.7288 24.2413 14.7599 23.8697 14.5498 23.6213C13.4663 22.3402 12.6856 20.8124 12.2659 19.1862L19.4109 25.3201V27.7626L16.2816 25.2755C16.0269 25.0732 15.6564 25.1153 15.454 25.3701C15.2516 25.6248 15.294 25.9952 15.5486 26.1977L19.4109 29.2674V30.0992C13.7785 29.7924 9.29033 25.1137 9.29033 19.406ZM17.4893 4.67931L19.4109 6.06221V10.5053L15.7119 7.32968L17.4893 4.67931ZM24.3622 7.31476L20.5889 10.5541V6.10101L22.5852 4.63682L24.3622 7.31476ZM28.0848 17.3812L20.5888 23.8164V18.7378L27.5383 12.7717C28.0393 14.2449 28.2282 15.8125 28.0848 17.3812ZM15.0511 8.31497L19.4109 12.0578V17.1363L17.0421 15.1026C16.7951 14.8906 16.4233 14.9191 16.2115 15.1658C15.9996 15.4127 16.0279 15.7844 16.2747 15.9964L19.411 18.6889V23.7674L11.953 17.3648C11.9446 17.2676 11.9369 17.1704 11.931 17.073C11.8411 15.5912 12.0405 14.1373 12.513 12.7669L14.3647 14.3565C14.4758 14.4519 14.6123 14.4987 14.7481 14.4987C14.9139 14.4987 15.0788 14.429 15.1952 14.2933C15.4071 14.0465 15.3789 13.6746 15.132 13.4627L12.9829 11.6177C13.2196 11.1201 13.4943 10.6364 13.8069 10.1703L15.0511 8.31497ZM20.5889 25.3689L27.7643 19.2088C27.1541 21.5405 25.8097 23.6131 23.9041 25.1277L20.5889 27.7626V25.3689ZM20.5889 17.1852V12.1067L25.0185 8.30382L26.2653 10.1829C26.5714 10.6443 26.8405 11.1244 27.0728 11.6188L20.5889 17.1852ZM21.9332 3.65412L20.5889 4.64012V1.62801L21.9332 3.65412ZM19.4109 1.81391V4.61082L18.1458 3.70038L19.4109 1.81391ZM36.7993 21.0444C36.7993 21.4017 36.5087 21.6923 36.1515 21.6923H33.7938C33.5145 21.6923 33.2737 21.8884 33.217 22.1617C32.8733 23.8194 32.226 25.3807 31.293 26.8021C31.1399 27.0355 31.1715 27.3444 31.369 27.5417L33.0374 29.2102C33.2901 29.4628 33.2901 29.8739 33.0375 30.1264L30.7203 32.4435C30.5979 32.5659 30.4353 32.6333 30.2622 32.6333C30.0892 32.6333 29.9265 32.5659 29.8042 32.4435L28.1357 30.7751C27.9384 30.5776 27.6296 30.5459 27.396 30.6991C25.9746 31.6319 24.4134 32.2793 22.7556 32.6231C22.4823 32.6798 22.2862 32.9207 22.2862 33.1999V35.5576C22.2862 35.9148 21.9956 36.2055 21.6383 36.2055H18.3614C18.0042 36.2055 17.7135 35.9148 17.7135 35.5576V33.1999C17.7135 32.9207 17.5175 32.6798 17.2441 32.6231C15.5864 32.2794 14.0252 31.632 12.6037 30.6991C12.3701 30.546 12.0614 30.5778 11.864 30.7751L10.1956 32.4435C10.0732 32.5659 9.9106 32.6333 9.73751 32.6333C9.56442 32.6333 9.40177 32.5659 9.27942 32.4435L6.96226 30.1264C6.83991 30.004 6.77253 29.8414 6.77253 29.6683C6.77253 29.4953 6.83991 29.3325 6.96234 29.2102L8.63072 27.5417C8.82816 27.3443 8.85981 27.0354 8.70667 26.8021C7.77368 25.3806 7.1264 23.8194 6.78266 22.1617C6.72596 21.8884 6.48517 21.6923 6.2059 21.6923H3.84838C3.49113 21.6923 3.20047 21.4017 3.20047 21.0444V17.7676C3.20047 17.4103 3.49113 17.1197 3.84838 17.1197H6.20606C6.48533 17.1197 6.72611 16.9237 6.78281 16.6503C7.12656 14.9927 7.77384 13.4314 8.70682 12.0099C8.85997 11.7765 8.82832 11.4676 8.63088 11.2703L6.96242 9.60175C6.84007 9.4794 6.77268 9.31675 6.77268 9.14366C6.77268 8.97057 6.84007 8.80793 6.9625 8.68557L9.27957 6.3685C9.40193 6.24614 9.56465 6.17868 9.73766 6.17868C9.91075 6.17868 10.0734 6.24606 10.1958 6.3685L11.8641 8.03696C12.0616 8.23439 12.3703 8.26604 12.6039 8.1129C13.1813 7.73397 13.7863 7.40279 14.4126 7.11834C14.3905 7.15478 14.3726 7.19279 14.3592 7.23198L12.8285 9.51434C12.65 9.78058 12.483 10.052 12.3268 10.328C9.64735 12.5944 8.11232 15.8959 8.11232 19.406C8.11232 25.9609 13.445 31.2937 19.9999 31.2937C22.9823 31.2937 25.8345 30.1844 28.0311 28.1702C30.2137 26.1687 31.565 23.4486 31.836 20.511C31.8659 20.1871 31.6275 19.9003 31.3036 19.8704C30.9797 19.8409 30.6929 20.0789 30.663 20.4028C30.4189 23.0485 29.2015 25.4986 27.235 27.302C25.4014 28.9834 23.0604 29.9641 20.589 30.099V29.2676L24.6372 26.0501C27.0676 24.1183 28.6731 21.3656 29.1575 18.2989C29.4074 16.7175 29.3472 15.1237 28.9956 13.5959C29.8461 14.91 30.4043 16.4017 30.6143 17.977C30.6538 18.2731 30.9067 18.4883 31.1974 18.4883C31.2233 18.4883 31.2496 18.4866 31.276 18.483C31.5984 18.4401 31.8249 18.1438 31.782 17.8214C31.3993 14.9516 29.9815 12.3297 27.7866 10.4253C27.6198 10.1214 27.4403 9.82306 27.247 9.5317L25.6701 7.1551C26.2665 7.43138 26.8438 7.75039 27.3962 8.1129C27.6297 8.2662 27.9385 8.23424 28.1359 8.03696L29.8043 6.3685C29.9267 6.24614 30.0893 6.17868 30.2624 6.17868C30.4354 6.17868 30.5981 6.24606 30.7204 6.3685L33.0376 8.68557C33.16 8.80793 33.2273 8.97065 33.2273 9.14366C33.2273 9.31667 33.16 9.4794 33.0377 9.60175L31.3691 11.2702C31.1718 11.4676 31.1401 11.7764 31.2932 12.0098C32.2262 13.4313 32.8735 14.9926 33.2172 16.6502C33.2739 16.9236 33.5147 17.1196 33.794 17.1196H36.1516C36.5089 17.1196 36.7995 17.4103 36.7995 17.7675V21.0444H36.7993Z"/></svg>