<svg xmlns="http://www.w3.org/2000/svg" viewBox="0 0 38 40"><path d="M37.1945 0H31.9144C31.5924 0 31.3316 0.260883 31.3316 0.582849C31.3316 0.904815 31.5924 1.1657 31.9144 1.1657H33.9716V2.98403H33.5468C33.0895 2.98403 32.7175 3.35604 32.7175 3.81339V4.67305L31.0032 6.3874H25.959C25.8969 6.2633 25.8157 6.1482 25.7148 6.04733L23.8796 4.21221C23.633 3.9657 23.3053 3.83002 22.9569 3.83002H18.4563C18.1343 3.83002 17.8734 4.0909 17.8734 4.41287C17.8734 4.73483 18.1343 4.99572 18.4563 4.99572H22.9569C22.9941 4.99572 23.0291 5.01033 23.0554 5.03659L24.8906 6.87171C24.9165 6.89759 24.9312 6.93349 24.9312 6.97025V11.7352C24.9312 11.812 24.8687 11.8747 24.7918 11.8747H22.0274C21.7055 11.8747 21.4446 12.1355 21.4446 12.4575C21.4446 12.7795 21.7055 13.0404 22.0274 13.0404H22.372V13.7517C22.372 14.1936 22.0124 14.5531 21.5705 14.5531H16.3516C15.9097 14.5531 15.5502 14.1935 15.5502 13.7517V13.0404H19.5436C19.8656 13.0404 20.1265 12.7795 20.1265 12.4575C20.1265 12.1355 19.8656 11.8747 19.5436 11.8747H13.2081C13.1312 11.8747 13.0686 11.812 13.0686 11.7352V6.97018C13.0686 6.93342 13.0834 6.89751 13.1094 6.87156L14.9443 5.03659C14.9708 5.01017 15.0058 4.99564 15.043 4.99564H15.9725C16.2944 4.99564 16.5553 4.73476 16.5553 4.41279C16.5553 4.09082 16.2944 3.82994 15.9725 3.82994H15.043C14.6946 3.82994 14.3669 3.96563 14.1202 4.21221L12.2853 6.04718C12.1843 6.14813 12.1031 6.26322 12.0409 6.38733H6.99667L5.2824 4.67297V3.81339C5.2824 3.35604 4.91038 2.98403 4.45312 2.98403H4.02826V1.1657H6.08548C6.40745 1.1657 6.66833 0.904815 6.66833 0.582849C6.66833 0.260883 6.4073 0 6.08541 0H0.805261C0.483295 0 0.222412 0.260883 0.222412 0.582849C0.222412 0.904815 0.483295 1.1657 0.805261 1.1657H2.86249V2.98403H2.43763C1.98036 2.98403 1.60835 3.35604 1.60835 3.81339V7.18101C1.60835 8.19392 2.43242 9.018 3.44533 9.018C4.45825 9.018 5.28232 8.19392 5.28232 7.18101V6.32174L6.34295 7.38237C6.45229 7.49163 6.60049 7.55302 6.75514 7.55302H11.9028V11.7351C11.9028 11.874 11.9251 12.0077 11.9655 12.1334L11.5816 12.4564C11.5815 12.4565 11.5814 12.4566 11.5813 12.4567L7.92892 15.5302C7.79735 15.6409 7.72135 15.8041 7.72135 15.9761V18.6508C7.72135 18.9727 7.98223 19.2336 8.3042 19.2336C8.62616 19.2336 8.88705 18.9727 8.88705 18.6508V16.2475L11.3694 14.1586V16.5981C11.3694 17.2379 11.8898 17.7584 12.5295 17.7584H12.6396V17.8421C12.6396 18.1641 12.9005 18.4249 13.2224 18.4249C13.5444 18.4249 13.8053 18.1641 13.8053 17.8421V17.7584H13.8476C14.4872 17.7584 15.0077 17.238 15.0077 16.5981V15.5094L15.1311 15.2927C15.4667 15.5591 15.8907 15.7188 16.3516 15.7188H18.4171V16.5926H17.6885C16.6553 16.5926 15.8147 17.4332 15.8147 18.4664C15.8147 19.4996 16.6553 20.3402 17.6885 20.3402H20.2337C21.2669 20.3402 22.1075 19.4996 22.1075 18.4664C22.1075 17.4332 21.2669 16.5926 20.2337 16.5926H19.5828V15.7188H21.5705C22.056 15.7188 22.5006 15.5417 22.844 15.2492L22.9921 15.5094V16.5981C22.9921 17.2379 23.5126 17.7584 24.1523 17.7584H24.1946V17.8421C24.1946 18.1641 24.4555 18.4249 24.7775 18.4249C25.0994 18.4249 25.3603 18.1641 25.3603 17.8421V17.7584H25.4703C26.11 17.7584 26.6305 17.238 26.6305 16.5981V14.1586L29.1128 16.2475V18.6509C29.1128 18.9728 29.3737 19.2337 29.6957 19.2337C30.0177 19.2337 30.2785 18.9728 30.2785 18.6509V15.9762C30.2785 15.8042 30.2025 15.641 30.071 15.5303L26.4186 12.4568C26.4185 12.4567 26.4184 12.4566 26.4183 12.4565L26.0344 12.1334C26.0748 12.0078 26.0971 11.874 26.0971 11.7352V7.55302H31.2447C31.3993 7.55302 31.5475 7.49163 31.6569 7.38237L32.7176 6.32174V7.18109C32.7176 8.194 33.5416 9.01807 34.5546 9.01807C35.5675 9.01807 36.3915 8.194 36.3915 7.18109V3.81339C36.3915 3.35604 36.0195 2.98403 35.5623 2.98403H35.1374V1.1657H37.1946C37.5166 1.1657 37.7775 0.904815 37.7775 0.582849C37.7775 0.260883 37.5164 0 37.1945 0V0ZM3.44533 7.8523C3.07519 7.8523 2.77405 7.55116 2.77405 7.18101V4.14973H4.11654V7.18101C4.11662 7.55116 3.81548 7.8523 3.44533 7.8523ZM13.842 15.3551V16.5927H12.5351V13.1777L12.7839 12.9682C12.917 13.0142 13.0593 13.0404 13.2079 13.0404H14.3844V13.7517C14.3844 13.8949 14.4002 14.0345 14.4294 14.1691L13.9184 15.0668C13.8683 15.1546 13.842 15.254 13.842 15.3551ZM20.9418 18.4664C20.9418 18.8569 20.6242 19.1746 20.2337 19.1746H17.6884C17.2979 19.1746 16.9803 18.8569 16.9803 18.4664C16.9803 18.076 17.2979 17.7584 17.6884 17.7584H20.2336C20.6241 17.7584 20.9418 18.076 20.9418 18.4664ZM25.4648 16.5927H24.1578V15.3551C24.1578 15.254 24.1315 15.1546 24.0815 15.0668L23.5122 14.0667C23.5288 13.9641 23.5378 13.8589 23.5378 13.7517V13.0404H24.792C24.9406 13.0404 25.0828 13.0142 25.216 12.9682L25.4648 13.1777V16.5927H25.4648ZM35.2257 7.18101C35.2257 7.55116 34.9245 7.8523 34.5544 7.8523C34.1842 7.8523 33.8831 7.55116 33.8831 7.18101V4.14973H35.2256V7.18101H35.2257Z"/><path d="M19.0002 10.5543C20.2089 10.5543 21.1922 9.57098 21.1922 8.36231C21.1922 7.15364 20.2089 6.17041 19.0002 6.17041C17.7916 6.17041 16.8083 7.15364 16.8083 8.36231C16.8083 9.57098 17.7917 10.5543 19.0002 10.5543ZM19.0002 7.33603C19.5661 7.33603 20.0265 7.7964 20.0265 8.36223C20.0265 8.92814 19.5661 9.38851 19.0002 9.38851C18.4344 9.38851 17.974 8.92814 17.974 8.36223C17.974 7.7964 18.4344 7.33603 19.0002 7.33603Z"/><path d="M14.6754 7.7793C14.3534 7.7793 14.0925 8.04018 14.0925 8.36215C14.0925 8.68411 14.3534 8.945 14.6754 8.945H14.9718C15.2937 8.945 15.5546 8.68411 15.5546 8.36215C15.5546 8.04018 15.2937 7.7793 14.9718 7.7793H14.6754Z"/><path d="M23.3243 8.945C23.6463 8.945 23.9072 8.68411 23.9072 8.36215C23.9072 8.04018 23.6463 7.7793 23.3243 7.7793H23.0279C22.706 7.7793 22.4451 8.04018 22.4451 8.36215C22.4451 8.68411 22.706 8.945 23.0279 8.945H23.3243Z"/><path d="M13.5246 31.8403L11.7197 31.3369C10.6166 31.0292 9.84612 30.0144 9.84612 28.8692C9.84612 28.0187 10.2664 27.2258 10.9705 26.7486L13.3666 25.1242C14.4189 24.4107 15.0472 23.2257 15.0472 21.9543V19.4444C15.0472 19.1225 14.7863 18.8616 14.4643 18.8616C14.1423 18.8616 13.8815 19.1225 13.8815 19.4444V21.9543C13.8815 22.8387 13.4445 23.663 12.7124 24.1593L10.3163 25.7837C9.29195 26.4782 8.68042 27.6317 8.68042 28.8692C8.68042 30.5356 9.80151 32.012 11.4066 32.4598L13.2115 32.9632C14.3586 33.283 15.1597 34.3382 15.1597 35.5292V39.1024C15.1597 39.4244 15.4206 39.6853 15.7425 39.6853C16.0645 39.6853 16.3254 39.4244 16.3254 39.1024V35.5292C16.3254 33.8171 15.1737 32.3002 13.5246 31.8403Z"/><path d="M1.50546 34.3853C1.18349 34.3853 0.922607 34.6461 0.922607 34.9681V39.417C0.922607 39.739 1.18349 39.9999 1.50546 39.9999C1.82742 39.9999 2.08831 39.739 2.08831 39.417V34.9681C2.08831 34.6461 1.82742 34.3853 1.50546 34.3853Z"/><path d="M12.2258 19.8492V19.224C12.2258 18.902 11.965 18.6411 11.643 18.6411C11.321 18.6411 11.0601 18.902 11.0601 19.224V19.8492C11.0601 20.2507 10.8385 20.6148 10.482 20.7994L5.70803 23.2694C2.75633 24.7965 0.922607 27.8098 0.922607 31.1332V32.4842C0.922607 32.8062 1.18349 33.0671 1.50546 33.0671C1.82742 33.0671 2.08831 32.8062 2.08831 32.4842V31.1332C2.08831 28.2472 3.68049 25.6307 6.24371 24.3047L11.0176 21.8347C11.7629 21.449 12.2258 20.6882 12.2258 19.8492Z"/><path d="M4.9301 29.3205V28.8827C4.9301 28.5607 4.66922 28.2998 4.34725 28.2998C4.02529 28.2998 3.7644 28.5607 3.7644 28.8827V29.3205C3.7644 29.6425 4.02529 29.9033 4.34725 29.9033C4.66922 29.9033 4.9301 29.6425 4.9301 29.3205Z"/><path d="M4.63241 34.7944C4.31044 34.7944 4.04956 35.0553 4.04956 35.3773V35.8152C4.04956 36.1372 4.31044 36.398 4.63241 36.398C4.95438 36.398 5.21526 36.1372 5.21526 35.8152V35.3773C5.21526 35.0553 4.95438 34.7944 4.63241 34.7944Z"/><path d="M8.36776 32.9246C8.0458 32.9246 7.78491 33.1854 7.78491 33.5074V33.9453C7.78491 34.2673 8.0458 34.5282 8.36776 34.5282C8.68973 34.5282 8.95061 34.2673 8.95061 33.9453V33.5074C8.95061 33.1854 8.68973 32.9246 8.36776 32.9246Z"/><path d="M8.16838 25.8753V25.4373C8.16838 25.1154 7.9075 24.8545 7.58553 24.8545C7.26357 24.8545 7.00269 25.1154 7.00269 25.4373V25.8753C7.00269 26.1972 7.26357 26.4581 7.58553 26.4581C7.9075 26.4581 8.16838 26.1972 8.16838 25.8753Z"/><path d="M11.2984 35.0132C10.9765 35.0132 10.7156 35.2741 10.7156 35.596V36.0339C10.7156 36.3558 10.9765 36.6167 11.2984 36.6167C11.6204 36.6167 11.8813 36.3558 11.8813 36.0339V35.596C11.8813 35.2741 11.6203 35.0132 11.2984 35.0132Z"/><path d="M27.6837 25.7837L25.2875 24.1593C24.5555 23.663 24.1185 22.8387 24.1185 21.9543V19.4444C24.1185 19.1225 23.8576 18.8616 23.5356 18.8616C23.2137 18.8616 22.9528 19.1225 22.9528 19.4444V21.9543C22.9528 23.2257 23.581 24.4107 24.6333 25.1242L27.0295 26.7486C27.7335 27.2259 28.1538 28.0187 28.1538 28.8692C28.1538 30.0144 27.3834 31.0292 26.2802 31.3369L24.4753 31.8403C22.8263 32.3002 21.6746 33.8172 21.6746 35.5292V39.1024C21.6746 39.4244 21.9354 39.6853 22.2574 39.6853C22.5794 39.6853 22.8403 39.4244 22.8403 39.1024V35.5292C22.8403 34.3383 23.6414 33.2831 24.7885 32.9632L26.5933 32.4598C28.1984 32.012 29.3195 30.5356 29.3195 28.8692C29.3195 27.6317 28.7079 26.4782 27.6837 25.7837Z"/><path d="M32.291 23.2692L27.5171 20.7993C27.1604 20.6148 26.9389 20.2506 26.9389 19.8491V19.224C26.9389 18.902 26.678 18.6411 26.356 18.6411C26.0341 18.6411 25.7732 18.902 25.7732 19.224V19.8491C25.7732 20.6882 26.2362 21.449 26.9815 21.8346L31.7554 24.3045C34.3185 25.6306 35.9108 28.2472 35.9108 31.1331V39.417C35.9108 39.739 36.1717 39.9999 36.4937 39.9999C36.8156 39.9999 37.0765 39.739 37.0765 39.417V31.1331C37.0764 27.8097 35.2427 24.7964 32.291 23.2692Z"/><path d="M33.6522 28.2998C33.3302 28.2998 33.0693 28.5607 33.0693 28.8827V29.3205C33.0693 29.6425 33.3302 29.9033 33.6522 29.9033C33.9742 29.9033 34.235 29.6425 34.235 29.3205V28.8827C34.235 28.5608 33.9742 28.2998 33.6522 28.2998Z"/><path d="M33.367 34.7944C33.0451 34.7944 32.7842 35.0553 32.7842 35.3773V35.8152C32.7842 36.1372 33.0451 36.398 33.367 36.398C33.689 36.398 33.9499 36.1372 33.9499 35.8152V35.3773C33.9499 35.0553 33.6889 34.7944 33.367 34.7944Z"/><path d="M29.6324 32.9243C29.3104 32.9243 29.0496 33.1852 29.0496 33.5072V33.9451C29.0496 34.267 29.3104 34.5279 29.6324 34.5279C29.9544 34.5279 30.2153 34.267 30.2153 33.9451V33.5072C30.2153 33.1852 29.9544 32.9243 29.6324 32.9243Z"/><path d="M30.4146 24.8545C30.0927 24.8545 29.8318 25.1154 29.8318 25.4373V25.8753C29.8318 26.1972 30.0927 26.4581 30.4146 26.4581C30.7366 26.4581 30.9975 26.1972 30.9975 25.8753V25.4373C30.9975 25.1155 30.7366 24.8545 30.4146 24.8545Z"/><path d="M26.7008 35.0132C26.3788 35.0132 26.1179 35.2741 26.1179 35.596V36.0339C26.1179 36.3558 26.3788 36.6167 26.7008 36.6167C27.0227 36.6167 27.2836 36.3558 27.2836 36.0339V35.596C27.2836 35.2741 27.0227 35.0132 26.7008 35.0132Z"/></svg>