<svg xmlns="http://www.w3.org/2000/svg" viewBox="0 0 40 40"><path d="M39.5592 26.5466L30.912 21.6436V19.632H32.3305C34.014 19.632 35.3836 18.2623 35.3836 16.5788V15.9019C35.3836 15.2892 34.8852 14.7908 34.2725 14.7908H32.7886C32.0815 14.7908 31.4302 15.0331 30.912 15.4382C30.912 15.4382 30.8985 11.4432 30.875 11.2565H33.1246C34.0089 11.2565 34.8641 11.0695 35.666 10.7006C35.9612 10.5649 36.0904 10.2155 35.9546 9.9204C35.819 9.62525 35.4698 9.49607 35.1744 9.63176C34.5278 9.92919 33.8381 10.08 33.1246 10.08H30.912V9.17826C30.912 6.46922 33.116 4.26522 35.8251 4.26522H38.0377V5.1669C38.0377 6.27541 37.6761 7.32235 36.992 8.19477C36.7915 8.45047 36.8363 8.82021 37.0919 9.02068C37.3476 9.22108 37.7174 9.17638 37.9178 8.92076C38.7659 7.83915 39.2141 6.54107 39.2141 5.1669V4.10059C39.2141 3.54277 38.7602 3.08887 38.2023 3.08887H35.825C32.5947 3.08887 29.9452 5.61735 29.7485 8.79887C28.9187 7.87711 27.7172 7.29639 26.3822 7.29639H24.502C23.9896 7.29639 23.5726 7.71327 23.5726 8.22583V9.58368C23.5726 12.0813 25.6046 14.1133 28.1023 14.1133H29.7354V20.9767L20.5717 15.7808V14.5396H21.4104C22.4912 14.5396 23.3705 13.6603 23.3705 12.5795V11.9988C23.3705 11.383 22.8695 10.8821 22.2538 10.8821H21.3553C21.0321 10.8821 20.7274 10.9611 20.4584 11.1002C20.188 10.341 19.4624 9.79593 18.6115 9.79593H17.713C17.0973 9.79593 16.5963 10.297 16.5963 10.9128V11.4934C16.5963 12.5741 17.4756 13.4535 18.5564 13.4535H19.3951V13.9514V15.8588L8.99337 21.7567V19.6704V18.9435H9.81191C11.2097 18.9435 12.3468 17.8064 12.3468 16.4087V15.7204C12.3468 15.1268 11.8638 14.6438 11.2702 14.6438H10.3519C9.37103 14.6438 8.51916 15.2041 8.09781 16.0212C7.49363 15.3765 6.63548 14.9725 5.68431 14.9725H4.79377C4.19477 14.9725 3.70746 15.4598 3.70746 16.0588V16.9494C3.70746 18.7741 5.19198 20.2586 7.01659 20.2586H7.81694V22.4237L5.52352 23.724C5.24084 23.8843 5.1417 24.2433 5.30194 24.5259C5.46218 24.8085 5.82126 24.9076 6.10385 24.7475L7.81701 23.7762V27.5935C7.81701 27.9184 8.08032 28.1818 8.40527 28.1818C8.73022 28.1818 8.99353 27.9184 8.99353 27.5935V23.109L11.1869 21.8654L18.8301 26.1991L9.13157 31.6982L1.58981 27.307L3.72361 26.0971C4.00629 25.9369 4.10543 25.5779 3.94519 25.2952C3.78487 25.0125 3.4258 24.9134 3.14328 25.0736L0.545384 26.5466C0.275257 26.6998 0.106231 26.9879 0.104506 27.2985C0.10278 27.609 0.268433 27.899 0.536835 28.0552L8.83493 32.8868C8.83548 32.8871 8.83603 32.8874 8.83658 32.8877L19.6146 39.1632C19.7496 39.2418 19.9009 39.2811 20.0523 39.2811C20.2036 39.2811 20.355 39.2418 20.49 39.1632L34.528 30.9896C34.8088 30.8262 34.9039 30.466 34.7404 30.1853C34.5769 29.9045 34.2165 29.8093 33.9361 29.9729L30.9439 31.7151L21.2154 26.1989L28.8882 21.8484L29.7355 22.3288V26.7702C29.7355 27.0951 29.9988 27.3584 30.3238 27.3584C30.6487 27.3584 30.912 27.0951 30.912 26.7702V22.9961L38.5149 27.3069L36.2892 28.6029C36.0084 28.7663 35.9133 29.1265 36.0768 29.4072C36.1861 29.5949 36.3831 29.6996 36.5856 29.6996C36.6861 29.6996 36.788 29.6739 36.8811 29.6196L39.5679 28.0552C39.8363 27.899 40.0019 27.609 40.0002 27.2985C39.9984 26.9879 39.8294 26.6998 39.5592 26.5466ZM32.7886 15.9673H34.2071V16.5788C34.2071 17.6136 33.3653 18.4555 32.3305 18.4555H30.912V17.844C30.912 16.8092 31.7539 15.9673 32.7886 15.9673ZM28.1024 12.9367C26.2535 12.9367 24.7493 11.4325 24.7493 9.58353V8.47282H26.3823C28.2312 8.47282 29.7355 9.97711 29.7355 11.826V12.9367H28.1024ZM8.99353 17.1785C8.99353 16.4295 9.60296 15.8201 10.3519 15.8201H11.1705V16.4086C11.1705 17.1576 10.561 17.7669 9.81206 17.7669H8.99353V17.1785ZM7.01667 19.0819C5.84071 19.0819 4.88405 18.1252 4.88405 16.9493V16.1489H5.68439C6.86035 16.1489 7.81701 17.1055 7.81701 18.2815V19.0819H7.01667ZM21.3555 12.0584H22.1942V12.5793C22.1942 13.0114 21.8428 13.363 21.4107 13.363H20.5719V12.8419C20.5718 12.4098 20.9234 12.0584 21.3555 12.0584ZM17.773 11.4932V10.9721H18.6117C19.0438 10.9721 19.3953 11.3237 19.3953 11.7558V12.2767H18.5565C18.1244 12.2768 17.773 11.9253 17.773 11.4932ZM29.7671 32.4003L20.0524 38.0568L10.3085 32.3833L20.0229 26.8753L29.7671 32.4003ZM20.0228 25.5228L12.3796 21.189L19.3954 17.2111V21.189C19.3954 21.514 19.6587 21.7773 19.9836 21.7773C20.3086 21.7773 20.5719 21.514 20.5719 21.189V17.1331L27.6956 21.1723L20.0228 25.5228Z"/><path d="M18.5567 33.7465H19.3955V35.0896C19.3955 35.4145 19.6588 35.6778 19.9838 35.6778C20.3087 35.6778 20.572 35.4145 20.572 35.0896V33.7465H21.317C22.3355 33.7465 23.164 32.918 23.164 31.8994V31.3799C23.164 30.8425 22.7269 30.4053 22.1895 30.4053H21.2426C20.8178 30.4053 20.4265 30.5498 20.1141 30.7916C19.7543 30.3624 19.2145 30.0889 18.6119 30.0889H17.7134C17.0976 30.0889 16.5967 30.5899 16.5967 31.2057V31.7863C16.5967 32.8672 17.476 33.7465 18.5567 33.7465ZM21.2426 31.5819H21.9875V31.8995C21.9875 32.2693 21.6867 32.5701 21.317 32.5701H20.572V32.2525C20.572 31.8827 20.8728 31.5819 21.2426 31.5819ZM17.7732 31.2654H18.6119C19.044 31.2654 19.3955 31.6168 19.3955 32.0489V32.57H18.5567C18.1247 32.57 17.7732 32.2185 17.7732 31.7864V31.2654Z"/><path d="M2.57154 5.86273C3.78704 5.86273 4.80754 5.0147 5.0743 3.87945H8.16139L14.2626 9.98076C14.3775 10.0956 14.5281 10.153 14.6786 10.153C14.8292 10.153 14.9797 10.0956 15.0947 9.98076C15.3244 9.75095 15.3244 9.37854 15.0947 9.14881L8.8211 2.87525C8.71074 2.76498 8.56117 2.70301 8.40508 2.70301H5.07438C4.80754 1.56768 3.78704 0.719727 2.57154 0.719727C1.15361 0.719727 0 1.87326 0 3.29119C0 4.70912 1.15361 5.86273 2.57154 5.86273ZM2.57154 1.89624C3.34075 1.89624 3.96649 2.52206 3.96649 3.29119C3.96649 4.06047 3.34067 4.68622 2.57154 4.68622C1.80234 4.68622 1.17651 4.06047 1.17651 3.29119C1.17651 2.52199 1.80234 1.89624 2.57154 1.89624Z"/><path d="M8.4052 7.12709H5.19763C4.87268 7.12709 4.60938 7.39039 4.60938 7.71535C4.60938 8.0403 4.87268 8.3036 5.19763 8.3036H8.40527C8.73023 8.3036 8.99353 8.0403 8.99353 7.71535C8.99353 7.39039 8.73015 7.12709 8.4052 7.12709Z"/><path d="M8.40531 9.56836H1.71033C1.38537 9.56836 1.12207 9.83166 1.12207 10.1566C1.12207 10.4816 1.38537 10.7449 1.71033 10.7449H8.40531C8.73026 10.7449 8.99356 10.4816 8.99356 10.1566C8.99356 9.83166 8.73026 9.56836 8.40531 9.56836Z"/><path d="M8.40531 12.009H1.71033C1.38537 12.009 1.12207 12.2723 1.12207 12.5972C1.12207 12.9222 1.38537 13.1855 1.71033 13.1855H8.40531C8.73026 13.1855 8.99356 12.9222 8.99356 12.5972C8.99356 12.2723 8.73026 12.009 8.40531 12.009Z"/><path d="M1.71033 8.3036H3.07626C3.40121 8.3036 3.66451 8.0403 3.66451 7.71535C3.66451 7.39039 3.40121 7.12709 3.07626 7.12709H1.71033C1.38537 7.12709 1.12207 7.39039 1.12207 7.71535C1.12207 8.0403 1.38537 8.3036 1.71033 8.3036Z"/></svg>