<svg xmlns="http://www.w3.org/2000/svg" viewBox="0 0 38 38"><path d="M37.0693 13.2528C36.7672 13.3094 36.5681 13.6002 36.6247 13.9023C36.7913 14.7913 36.8757 15.7013 36.8757 16.6068C36.8757 24.6603 30.3237 31.2122 22.2702 31.2122C14.2167 31.2122 7.66471 24.6603 7.66471 16.6068C7.66471 8.55326 14.2167 2.00131 22.2702 2.00131C22.5366 2.00131 22.8144 2.00925 23.0959 2.02491C23.4024 2.04234 23.6655 1.80712 23.6825 1.50021C23.6996 1.1933 23.4647 0.93069 23.1578 0.913623C22.8558 0.896778 22.5572 0.888245 22.2702 0.888245C13.603 0.888245 6.55165 7.93951 6.55165 16.6068C6.55165 19.7546 7.48247 22.6888 9.08231 25.1499L6.86346 27.3688C6.64611 27.5862 6.64611 27.9385 6.86346 28.1559C6.97209 28.2645 7.11456 28.3188 7.25696 28.3188C7.39936 28.3188 7.54183 28.2645 7.65047 28.1559L9.7316 26.0748C10.2852 26.806 10.9013 27.4873 11.5716 28.1111L3.45265 36.2301C3.19383 36.489 2.84967 36.6315 2.48362 36.6315C2.11757 36.6315 1.77341 36.489 1.51451 36.2301C1.25569 35.9713 1.11307 35.6272 1.11307 35.261C1.11307 34.8949 1.25561 34.5508 1.51451 34.2919L5.95616 29.8503C6.1735 29.6329 6.1735 29.2805 5.95616 29.0632C5.73881 28.8459 5.38642 28.8459 5.16915 29.0632L0.727425 33.5048C0.258305 33.974 0 34.5976 0 35.261C0 35.9244 0.25838 36.5481 0.727425 37.0171C1.19654 37.4862 1.82023 37.7446 2.48362 37.7446C3.14701 37.7446 3.77069 37.4863 4.23974 37.0171L12.4148 28.8421C15.1126 31.0194 18.5415 32.3253 22.2702 32.3253C30.9375 32.3253 37.9888 25.274 37.9888 16.6068C37.9888 15.6327 37.8979 14.6539 37.7188 13.6973C37.6622 13.3952 37.3715 13.1966 37.0693 13.2528Z"/><path d="M9.85173 16.1995C9.84661 16.3583 9.84424 16.4877 9.84424 16.6067C9.84424 23.4585 15.4185 29.0327 22.2703 29.0327C27.9102 29.0327 32.8516 25.2279 34.2867 19.78C34.365 19.4828 34.1875 19.1784 33.8902 19.1001C33.5931 19.0222 33.2887 19.1993 33.2103 19.4966C31.9039 24.4559 27.4052 27.9197 22.2703 27.9197C16.0323 27.9197 10.9573 22.8447 10.9573 16.6068C10.9573 16.4986 10.9595 16.384 10.9642 16.2353C10.9741 15.9281 10.7331 15.6711 10.4259 15.6612C10.118 15.6505 9.86168 15.8923 9.85173 16.1995Z"/><path d="M10.721 14.422C10.9732 14.422 11.2016 14.2494 11.2621 13.9934C12.0588 10.6245 14.4194 7.75247 17.5765 6.31076C17.8561 6.18305 17.9793 5.85292 17.8516 5.57331C17.724 5.29371 17.3938 5.17053 17.1142 5.29824C13.6467 6.88154 11.0541 10.0363 10.1789 13.7372C10.1082 14.0363 10.2933 14.3362 10.5924 14.4069C10.6356 14.4171 10.6786 14.422 10.721 14.422Z"/><path d="M18.4382 7.12649C16.641 9.58555 15.8417 12.6063 16.1877 15.6322L16.7579 20.6202L15.756 21.6221C15.5387 21.8395 15.5387 22.1918 15.756 22.4092C15.8647 22.5178 16.0071 22.5721 16.1495 22.5721C16.2919 22.5721 16.4344 22.5178 16.543 22.4092L17.545 21.4072L22.5848 21.9835C23.0514 22.0368 23.5168 22.0632 23.9793 22.0632C27.1829 22.0631 30.2429 20.7989 32.5384 18.4886C32.7551 18.2706 32.7539 17.9181 32.5359 17.7016C32.3179 17.485 31.9655 17.486 31.7488 17.7041C31.5015 17.953 31.244 18.1878 30.9781 18.4096L21.2811 17.6712L24.8347 14.1176L33.8161 14.8014C33.6237 15.1946 33.4075 15.5767 33.1675 15.9465C33.0001 16.2044 33.0735 16.549 33.3313 16.7163C33.5892 16.8835 33.9337 16.8102 34.1011 16.5524C34.9289 15.2769 35.5025 13.8698 35.8059 12.3703L37.9769 1.63634C38.0535 1.25797 37.9366 0.868692 37.6643 0.595101C37.392 0.321435 37.0034 0.202634 36.6245 0.277358L25.8591 2.39968C22.8709 2.98886 20.2354 4.66751 18.4382 7.12649ZM17.2935 15.5058C17.0175 13.091 17.5449 10.6801 18.7845 8.61585L19.4904 17.8875L17.7633 19.6146L17.2935 15.5058ZM22.7113 20.8776L18.5504 20.4018L20.2438 18.7085L29.5563 19.4175C27.5186 20.6304 25.1316 21.1542 22.7113 20.8776ZM25.872 13.0803L29.4256 9.5267L35.157 9.9631L34.7148 12.1495C34.6061 12.687 34.4586 13.211 34.2744 13.7201L25.872 13.0803ZM32.469 2.23101L32.8259 4.55205L29.7096 7.66841L29.3425 2.84735L32.469 2.23101ZM36.2318 4.64903L34.5602 4.39199L36.7208 2.23145L36.2318 4.64903ZM35.3794 8.86369L30.4629 8.48933L33.5841 5.36807L36.0109 5.74125L35.3794 8.86369ZM33.802 3.57604L33.562 2.01559L35.8046 1.57348L33.802 3.57604ZM26.0744 3.49174L28.2428 3.06425L28.6723 8.70578L25.1187 12.2594L24.4846 3.93133C24.9994 3.74671 25.5304 3.59904 26.0744 3.49174ZM23.4029 4.38516L24.0814 13.2967L20.5278 16.8503L19.7932 7.20144C20.7919 6.01068 22.0216 5.05486 23.4029 4.38516Z"/></svg>