<svg xmlns="http://www.w3.org/2000/svg" viewBox="0 0 40 40"><path d="M31.073 20.7049H29.4293C29.1898 19.7292 28.8386 18.7863 28.3848 17.8925L29.3875 12.9351C29.4865 12.4458 29.3353 11.9425 28.9832 11.5887C28.6312 11.2348 28.1285 11.0811 27.6387 11.1777L22.692 12.153C21.7682 11.6741 20.7925 11.3057 19.7818 11.0574V9.41367C19.7818 8.48125 19.0232 7.72266 18.0907 7.72266H15.1596C14.7079 7.72266 14.2832 7.89859 13.9638 8.21794C13.6445 8.53729 13.4686 8.96204 13.4686 9.41367V11.0572C12.1707 11.3753 10.9413 11.884 9.80218 12.5743L8.64113 11.4132C7.98177 10.754 6.90896 10.7539 6.24968 11.4132L4.17695 13.4859C3.51766 14.1453 3.51766 15.2181 4.17695 15.8775L5.33807 17.0385C4.64784 18.1776 4.13907 19.4073 3.82104 20.705H2.17734C1.24492 20.705 0.486328 21.4635 0.486328 22.3959V25.3271C0.486328 25.7788 0.66218 26.2034 0.981612 26.5229C1.30097 26.8422 1.72563 27.0182 2.17734 27.0182L3.82096 27.0182C4.13899 28.3159 4.64768 29.5454 5.33799 30.6846L4.17687 31.8457C3.51759 32.505 3.51759 33.5778 4.17687 34.2372L6.2496 36.3099C6.90889 36.9692 7.98169 36.9692 8.64106 36.3099L9.8021 35.1488C10.9412 35.839 12.1706 36.3478 13.4685 36.6659V38.3095C13.4685 39.2419 14.2271 40.0005 15.1595 40.0005H18.0907C19.0232 40.0005 19.7818 39.2419 19.7818 38.3095V36.6659C21.0796 36.3478 22.3091 35.8391 23.4482 35.1488L24.6093 36.3099C25.2685 36.9691 26.3413 36.9691 27.0007 36.3099L29.0734 34.2372C29.7327 33.5778 29.7327 32.505 29.0734 31.8457L27.9123 30.6846C28.6026 29.5454 29.1113 28.3159 29.4294 27.0182H31.0731C31.5247 27.0182 31.9493 26.8422 32.2687 26.5229C32.5881 26.2034 32.764 25.7789 32.764 25.3271V22.3959C32.7641 21.4635 32.0055 20.7049 31.073 20.7049ZM10.5994 25.0521C10.3584 22.944 10.7927 20.8393 11.8285 19.0151L12.4523 27.2077L11.0108 28.6492L10.5994 25.0521ZM16.2484 17.7827C16.2717 18.0896 16.528 18.3229 16.8307 18.3229C16.8456 18.3229 16.8606 18.3224 16.8757 18.3213C17.1976 18.2968 17.4388 18.0159 17.4142 17.694L17.1739 14.5382C17.6235 14.3799 18.0867 14.2528 18.5608 14.1593L20.4576 13.7853L20.8409 18.8191L17.7362 21.9238L17.6039 20.1855C17.5794 19.8635 17.2983 19.6223 16.9765 19.647C16.6546 19.6714 16.4134 19.9524 16.438 20.2743L16.6465 23.0135L13.5419 26.1181L12.8856 17.4986C13.763 16.4591 14.8357 15.6193 16.0379 15.0196L16.2484 17.7827ZM26.9859 18.9113L22.7265 18.5869L25.4336 15.8799L27.5337 16.2028L26.9859 18.9113ZM27.7658 15.0555L26.459 14.8545L28.148 13.1655L27.7658 15.0555ZM25.6585 14.0014L25.4732 12.7964L27.205 12.455L25.6585 14.0014ZM24.6332 15.0267L21.9306 17.7294L21.6129 13.5575L24.3251 13.0228L24.6332 15.0267ZM22.9934 27.6347L14.3378 26.9756L17.4424 23.871L25.496 24.4841C24.8814 25.6999 24.0254 26.7699 22.9934 27.6347ZM10.7814 30.5321L15.3498 31.0544C15.4361 31.0642 15.5223 31.073 15.6084 31.0808C15.6263 31.0825 15.6441 31.0832 15.6617 31.0832C15.9608 31.0832 16.2158 30.8548 16.2433 30.5512C16.2724 30.2296 16.0352 29.9454 15.7137 29.9163C15.6365 29.9093 15.5591 29.9014 15.4821 29.8927L11.8375 29.476L13.2483 28.0652L21.464 28.6908C20.4296 29.2709 19.2835 29.6727 18.0674 29.8519C17.7479 29.899 17.5271 30.196 17.5742 30.5155C17.6213 30.8349 17.9179 31.0559 18.2378 31.0086C21.4032 30.5422 24.149 28.7354 25.8624 26.1705C25.4494 27.827 24.5941 29.3589 23.3584 30.5947C21.5599 32.3932 19.1687 33.3837 16.6252 33.3837C14.2776 33.3837 12.0601 32.5392 10.3183 30.9952L10.7814 30.5321ZM26.3654 21.9793C26.2703 22.4491 26.1409 22.9058 25.9826 23.3486L18.5322 22.7814L21.6368 19.6767L26.7523 20.0663L26.3654 21.9793ZM31.5948 25.3271C31.5948 25.4665 31.5406 25.5975 31.4421 25.6961C31.3435 25.7946 31.2126 25.8489 31.0732 25.8489C31.0732 25.8489 31.0732 25.8489 31.0731 25.8489H28.9625C28.6854 25.8489 28.4464 26.0433 28.3901 26.3148C28.0826 27.7967 27.5072 29.187 26.6801 30.4469C26.528 30.6786 26.5594 30.9851 26.7554 31.1811L28.2467 32.6725C28.4502 32.8758 28.4502 33.2069 28.2467 33.4103L26.174 35.483C25.9705 35.6866 25.6395 35.6866 25.4361 35.483L23.9448 33.9918C23.7489 33.7958 23.4422 33.7643 23.2106 33.9164C21.9508 34.7435 20.5605 35.3188 19.0785 35.6264C18.8072 35.6827 18.6127 35.9217 18.6127 36.1988V38.3095C18.6127 38.5972 18.3786 38.8312 18.0909 38.8312H15.1596C14.8719 38.8312 14.6378 38.5972 14.6378 38.3095V36.1988C14.6378 35.9217 14.4432 35.6827 14.172 35.6264C12.6899 35.3189 11.2996 34.7435 10.0398 33.9164C9.80818 33.7643 9.50153 33.7958 9.30564 33.9918L7.81441 35.483C7.61097 35.6865 7.27984 35.6866 7.07648 35.483L5.00367 33.4102C4.90515 33.3117 4.85089 33.1807 4.85089 33.0414C4.85089 32.902 4.90515 32.7709 5.00367 32.6725L6.49498 31.1811C6.69094 30.9851 6.72236 30.6786 6.57028 30.4469C5.74317 29.187 5.16791 27.7968 4.8604 26.3148C4.80412 26.0436 4.56506 25.8489 4.28803 25.8489L2.17734 25.8489C2.03797 25.8489 1.90694 25.7946 1.80833 25.696C1.70981 25.5975 1.65555 25.4665 1.65555 25.3271V22.3959C1.65555 22.1083 1.88963 21.8742 2.17734 21.8742H4.28803C4.56513 21.8742 4.8042 21.6797 4.86048 21.4083C5.16799 19.9263 5.74325 18.536 6.57036 17.2762C6.72243 17.0444 6.69094 16.7379 6.49506 16.5419L5.00367 15.0506C4.90515 14.9521 4.85089 14.821 4.85089 14.6817C4.85089 14.5424 4.90515 14.4113 5.00367 14.3128L7.0764 12.2401C7.27992 12.0366 7.61089 12.0366 7.81434 12.2401L9.30557 13.7313C9.50145 13.9273 9.8081 13.9586 10.0398 13.8067C11.2996 12.9797 12.6899 12.4043 14.1719 12.0967C14.4431 12.0404 14.6377 11.8014 14.6377 11.5243V9.41367C14.6377 9.2743 14.692 9.14327 14.7905 9.04474C14.889 8.94621 15.02 8.89188 15.1594 8.89188H18.0907C18.3784 8.89188 18.6124 9.12596 18.6124 9.41367V11.5243C18.6124 11.8014 18.807 12.0404 19.0783 12.0967C19.6237 12.2099 20.1585 12.3623 20.6806 12.5495L18.3345 13.0121C18.0562 13.067 17.7814 13.1326 17.5102 13.2077C14.6583 12.9725 11.7941 13.9033 9.63568 15.7718C9.39154 15.9831 9.36496 16.3523 9.57628 16.5964C9.69188 16.73 9.85471 16.7984 10.0186 16.7984C10.1541 16.7984 10.2904 16.7515 10.4009 16.6559C11.5561 15.6559 12.9391 14.9594 14.4099 14.6067C13.295 15.334 12.3103 16.2622 11.5078 17.3603C9.85456 19.6224 9.11935 22.4011 9.43753 25.1848L9.95433 29.7054L9.49116 30.1685C6.58556 26.8888 6.27782 22.0361 8.81597 18.4099C9.0011 18.1454 8.93679 17.7809 8.67223 17.5958C8.40783 17.4108 8.04327 17.4749 7.85806 17.7395C4.88168 21.9917 5.38928 27.7459 9.06494 31.4215C11.0843 33.4409 13.7691 34.553 16.6249 34.553C19.4807 34.553 22.1656 33.4409 24.1849 31.4215C26.3781 29.2284 27.5051 26.2049 27.2886 23.1111C27.3745 22.816 27.4495 22.5161 27.5111 22.2112L27.9756 19.9145C28.1451 20.402 28.2844 20.9005 28.3897 21.4083C28.446 21.6796 28.685 21.8742 28.9621 21.8742H31.0728C31.3605 21.8742 31.5946 22.1083 31.5946 22.3959V25.3271H31.5948Z"/><path d="M22.8963 8.0675C22.9888 8.12121 23.0899 8.14686 23.1897 8.14686C23.391 8.14686 23.5871 8.04272 23.6956 7.85611L26.6688 2.74332H34.7331C34.9887 3.6504 35.823 4.31733 36.8106 4.31733C38.0008 4.31733 38.9692 3.34898 38.9692 2.1587C38.9692 0.968431 38.0009 0 36.8106 0C35.823 0 34.9888 0.667005 34.7332 1.57401H26.3324C26.1242 1.57401 25.9317 1.68478 25.8271 1.86468L22.6848 7.26814C22.5225 7.54735 22.6172 7.90522 22.8963 8.0675ZM36.8106 1.16923C37.3562 1.16923 37.8 1.61306 37.8 2.15863C37.8 2.70419 37.3562 3.14802 36.8106 3.14802C36.2651 3.14802 35.8212 2.70419 35.8212 2.15863C35.8212 1.61306 36.2651 1.16923 36.8106 1.16923Z"/><path d="M32.1793 6.45312C31.8565 6.45312 31.5947 6.7148 31.5947 7.03774C31.5947 7.36068 31.8565 7.62235 32.1793 7.62235H38.9293C39.2521 7.62235 39.5139 7.36068 39.5139 7.03774C39.5139 6.7148 39.2521 6.45312 38.9293 6.45312H32.1793Z"/><path d="M38.9293 9.43948H32.1793C31.8565 9.43948 31.5947 9.70115 31.5947 10.0241C31.5947 10.347 31.8565 10.6087 32.1793 10.6087H38.9293C39.2521 10.6087 39.5139 10.347 39.5139 10.0241C39.5139 9.70115 39.2521 9.43948 38.9293 9.43948Z"/><path d="M38.9293 12.426H32.1793C31.8565 12.426 31.5947 12.6877 31.5947 13.0106C31.5947 13.3335 31.8565 13.5952 32.1793 13.5952H38.9293C39.2521 13.5952 39.5139 13.3335 39.5139 13.0106C39.5139 12.6877 39.2521 12.426 38.9293 12.426Z"/><path d="M38.9293 15.4121H32.1793C31.8565 15.4121 31.5947 15.6738 31.5947 15.9967C31.5947 16.3197 31.8565 16.5813 32.1793 16.5813H38.9293C39.2521 16.5813 39.5139 16.3197 39.5139 15.9967C39.5139 15.6738 39.2521 15.4121 38.9293 15.4121Z"/><path d="M38.9293 18.3994H32.1793C31.8565 18.3994 31.5947 18.6611 31.5947 18.984C31.5947 19.307 31.8565 19.5686 32.1793 19.5686H38.9293C39.2521 19.5686 39.5139 19.307 39.5139 18.984C39.5139 18.6611 39.2521 18.3994 38.9293 18.3994Z"/></svg>