<svg xmlns="http://www.w3.org/2000/svg" viewBox="0 0 40 40"><path d="M33.5291 22.9192H32.6881C32.6204 22.5373 32.5337 22.1523 32.4295 21.7712C32.3442 21.4592 32.0216 21.2752 31.7104 21.3607C31.3984 21.446 31.2147 21.768 31.2999 22.0798C31.4165 22.5067 31.509 22.9383 31.5747 23.3626C31.6399 23.7842 31.9958 24.0903 32.4209 24.0903H33.5291C33.625 24.0903 33.703 24.1682 33.703 24.2642V26.0661C33.703 26.1619 33.625 26.2399 33.5291 26.2399H32.4209C31.9958 26.2399 31.6398 26.546 31.5748 26.9674C31.2917 28.7941 30.5638 30.5507 29.4696 32.0473C29.2178 32.3917 29.2534 32.8596 29.5539 33.1598L30.3379 33.944C30.4057 34.0118 30.4057 34.122 30.3379 34.1898L29.0639 35.4639C28.996 35.5318 28.8857 35.5317 28.818 35.464L28.0337 34.6796C27.7331 34.3791 27.2651 34.3439 26.9214 34.5956C25.4246 35.6899 23.668 36.4177 21.8415 36.7007C21.42 36.7661 21.114 37.122 21.114 37.5469V38.6551C21.114 38.7509 21.036 38.8289 20.9401 38.8289H19.1383C19.0423 38.8289 18.9643 38.7509 18.9643 38.6551V37.5469C18.9643 37.122 18.6584 36.7661 18.2369 36.7007C16.4103 36.4177 14.6537 35.6899 13.1572 34.5958C12.8131 34.3441 12.3452 34.3794 12.0444 34.6798L11.2602 35.4639C11.1925 35.5318 11.0821 35.5317 11.0144 35.464L9.74041 34.1898C9.67257 34.122 9.67257 34.0117 9.74033 33.944L10.5242 33.1601C10.825 32.8595 10.8605 32.3915 10.6086 32.0472C9.51439 30.5505 8.78646 28.7939 8.50353 26.9674C8.43819 26.5459 8.08226 26.2399 7.65732 26.2399H6.54903C6.45316 26.2399 6.37516 26.1619 6.37516 26.0661V24.2642C6.37516 24.1682 6.45316 24.0903 6.54911 24.0903H7.65724C8.08218 24.0903 8.43811 23.7844 8.50345 23.3629C8.78638 21.5363 9.51432 19.7797 10.6084 18.2832C10.8604 17.9388 10.8249 17.4708 10.5244 17.1704L9.74018 16.3863C9.6981 16.3442 9.68927 16.2962 9.68927 16.2633C9.68927 16.2305 9.6981 16.1825 9.74025 16.1404L11.0143 14.8663C11.0564 14.8242 11.1043 14.8154 11.1372 14.8154C11.17 14.8154 11.218 14.8242 11.2601 14.8663L12.0444 15.6506C12.3449 15.9508 12.8127 15.9862 13.1569 15.7346C14.6535 14.6405 16.4101 13.9125 18.2364 13.6295C18.6581 13.5644 18.9642 13.2085 18.9642 12.7833V11.6752C18.9642 11.5793 19.0422 11.5013 19.1381 11.5013H20.94C21.0359 11.5013 21.1139 11.5793 21.1139 11.6752V12.7833C21.1139 13.2085 21.42 13.5644 21.8413 13.6295C23.6679 13.9125 25.4245 14.6405 26.9211 15.7346C27.2651 15.9861 27.7331 15.9509 28.0338 15.6504L28.8179 14.8663C28.8856 14.7985 28.996 14.7985 29.0637 14.8663L30.3378 16.1405C30.3799 16.1825 30.3887 16.2305 30.3887 16.2633C30.3887 16.2962 30.3799 16.3441 30.3378 16.3863L29.5539 17.1702C29.2532 17.4706 29.2177 17.9386 29.4695 18.283C29.8309 18.7772 30.1573 19.3083 30.44 19.8616C30.5872 20.1495 30.9399 20.2638 31.2279 20.1167C31.5159 19.9696 31.63 19.6169 31.4829 19.3289C31.2132 18.8009 30.9069 18.2909 30.5706 17.8098L31.1659 17.2144C31.42 16.9604 31.5598 16.6226 31.5598 16.2633C31.5598 15.904 31.4199 15.5662 31.1659 15.3123L29.8918 14.0382C29.3674 13.5138 28.5142 13.5138 27.9898 14.0382L27.3946 14.6335C25.8693 13.5672 24.1131 12.8395 22.2849 12.5161V11.6752C22.2849 10.9336 21.6816 10.3303 20.94 10.3303H19.1381C18.3965 10.3303 17.7931 10.9336 17.7931 11.6752V12.5161C15.9648 12.8395 14.2088 13.5671 12.6834 14.6335L12.0882 14.0382C11.8342 13.7842 11.4965 13.6443 11.1371 13.6443C10.7778 13.6443 10.4401 13.7841 10.186 14.0382L8.91208 15.3123C8.65804 15.5662 8.51813 15.904 8.51805 16.2633C8.51805 16.6225 8.65796 16.9603 8.91192 17.2144L9.50729 17.8097C8.44092 19.3351 7.71314 21.0913 7.38993 22.9193H6.54911C5.80751 22.9193 5.2041 23.5227 5.2041 24.2643V26.0661C5.2041 26.8077 5.80743 27.4111 6.54903 27.4111H7.38993C7.71322 29.2391 8.44092 30.9952 9.50737 32.5207L8.912 33.1161C8.38768 33.6405 8.38775 34.4937 8.91208 35.018L10.1862 36.2922C10.7108 36.8167 11.5639 36.8164 12.0882 36.2922L12.6834 35.6968C14.2088 36.7632 15.9651 37.491 17.7931 37.8143V38.6552C17.7931 39.3967 18.3965 40.0001 19.1381 40.0001H20.9399C21.6815 40.0001 22.2849 39.3967 22.2849 38.6552V37.8143C24.1129 37.491 25.869 36.7633 27.3946 35.6968L27.9899 36.2922C28.5143 36.8164 29.3673 36.8164 29.8918 36.2922L31.1659 35.0181C31.6903 34.4937 31.6903 33.6404 31.1659 33.1161L30.5707 32.5207C31.6369 30.9955 32.3646 29.2394 32.688 27.4111H33.5289C34.2705 27.4111 34.8739 26.8077 34.8739 26.0661V24.2643C34.8741 23.5226 34.2707 22.9192 33.5291 22.9192Z"/><path d="M6.49431 16.239C6.79496 16.3577 7.13519 16.2098 7.2537 15.9088C7.37229 15.6079 7.2245 15.2679 6.92354 15.1494C6.53857 14.9977 6.1707 14.8107 5.83016 14.5935C5.59837 14.4456 5.29545 14.4789 5.10121 14.6731L4.26234 15.5121L2.94692 14.1967L3.78595 13.3578C3.98011 13.1635 4.01321 12.8603 3.8655 12.6287C3.46258 11.9972 3.17637 11.3064 3.01484 10.5758C2.95559 10.3075 2.71778 10.1166 2.44313 10.1166H1.257V8.25646H2.44313C2.71786 8.25646 2.95559 8.0655 3.01484 7.79725C3.1763 7.06651 3.4625 6.37581 3.8655 5.74422C4.01329 5.51258 3.98019 5.20943 3.78587 5.01519L2.947 4.1764L4.26242 2.86106L5.10129 3.70001C5.29553 3.89402 5.5986 3.92728 5.83031 3.77957C6.46191 3.37664 7.15268 3.09044 7.88334 2.92891C8.1516 2.86965 8.34256 2.63185 8.34256 2.35719V1.17106H10.2026V2.35719C10.2026 2.63193 10.3936 2.86965 10.6618 2.92891C11.3926 3.09036 12.0832 3.37656 12.7148 3.77957C12.9464 3.92743 13.2496 3.89425 13.4438 3.70001L14.2828 2.86106L15.5982 4.1764L14.759 5.01527C14.5648 5.20951 14.5317 5.51274 14.6794 5.74438C15.0824 6.37581 15.3686 7.06659 15.5301 7.79733C15.5893 8.06558 15.8271 8.25654 16.1018 8.25654H17.2879V8.7544C17.2879 9.07785 17.55 9.33993 17.8734 9.33993C18.1969 9.33993 18.459 9.07785 18.459 8.7544V8.06831C18.459 7.52642 18.0181 7.08548 17.4761 7.08548H16.5569C16.4003 6.54086 16.1835 6.01755 15.9089 5.52156L16.559 4.87147C16.9422 4.48822 16.9422 3.86466 16.559 3.48141L14.9774 1.89985C14.5942 1.51684 13.9706 1.51692 13.5876 1.89993L12.9373 2.55011C12.4413 2.27545 11.918 2.05865 11.3734 1.90204V0.982834C11.3736 0.440866 10.9328 0 10.3908 0H8.15425C7.61236 0 7.17142 0.440866 7.17142 0.982834V1.90204C6.62679 2.05865 6.10348 2.27545 5.6075 2.55011L4.9574 1.89993C4.57423 1.51692 3.9506 1.51676 3.56743 1.89993L1.98571 3.48157C1.60278 3.86466 1.60278 4.48822 1.98587 4.87147L2.63604 5.52156C2.36139 6.01762 2.14459 6.54093 1.98798 7.08548H1.06877C0.526882 7.08548 0.0859375 7.52634 0.0859375 8.06831V10.3049C0.0859375 10.8468 0.526804 11.2877 1.06877 11.2877H1.98798C2.14459 11.8323 2.36139 12.3556 2.63604 12.8516L1.98571 13.5019C1.60285 13.8849 1.60285 14.5084 1.98587 14.8918L3.56735 16.4733C3.75902 16.6649 4.01072 16.7606 4.26234 16.7606C4.51396 16.7606 4.76566 16.6649 4.95733 16.4733L5.60789 15.8226C5.89215 15.9792 6.18889 16.1187 6.49431 16.239Z"/><path d="M11.8995 12.4509C12.1354 12.6721 12.5059 12.6601 12.7272 12.4242C13.5533 11.543 14.0083 10.393 14.0083 9.18629C14.0083 6.57482 11.8837 4.4502 9.27222 4.4502C6.66075 4.4502 4.53613 6.57489 4.53613 9.18636C4.53613 11.4505 6.14775 13.4056 8.36816 13.8352C8.40572 13.8426 8.44311 13.846 8.48004 13.846C8.75493 13.846 9.00015 13.6516 9.05425 13.3717C9.11569 13.0542 8.9081 12.747 8.59067 12.6856C6.91995 12.3623 5.7072 10.8907 5.7072 9.18644C5.7072 7.22062 7.3064 5.62141 9.27222 5.62141C11.238 5.62141 12.8373 7.22062 12.8373 9.18644C12.8373 10.0946 12.4948 10.9601 11.8728 11.6233C11.6517 11.8591 11.6636 12.2297 11.8995 12.4509Z"/><path d="M38.9313 7.08548H38.012C37.8555 6.54086 37.6387 6.01755 37.364 5.52156L38.0142 4.87147C38.3974 4.48822 38.3974 3.86466 38.0142 3.48141L36.4327 1.89993C36.0494 1.51676 35.426 1.51676 35.0427 1.89993L34.3926 2.55011C33.8965 2.27545 33.3731 2.05865 32.8287 1.90204V0.982834C32.8287 0.440866 32.3878 0 31.8459 0H29.6093C29.0674 0 28.6265 0.440866 28.6265 0.982834V1.90204C28.082 2.05865 27.5586 2.27545 27.0626 2.55011L26.4125 1.89993C26.0292 1.51676 25.4058 1.51676 25.0224 1.89993L23.4409 3.48141C23.0578 3.86466 23.0578 4.48822 23.441 4.87147L24.0911 5.52156C23.8165 6.01762 23.5997 6.54093 23.4431 7.08548H22.5239C21.982 7.08548 21.541 7.52634 21.541 8.06831V8.72567C21.541 9.04912 21.8031 9.3112 22.1265 9.3112C22.45 9.3112 22.7121 9.04912 22.7121 8.72567V8.25654H23.8982C24.1729 8.25654 24.4107 8.06558 24.4699 7.79733C24.6314 7.06659 24.9176 6.37581 25.3206 5.74438C25.4684 5.51274 25.4353 5.20951 25.241 5.01527L24.402 4.1764L25.7173 2.86106L26.5562 3.70001C26.7504 3.89402 27.0534 3.92736 27.2852 3.77964C27.9168 3.37664 28.6076 3.09044 29.3383 2.92898C29.6065 2.86973 29.7975 2.63193 29.7975 2.35727V1.17106H31.6577V2.35719C31.6577 2.63193 31.8486 2.86965 32.1169 2.92891C32.8476 3.09036 33.5383 3.37656 34.1699 3.77957C34.4016 3.92736 34.7048 3.89402 34.8989 3.69993L35.7378 2.86099L37.0532 4.17632L36.2141 5.01527C36.0199 5.20951 35.9868 5.51274 36.1345 5.74438C36.5375 6.37589 36.8237 7.06659 36.9852 7.79733C37.0444 8.06558 37.2822 8.25654 37.5569 8.25654H38.7431V10.1167H37.5569C37.2821 10.1167 37.0444 10.3076 36.9852 10.5759C36.8238 11.3065 36.5376 11.9972 36.1345 12.6287C35.9867 12.8604 36.0197 13.1636 36.214 13.3578L37.0531 14.1968L35.7377 15.5121L34.8989 14.6732C34.7047 14.4791 34.4016 14.4458 34.1699 14.5936C33.8476 14.7991 33.5019 14.9775 33.1427 15.1237C32.8432 15.2456 32.6991 15.5872 32.821 15.8867C32.9429 16.1861 33.2844 16.33 33.5841 16.2084C33.8612 16.0956 34.1317 15.9664 34.3923 15.8228L35.0427 16.4733C35.2344 16.6649 35.4861 16.7606 35.7377 16.7606C35.9894 16.7606 36.2411 16.6649 36.4327 16.4733L38.0143 14.8916C38.3973 14.5084 38.3973 13.8849 38.0142 13.5017L37.364 12.8516C37.6387 12.3555 37.8555 11.8323 38.012 11.2877H38.9313C39.4732 11.2877 39.9141 10.8469 39.9141 10.3049V8.06831C39.9141 7.52634 39.4733 7.08548 38.9313 7.08548Z"/><path d="M31.4652 12.6748C31.1487 12.7414 30.9462 13.0518 31.0126 13.3683C31.0706 13.6441 31.3139 13.8335 31.585 13.8335C31.625 13.8335 31.6654 13.8294 31.7061 13.8209C33.8834 13.3632 35.4637 11.4142 35.4637 9.18668C35.4637 8.2681 35.1992 7.37614 34.6987 6.60706C34.5222 6.33592 34.1595 6.25918 33.8886 6.4357C33.6175 6.61206 33.5408 6.97477 33.7172 7.24584C34.0936 7.82426 34.2926 8.49544 34.2926 9.18668C34.2925 10.8633 33.1035 12.3304 31.4652 12.6748Z"/><path d="M32.4901 4.79109C31.9276 4.56547 31.3349 4.45117 30.7283 4.45117C28.1168 4.45117 25.9922 6.57579 25.9922 9.18726C25.9922 10.4088 26.4569 11.5689 27.3009 12.4541C27.416 12.5748 27.5702 12.6357 27.7248 12.6357C27.8699 12.6357 28.0154 12.5819 28.1288 12.474C28.3628 12.2508 28.3716 11.8802 28.1486 11.6461C27.5132 10.9796 27.1633 10.1064 27.1633 9.18726C27.1633 7.22144 28.7625 5.62223 30.7284 5.62223C31.185 5.62223 31.6311 5.70835 32.0542 5.87799C32.3545 5.9983 32.6952 5.85262 32.8157 5.55252C32.936 5.25241 32.7903 4.91148 32.4901 4.79109Z"/><path d="M15.4958 27.6615L12.7974 29.9275C12.0688 28.8193 11.5861 27.5292 11.4312 26.1288C11.3956 25.8074 11.1067 25.5751 10.7849 25.6112C10.4635 25.6468 10.2317 25.9362 10.2673 26.2575C10.8185 31.2404 15.0195 34.9979 20.0393 34.9979C25.4612 34.9979 29.8722 30.5868 29.8722 25.165C29.8722 19.7432 25.4612 15.3322 20.0393 15.3322C17.6858 15.3322 15.4088 16.1768 13.6275 17.7104C11.8654 19.2275 10.6943 21.3212 10.3301 23.6057C10.2792 23.925 10.4968 24.2252 10.8162 24.2761C11.1354 24.3273 11.4358 24.1093 11.4866 23.79C11.8073 21.7785 12.839 19.9345 14.3917 18.5978C15.9605 17.2471 17.9662 16.5032 20.0394 16.5032C24.8156 16.5032 28.7012 20.3889 28.7012 25.165C28.7012 26.9206 28.1757 28.5554 27.2745 29.9217L24.583 27.6615C23.4137 26.6796 22.0098 26.1348 20.5798 26.0251V24.4005H21.7368C23.6187 24.4005 25.1498 22.8695 25.1498 20.9874V20.0551C25.1498 19.4447 24.6532 18.9481 24.0428 18.9481H22.7888C21.4709 18.9481 20.326 19.6994 19.7575 20.7957C19.372 20.4707 18.8746 20.2742 18.332 20.2742H17.4874C16.8992 20.2742 16.4206 20.7528 16.4206 21.3411V22.1856C16.4206 23.407 17.4142 24.4005 18.6354 24.4005H19.4087V26.032C18.01 26.1575 16.6404 26.7002 15.4958 27.6615ZM26.5647 30.8549C24.9757 32.675 22.6396 33.8269 20.0393 33.8269C17.4457 33.8269 15.1007 32.6881 13.5066 30.8611L16.2488 28.5583C18.4453 26.7138 21.6335 26.7139 23.8298 28.5583L26.5647 30.8549ZM20.5468 22.3613C20.5468 21.125 21.5526 20.1193 22.7888 20.1193H23.9786V20.9875C23.9786 22.2237 22.9729 23.2295 21.7367 23.2295H20.5468V22.3613ZM17.5917 22.1857V21.4454H18.332C18.9075 21.4454 19.3757 21.9136 19.3757 22.4892V23.2295H18.6354C18.0598 23.2295 17.5917 22.7613 17.5917 22.1857Z"/></svg>