<svg xmlns="http://www.w3.org/2000/svg" viewBox="0 0 40 40"><path d="M39.5579 27.1996L33.5785 23.8093V20.9921H34.6012C35.8199 20.9921 36.8114 20.0006 36.8114 18.7819V17.7281C36.8114 17.2192 36.3974 16.8054 35.8886 16.8054H34.6091C34.0635 16.8054 33.5638 17.0045 33.1778 17.3334C32.8895 17.0103 32.4714 16.8054 32.0053 16.8054H31.0539C30.5388 16.8054 30.1199 17.2243 30.1199 17.7394V18.6907C30.1199 19.5582 30.8256 20.264 31.6931 20.264H32.3989V20.4025V23.1406L26.1645 19.6056C25.8811 19.445 25.5211 19.5444 25.3605 19.8278C25.1998 20.1111 25.2993 20.4711 25.5826 20.6318L27.6632 21.8114L19.9704 26.1733L12.3072 21.8283L14.3491 20.6705C14.6325 20.5098 14.7319 20.1499 14.5712 19.8665C14.4105 19.583 14.0504 19.4837 13.7672 19.6443L9.12366 22.2772V14.1562H9.2936C9.6194 14.1562 9.88339 13.8922 9.88339 13.5664C9.88339 13.2406 9.6194 12.9766 9.2936 12.9766H7.63462V11.651H8.4866C8.8124 11.651 9.0764 11.387 9.0764 11.0612C9.0764 10.7354 8.8124 10.4714 8.4866 10.4714H7.40059C6.87922 10.4714 6.45504 10.8957 6.45504 11.4171V13.2106C6.45504 13.732 6.87929 14.1562 7.40059 14.1562H7.94407V22.9459L0.442044 27.1996C0.171211 27.3532 0.00182209 27.6421 1.33857e-05 27.9535C-0.00171668 28.2648 0.164369 28.5555 0.433473 28.7122L19.5611 39.8492C19.6965 39.928 19.8482 39.9674 19.9999 39.9674C20.1517 39.9674 20.3035 39.928 20.4388 39.8492L33.2525 32.3884C33.5341 32.2245 33.6294 31.8634 33.4655 31.582C33.3015 31.3004 32.9403 31.205 32.659 31.369L30.92 32.3816L21.1661 26.851L28.8589 22.4892L32.3988 24.4964V27.5848C32.3988 27.9106 32.6628 28.1746 32.9886 28.1746C33.3144 28.1746 33.5784 27.9106 33.5784 27.5848V25.1653L38.5107 27.9619L34.8327 30.1034C34.5512 30.2673 34.4559 30.6284 34.6198 30.9098C34.7293 31.098 34.9269 31.203 35.13 31.203C35.2307 31.203 35.3329 31.1772 35.4262 31.1228L39.5665 28.7122C39.8356 28.5555 40.0017 28.2648 39.9999 27.9535C39.9982 27.6421 39.8288 27.3532 39.5579 27.1996ZM34.6092 17.9848H35.6318V18.7818C35.6318 19.3501 35.1695 19.8124 34.6013 19.8124H33.5786V19.0154C33.5785 18.4471 34.0409 17.9848 34.6092 17.9848ZM31.2995 18.6906V17.9848H32.0054C32.2224 17.9848 32.399 18.1613 32.399 18.3784V19.0842H31.6932C31.4761 19.0842 31.2995 18.9076 31.2995 18.6906ZM7.94415 24.302V26.0154C7.2224 26.2616 6.70165 26.9457 6.70165 27.7497C6.70165 28.7599 7.52358 29.5819 8.53394 29.5819C9.54422 29.5819 10.3662 28.7599 10.3662 27.7497C10.3662 26.9457 9.84541 26.2616 9.12374 26.0154V23.633L11.1114 22.506L18.7746 26.851L9.05068 32.3645L1.4892 27.9619L7.94415 24.302ZM8.53394 27.097C8.8938 27.097 9.18657 27.3898 9.18657 27.7497C9.18657 28.1095 8.8938 28.4023 8.53394 28.4023C8.17409 28.4023 7.88124 28.1095 7.88124 27.7497C7.88124 27.3898 8.17409 27.097 8.53394 27.097ZM29.7401 33.0687L20 38.7398L10.2306 33.0516L19.9703 27.5292L29.7401 33.0687Z"/><path d="M11.0238 14.582C11.1762 14.8697 11.5327 14.9796 11.821 14.8273C12.1089 14.6749 12.2188 14.318 12.0664 14.0301C11.3942 12.7601 11.039 11.3242 11.039 9.87784C11.039 7.85177 11.7385 5.86983 13.0084 4.29689C14.2344 2.77844 15.9406 1.6955 17.8241 1.23751V3.15607C16.4337 3.59173 15.1858 4.47186 14.3041 5.64044C13.3768 6.86926 12.8867 8.33454 12.8867 9.87784C12.8867 11.4212 13.3768 12.8865 14.3041 14.1152C15.1858 15.2837 16.4337 16.1639 17.8241 16.5997V18.5182C16.1536 18.1126 14.6459 17.2343 13.4576 15.973C13.2343 15.7359 12.861 15.7249 12.6239 15.9482C12.3867 16.1716 12.3757 16.5448 12.599 16.7819C13.9767 18.2442 15.734 19.252 17.6811 19.6965C17.7614 19.7148 17.8423 19.7239 17.9226 19.7239C18.1642 19.7239 18.4001 19.6424 18.5941 19.4875C18.8544 19.28 19.0037 18.9702 19.0037 18.6375V16.5349C19.0037 16.0575 18.6873 15.6286 18.2341 15.4917C17.0537 15.1356 15.9924 14.3944 15.2456 13.4048C14.474 12.3823 14.0663 11.1628 14.0663 9.87791C14.0663 8.59311 14.4741 7.37349 15.2456 6.3511C15.9924 5.36143 17.0538 4.62025 18.2341 4.2641C18.6873 4.12742 19.0037 3.69844 19.0037 3.22103V1.11845C19.0037 0.785883 18.8545 0.476045 18.5943 0.268516C18.3357 0.0621664 18.0029 -0.0142709 17.6811 0.0594141C15.4935 0.558694 13.5081 1.80049 12.0906 3.55595C10.6517 5.33791 9.85938 7.58314 9.85938 9.87791C9.8593 11.516 10.2619 13.1425 11.0238 14.582Z"/><path d="M21.6277 4.26421C22.4041 4.49855 23.1277 4.90001 23.7453 5.42854H17.2543C16.9285 5.42854 16.6645 5.69253 16.6645 6.01833C16.6645 6.34414 16.9285 6.60813 17.2543 6.60813H31.7361V7.93367H15.8488C15.523 7.93367 15.259 8.19766 15.259 8.52347C15.259 8.84927 15.523 9.11326 15.8488 9.11326H25.7437C25.7768 9.36679 25.7955 9.62237 25.7955 9.87803C25.7955 10.075 25.7843 10.2735 25.764 10.4718H15.3115C14.9857 10.4718 14.7217 10.7358 14.7217 11.0616C14.7217 11.3874 14.9857 11.6514 15.3115 11.6514H31.3245C31.6503 11.6514 31.9143 11.3874 31.9143 11.0616C31.9143 10.7358 31.6503 10.4718 31.3245 10.4718H29.9845C29.9961 10.2735 30.0025 10.0752 30.0025 9.87803C30.0025 9.62386 29.9921 9.36837 29.9727 9.11326H32.0589C32.5313 9.11326 32.9157 8.72887 32.9157 8.25641V6.28531C32.9157 5.81285 32.5313 5.42846 32.0589 5.42846H28.9669C27.632 2.72508 25.1221 0.73079 22.1806 0.0594471C21.8591 -0.013766 21.5262 0.0622781 21.2675 0.268627C21.0073 0.476156 20.8581 0.785916 20.8581 1.11856V3.22114C20.8581 3.69848 21.1746 4.12745 21.6277 4.26421ZM28.8229 9.87795C28.8229 10.0749 28.8157 10.2734 28.8025 10.4718H26.9487C26.9657 10.2735 26.9752 10.0752 26.9752 9.87795C26.9752 9.62268 26.961 9.36711 26.9335 9.11318H28.7887C28.8105 9.36813 28.8229 9.62386 28.8229 9.87795ZM22.0376 1.23762C24.3904 1.80964 26.4192 3.34295 27.6293 5.42846H25.3899C24.5204 4.36534 23.3427 3.5651 22.0376 3.15618V1.23762Z"/><path d="M7.40064 9.11327H8.81779C9.1436 9.11327 9.40759 8.84927 9.40759 8.52347C9.40759 8.19767 9.1436 7.93368 8.81779 7.93368H7.63459V6.60806H9.36481C9.69061 6.60806 9.9546 6.34406 9.9546 6.01826C9.9546 5.69246 9.69061 5.42847 9.36481 5.42847H7.40064C6.87926 5.42847 6.45508 5.85273 6.45508 6.37402V8.16755C6.455 8.68901 6.87926 9.11327 7.40064 9.11327Z"/><path d="M33.8383 11.6509H35.85V12.9766H28.6706C28.6689 12.9766 28.6673 12.9766 28.6657 12.9766H25.2372C25.2369 12.9766 25.2365 12.9766 25.2361 12.9766H17.1328C16.807 12.9766 16.543 13.2406 16.543 13.5664C16.543 13.8922 16.807 14.1562 17.1328 14.1562H23.9391C23.2828 14.77 22.4903 15.2311 21.6278 15.4914C21.1747 15.628 20.8582 16.057 20.8582 16.5344V18.6371C20.8582 18.9697 21.0075 19.2797 21.2678 19.4872C21.4619 19.642 21.6978 19.7235 21.9393 19.7235C22.0196 19.7235 22.1006 19.7145 22.1808 19.6961C25.196 19.008 27.7362 16.9501 29.0494 14.1562H36.1728C36.6452 14.1562 37.0296 13.7718 37.0296 13.2994V11.3283C37.0296 10.8558 36.6452 10.4714 36.1728 10.4714H33.8382C33.5124 10.4714 33.2484 10.7354 33.2484 11.0612C33.2484 11.387 33.5124 11.6509 33.8383 11.6509ZM22.0378 18.518V16.5995C23.4176 16.1673 24.6433 15.3068 25.5256 14.1563H27.7263C26.5302 16.3311 24.4641 17.9284 22.0378 18.518Z"/><path d="M19.3801 34.4782V35.3781C19.3801 35.7039 19.6441 35.9679 19.9699 35.9679C20.2957 35.9679 20.5597 35.7039 20.5597 35.3781V34.4782C21.597 34.2148 22.3666 33.2732 22.3666 32.1552C22.3666 30.8337 21.2915 29.7585 19.9699 29.7585C18.6484 29.7585 17.5732 30.8337 17.5732 32.1552C17.5733 33.2732 18.343 34.2148 19.3801 34.4782ZM19.9699 30.9381C20.641 30.9381 21.187 31.484 21.187 32.1552C21.187 32.8264 20.6411 33.3723 19.9699 33.3723C19.2987 33.3723 18.7528 32.8264 18.7528 32.1552C18.7528 31.484 19.2988 30.9381 19.9699 30.9381Z"/></svg>