<svg xmlns="http://www.w3.org/2000/svg" viewBox="0 0 40 40"><path d="M19.9849 0C17.3069 0 14.8321 0.673343 12.629 2.00125C10.6006 3.22391 8.88923 4.97844 7.68005 7.07505C6.45529 9.19862 5.78085 11.6019 5.72967 14.0251C5.67599 16.5677 6.31864 19.0714 7.58804 21.2656C7.7497 21.545 8.10713 21.6402 8.38643 21.4787C8.66572 21.3172 8.76116 20.9597 8.59958 20.6804C7.43722 18.6713 6.84879 16.3785 6.89803 14.0498C6.94508 11.8226 7.56553 9.61261 8.69236 7.65888C9.80292 5.73319 11.3729 4.12287 13.2323 3.00212C15.2507 1.78545 17.5226 1.16859 19.985 1.16859C25.3071 1.16859 29.911 4.20943 31.9999 9.10451C34.0888 13.9996 33.099 19.4275 29.4166 23.27L28.0197 24.7277C26.8622 25.9355 26.0168 27.3692 25.5235 28.9389L22.9205 27.3142C22.2029 26.8663 21.4021 26.597 20.584 26.5049V24.7411C21.4902 24.6758 22.369 24.4583 23.2036 24.0915C23.499 23.9616 23.6332 23.6169 23.5033 23.3215C23.3735 23.026 23.0289 22.8918 22.7333 23.0217C22.048 23.3229 21.3273 23.5059 20.5841 23.5687V20.2655L26.7978 16.6916C26.7989 16.7258 26.8 16.7601 26.8 16.7935C26.8 18.6857 26.0412 20.4432 24.6634 21.7421C24.4286 21.9635 24.4177 22.3333 24.6391 22.5681C24.7541 22.69 24.9089 22.7516 25.0643 22.7516C25.208 22.7516 25.3521 22.6988 25.465 22.5924C27.0795 21.0704 27.9686 19.0109 27.9686 16.7935C27.9686 13.0748 22.4562 6.65818 20.7667 4.78017C20.5713 4.56297 20.2917 4.43839 19.9997 4.43839C19.7078 4.43839 19.4283 4.56297 19.2328 4.78017C18.652 5.42586 17.4947 6.74816 16.2693 8.35053C16.0733 8.60692 16.1221 8.97363 16.3784 9.16964C16.6348 9.36573 17.0014 9.3168 17.1975 9.06049C17.2843 8.94706 17.3705 8.83558 17.4564 8.72511L19.4155 9.85186V13.7106L15.4905 11.453C15.5775 11.3205 15.6664 11.1868 15.7582 11.0513C15.9393 10.7842 15.8695 10.4209 15.6023 10.2398C15.3353 10.0588 14.9718 10.1286 14.7909 10.3957C12.9594 13.0982 12.0309 15.2507 12.0309 16.7934C12.0309 20.9909 15.2932 24.4405 19.4155 24.7408V26.4936C18.5602 26.5735 17.7204 26.8466 16.9715 27.3141L14.4333 28.8983C13.9383 27.3445 13.0977 25.925 11.9502 24.7275L10.5532 23.2698C10.3709 23.0795 10.1914 22.8815 10.0202 22.6815C9.81032 22.4364 9.44143 22.4078 9.19634 22.6177C8.95125 22.8276 8.92265 23.1965 9.13261 23.4416C9.31803 23.6581 9.51217 23.8724 9.70959 24.0783L11.1064 25.5359C12.5102 27.0007 13.4014 28.8368 13.6839 30.8458L13.7105 31.0346C13.1024 31.2208 12.6588 31.787 12.6588 32.4552V33.9055C12.6588 34.7246 13.3252 35.391 14.1444 35.391H14.2029V35.9983C14.2029 36.9943 15.0132 37.8046 16.0092 37.8046H16.4933C16.7624 39.0574 17.8775 39.9997 19.2096 39.9997H20.6824C22.0144 39.9997 23.1295 39.0574 23.3987 37.8046H23.8827C24.8788 37.8046 25.6891 36.9943 25.6891 35.9983V35.391H25.8255C26.6447 35.391 27.3111 34.7246 27.3111 33.9055V32.4552C27.3111 31.787 26.8675 31.2208 26.2594 31.0346L26.286 30.8458C26.5685 28.8368 27.4598 27.0007 28.8634 25.5359L30.2603 24.0783C34.2721 19.892 35.3505 13.9785 33.0747 8.64556C30.7989 3.31288 25.7832 0 19.9849 0V0ZM20.584 18.9175V15.0588L25.1319 12.443C25.8254 13.5999 26.3091 14.6188 26.5707 15.474L20.584 18.9175ZM24.509 11.4531L20.584 13.7107V9.85202L22.5432 8.72518C22.9974 9.30925 23.4661 9.93655 23.9191 10.5836C24.1268 10.8803 24.3231 11.17 24.509 11.4531ZM21.8077 7.80012L20.584 8.50393V6.3404C20.9327 6.74333 21.3524 7.23928 21.8077 7.80012ZM18.1917 7.80005C18.6446 7.24216 19.063 6.74746 19.4155 6.34024V8.50393L18.1917 7.80005ZM19.4155 15.0588V18.9175L13.4296 15.4746C13.6915 14.6193 14.1751 13.5995 14.8679 12.4432L19.4155 15.0588ZM13.1995 16.7936C13.1995 16.7602 13.2004 16.726 13.2017 16.6916L19.4155 20.2657V23.5685C15.9383 23.2711 13.1995 20.3465 13.1995 16.7936ZM17.5903 28.3057C19.0213 27.4125 20.8707 27.4125 22.3018 28.3057L25.2231 30.129C25.1876 30.3125 25.155 30.497 25.1289 30.6834L25.0886 30.9699H14.8814L14.8411 30.6834C14.8128 30.4824 14.7772 30.2835 14.7381 30.0857L17.5903 28.3057ZM20.6824 38.8314H19.2096C18.5275 38.8314 17.9429 38.4051 17.7084 37.8049H22.1835C21.949 38.4051 21.3646 38.8314 20.6824 38.8314ZM24.5205 35.9986C24.5205 36.3503 24.2344 36.6363 23.8827 36.6363H16.0092C15.6576 36.6363 15.3715 36.3503 15.3715 35.9986V35.3913H24.5205V35.9986ZM26.1425 33.9058C26.1425 34.0805 26.0003 34.2227 25.8255 34.2227H14.1444C13.9696 34.2227 13.8274 34.0805 13.8274 33.9058V32.4555C13.8274 32.2807 13.9696 32.1386 14.1444 32.1386H25.8255C26.0003 32.1386 26.1425 32.2807 26.1425 32.4555V33.9058Z"/><path d="M35.332 6.42125C35.4344 6.42125 35.5382 6.39437 35.6323 6.33781L36.9877 5.52377C37.2644 5.3576 37.3539 4.99868 37.1878 4.72204C37.0217 4.44539 36.6627 4.3558 36.386 4.52198L35.0306 5.33602C34.754 5.50219 34.6644 5.8611 34.8306 6.13775C34.9401 6.32021 35.1336 6.42125 35.332 6.42125Z"/><path d="M36.9877 23.918L35.6322 23.1039C35.3555 22.9378 34.9966 23.0274 34.8305 23.304C34.6644 23.5806 34.754 23.9396 35.0306 24.1057L36.386 24.9198C36.4802 24.9763 36.5839 25.0032 36.6862 25.0032C36.8847 25.0032 37.0781 24.9022 37.1877 24.7196C37.3539 24.4431 37.2643 24.0842 36.9877 23.918Z"/><path d="M37.8116 14.1365H36.3704C36.0477 14.1365 35.7861 14.3982 35.7861 14.7208C35.7861 15.0435 36.0477 15.3051 36.3704 15.3051H37.8116C38.1343 15.3051 38.3959 15.0435 38.3959 14.7208C38.3959 14.3982 38.1343 14.1365 37.8116 14.1365Z"/><path d="M4.96918 5.33595L3.61369 4.52191C3.33697 4.35573 2.97806 4.44532 2.81196 4.72197C2.64587 4.99861 2.73546 5.35753 3.01202 5.5237L4.36744 6.33774C4.46163 6.3943 4.56532 6.42118 4.66769 6.42118C4.86611 6.42118 5.05956 6.32014 5.16917 6.1376C5.33542 5.86104 5.24583 5.50212 4.96918 5.33595Z"/><path d="M4.36749 23.1039L3.01208 23.918C2.73543 24.0842 2.64584 24.4431 2.81201 24.7197C2.92163 24.9022 3.11507 25.0033 3.3135 25.0033C3.41587 25.0033 3.51964 24.9764 3.61375 24.9199L4.96916 24.1058C5.2458 23.9396 5.3354 23.5807 5.16922 23.3041C5.00313 23.0274 4.64421 22.9378 4.36749 23.1039Z"/><path d="M4.2133 14.7208C4.2133 14.3982 3.95169 14.1365 3.629 14.1365H2.18781C1.86512 14.1365 1.60352 14.3982 1.60352 14.7208C1.60352 15.0435 1.86512 15.3051 2.18781 15.3051H3.629C3.95169 15.3051 4.2133 15.0435 4.2133 14.7208Z"/>
</svg>