<svg xmlns="http://www.w3.org/2000/svg" viewBox="0 0 30 30"><path d="M21.2611 15.4447C20.9896 15.4447 20.7707 15.2251 20.7707 14.9535C20.774 11.7996 18.2272 9.22769 15.0441 9.22769C14.7734 9.22769 14.5537 9.00802 14.5537 8.7373C14.5537 8.47224 14.7653 8.24609 15.0506 8.24609C18.7346 8.24609 21.7556 11.2273 21.7523 14.9543C21.7515 15.2259 21.5319 15.4447 21.2611 15.4447Z"/><path d="M24.5682 15.4438C24.2967 15.4438 24.0778 15.2241 24.0778 14.9526C24.0811 9.97491 20.0591 5.91885 15.0441 5.91885C14.7734 5.91885 14.5537 5.69919 14.5537 5.42846C14.5537 5.16421 14.7653 4.93726 15.0498 4.93726C20.6013 4.93726 25.0627 9.44156 25.0594 14.9534C25.0586 15.2249 24.839 15.4438 24.5682 15.4438Z"/><path d="M27.6492 15.4443C27.3785 15.4443 27.1588 15.2246 27.1588 14.9539C27.162 8.27077 21.7572 2.83918 15.0441 2.83918C14.7734 2.83918 14.5537 2.61952 14.5537 2.34879C14.5537 2.08455 14.7645 1.8584 15.049 1.8584C22.28 1.8584 28.1428 7.71716 28.1396 14.9547C28.1396 15.2246 27.9199 15.4443 27.6492 15.4443Z"/><path d="M22.2116 29.2853C21.799 29.2853 20.5808 29.2034 18.6848 28.3912C15.1159 26.8625 11.6459 23.8594 8.94591 21.0532C6.98678 19.1678 5.33647 17.3003 4.04118 15.5033C2.99637 14.054 2.1777 12.6444 1.60787 11.3143C0.670857 9.12818 0.706522 7.84262 0.717059 7.65538C0.774609 4.79328 2.27415 2.5472 4.68234 1.09062C5.86252 0.376512 7.39773 0.705601 8.17668 1.84039L11.1579 6.18096C11.5235 6.7135 11.6775 7.35952 11.5916 7.99987C11.5057 8.64022 11.1863 9.2222 10.6927 9.63964L9.74026 10.4445C9.74107 10.4478 9.74107 10.4518 9.74188 10.4551C10.2201 13.4793 16.5198 19.779 19.544 20.2572C19.5473 20.258 19.5513 20.258 19.5546 20.2588L20.3595 19.3064C21.2203 18.2867 22.7158 18.0849 23.8181 18.8412L28.1587 21.8224C29.2935 22.6014 29.6226 24.1366 28.9085 25.3168C27.2938 27.9827 24.8751 29.2853 22.2116 29.2853ZM1.69622 7.71698C1.69298 7.76967 1.63948 8.94094 2.55461 11.033C3.42029 13.0116 5.35106 16.2344 9.63246 20.3529C9.81159 20.502 14.2089 25.363 18.9661 27.4445C19.9647 27.8814 21.2162 28.3013 22.3137 28.3013C25.359 28.2445 27.1244 26.3705 28.0696 24.8094C28.5146 24.0734 28.3103 23.1169 27.6035 22.6314L23.2629 19.6501C22.5739 19.1767 21.6483 19.3016 21.1092 19.9395L20.1325 21.0954C20.0288 21.2186 19.8707 21.2826 19.711 21.2672C19.6056 21.2567 19.4978 21.2429 19.3908 21.2267C16.6787 20.7963 12.3316 16.818 10.208 13.6981C9.3901 12.4977 8.907 11.4577 8.77245 10.6091C8.75543 10.5021 8.74165 10.3951 8.73192 10.2889C8.71652 10.1284 8.78055 9.97116 8.90376 9.86741L10.0596 8.89068C10.6975 8.35166 10.8224 7.42599 10.349 6.73701L7.36855 2.39563C6.88302 1.68882 5.92656 1.48455 5.19056 1.92955C3.62861 2.87467 1.75539 4.64008 1.69865 7.68537C1.69784 7.69834 1.69784 7.70483 1.69622 7.71698Z"/></svg>