<svg xmlns="http://www.w3.org/2000/svg" viewBox="0 0 38 40"><path d="M15.1447 32.254H7.41671C6.32255 32.254 5.43234 31.3638 5.43234 30.2696V28.0965C5.60595 28.1369 5.78419 28.1593 5.96511 28.1593C6.04743 28.1593 6.13031 28.1551 6.21326 28.1464C6.34944 28.1323 6.48247 28.1062 6.61166 28.07V30.2696C6.61166 30.7135 6.97279 31.0746 7.41663 31.0746H14.9899C15.3156 31.0746 15.5795 30.8107 15.5795 30.4849C15.5795 30.1592 15.3156 29.8953 14.9899 29.8953H7.79097V27.3001C7.79491 27.2953 7.79915 27.2908 7.803 27.286C8.57991 26.3292 8.48265 24.9435 7.6132 24.1017C7.99297 23.9594 8.34112 23.7184 8.61466 23.3816C9.39157 22.4249 9.29431 21.0392 8.42486 20.1974C8.80455 20.0551 9.15271 19.8141 9.42632 19.4773C10.2473 18.4662 10.0927 16.9758 9.08163 16.1548L7.7909 15.1066V7.78983C7.7909 7.46408 7.52695 7.20013 7.2012 7.20013C6.87545 7.20013 6.6115 7.46408 6.6115 7.78983V14.152C6.26311 13.8924 5.85755 13.7365 5.4321 13.6959V3.16385C5.43234 2.0696 6.32255 1.1794 7.41671 1.1794H20.5404C21.6346 1.1794 22.5249 2.0696 22.5249 3.16385V14.0454C22.5249 14.3712 22.7888 14.6351 23.1146 14.6351C23.4403 14.6351 23.7042 14.3712 23.7042 14.0454V3.16385C23.7042 1.41929 22.285 0 20.5404 0H7.41671C5.67223 0 4.25294 1.41929 4.25294 3.16385V7.68809C3.26343 7.10272 1.96436 7.31399 1.21812 8.23281C0.820429 8.72258 0.63723 9.33791 0.702332 9.96542C0.767435 10.5929 1.07298 11.1576 1.56274 11.5553L4.25286 13.7398V13.8839C3.91241 14.0328 3.60986 14.2614 3.36887 14.5582C2.9711 15.048 2.78798 15.6633 2.853 16.2908C2.91087 16.8483 3.15886 17.3559 3.55679 17.7411C3.16908 17.8866 2.82509 18.1326 2.55713 18.4626C1.7803 19.4192 1.8774 20.8049 2.74662 21.6467C2.36701 21.789 2.01893 22.0302 1.74547 22.367C1.34778 22.8568 1.16458 23.4721 1.2296 24.0996C1.2947 24.7271 1.60025 25.2918 2.09001 25.6895L4.25279 27.4458V30.2697C4.25279 32.0142 5.67207 33.4335 7.41656 33.4335H15.1446C15.4703 33.4335 15.7343 33.1696 15.7343 32.8438C15.7343 32.5181 15.4705 32.254 15.1447 32.254ZM2.30623 10.6396C2.06108 10.4406 1.90807 10.1579 1.87544 9.84371C1.84281 9.52952 1.93457 9.22146 2.13365 8.97631C2.54471 8.47011 3.29087 8.39282 3.79715 8.8038L4.25286 9.17389V12.2206L2.30623 10.6396ZM4.28447 15.3016C4.48355 15.0564 4.76629 14.9035 5.08049 14.8708C5.39436 14.8383 5.70266 14.9301 5.94789 15.1291L8.33837 17.0703C8.58353 17.2694 8.73654 17.5521 8.76917 17.8663C8.8018 18.1805 8.71004 18.4885 8.51088 18.7338C8.3118 18.9789 8.02913 19.1318 7.71494 19.1646C7.4142 19.1957 7.11911 19.1116 6.87907 18.9295L4.45698 16.965C4.21182 16.7659 4.05889 16.4832 4.02618 16.169C3.99363 15.8549 4.08539 15.5468 4.28447 15.3016ZM3.47281 19.2061C3.87577 18.7096 4.60055 18.6266 5.10596 19.0114L7.52671 20.9748C8.03291 21.3858 8.11028 22.132 7.69922 22.6382C7.29634 23.1342 6.57195 23.2172 6.06685 22.8335L3.64532 20.8695C3.13912 20.4584 3.06175 19.7122 3.47281 19.2061ZM2.40279 23.9778C2.37023 23.6637 2.46191 23.3557 2.66107 23.1104C3.06396 22.6144 3.7881 22.5313 4.29344 22.9152L6.71505 24.8792C7.22125 25.2903 7.29862 26.0364 6.88756 26.5426C6.68847 26.7878 6.40573 26.9408 6.09154 26.9734C5.77759 27.0059 5.46929 26.9142 5.22406 26.7151L2.83366 24.7739C2.58842 24.5748 2.43549 24.292 2.40279 23.9778Z"/><path d="M37.1691 39.0289L29.9913 30.5851C29.8633 30.4345 29.7927 30.2426 29.7927 30.045V27.009C29.7927 24.8822 28.9894 22.8587 27.5307 21.311L20.1597 13.4906C19.8725 13.1858 19.4681 13.0161 19.0487 13.0237C18.6299 13.0318 18.2317 13.2174 17.9564 13.5331L17.8104 13.7006C16.5854 15.1052 16.528 17.1915 17.6739 18.6614L20.4062 22.1662C20.5821 22.3919 20.6043 22.6985 20.4625 22.9472L18.9251 25.6446C18.7637 25.9275 18.8624 26.2876 19.1454 26.4488C19.4283 26.6101 19.7885 26.5115 19.9497 26.2285L21.4871 23.5312C21.8665 22.8657 21.8073 22.0453 21.3363 21.441L18.604 17.9363C17.8047 16.911 17.8447 15.4556 18.6993 14.4758L18.8453 14.3083C18.9233 14.2187 19.0205 14.2038 19.0714 14.2028C19.1229 14.2008 19.2201 14.2131 19.3015 14.2995L26.6724 22.1199C27.924 23.4478 28.6133 25.184 28.6133 27.0089V30.0449C28.6133 30.5221 28.7836 30.9852 29.0928 31.3489L36.2707 39.7927C36.3873 39.9299 36.5533 40.0005 36.7203 40.0005C36.8553 40.0005 36.991 39.9544 37.1019 39.8601C37.35 39.6492 37.3802 39.277 37.1691 39.0289Z"/><path d="M22.7303 37.3895C22.6387 37.2699 22.505 37.1901 22.3564 37.166C20.3062 36.8346 18.648 35.2451 18.2302 33.2108L18.0128 32.1524C17.7669 30.955 17.9649 29.7106 18.5703 28.6484L18.6957 28.4284C18.8571 28.1454 18.7584 27.7853 18.4754 27.6241C18.1925 27.4629 17.8323 27.5615 17.6711 27.8445L17.5457 28.0644C16.7984 29.3756 16.554 30.9117 16.8576 32.3898L17.0749 33.4482C17.5745 35.8809 19.5111 37.7984 21.9326 38.2876L23.0683 39.7692C23.1844 39.9207 23.3595 40.0002 23.5367 40.0002C23.6618 40.0002 23.788 39.9605 23.895 39.8785C24.1536 39.6803 24.2025 39.3101 24.0043 39.0517L22.7303 37.3895Z"/><path d="M20.7552 12.3119C21.0809 12.3119 21.3449 12.048 21.3449 11.7222V3.16443C21.3449 2.72051 20.9838 2.35938 20.5399 2.35938H18.9661C18.4543 2.35938 17.9867 2.61412 17.7152 3.04099C17.4357 3.48043 16.9586 3.74273 16.4386 3.74273H11.5671C11.0472 3.74273 10.5699 3.48043 10.2905 3.04091C10.0191 2.61412 9.5514 2.35938 9.03963 2.35938H7.41631C6.97238 2.35938 6.61133 2.72058 6.61133 3.16443V5.27728C6.61133 5.60303 6.87528 5.86698 7.20103 5.86698C7.52678 5.86698 7.79072 5.60303 7.79072 5.27728V3.53877H9.0397C9.14443 3.53877 9.2424 3.59051 9.2954 3.67385C9.7924 4.45548 10.6417 4.92212 11.5673 4.92212H16.4388C17.3643 4.92212 18.2136 4.45548 18.7106 3.67393C18.7637 3.59051 18.8616 3.53877 18.9664 3.53877H20.1657V11.7222C20.1655 12.048 20.4295 12.3119 20.7552 12.3119Z"/><path d="M17.43 11.0478C17.4151 10.7292 17.1493 10.4821 16.8277 10.4862C16.5021 10.4935 16.2442 10.7634 16.2515 11.0891C16.2516 11.0964 16.2519 11.1038 16.2523 11.1114C16.2457 12.1545 15.5327 13.0326 14.5688 13.2918V8.0518C14.8216 8.37142 15.0917 8.73153 15.3425 9.10359C15.5244 9.37367 15.8908 9.44514 16.161 9.26304C16.4311 9.0811 16.5025 8.71455 16.3205 8.44446C15.6505 7.45016 14.8566 6.54092 14.5465 6.19638C14.4019 6.03559 14.1952 5.94336 13.979 5.94336C13.7629 5.94336 13.5561 6.03559 13.4117 6.19614C12.5442 7.1605 10.5264 9.56835 10.5264 11.0965C10.5264 12.7992 11.7656 14.2171 13.3893 14.4978V15.0572C13.3893 15.3829 13.6533 15.6469 13.979 15.6469C14.3048 15.6469 14.5687 15.3829 14.5687 15.0572V14.4978C16.1925 14.217 17.4317 12.7992 17.4317 11.0965C17.4317 11.0809 17.4311 11.0647 17.43 11.0478ZM11.7058 11.0966C11.7058 10.4428 12.4607 9.2257 13.3893 8.05078V13.2919C12.4209 13.0314 11.7058 12.1461 11.7058 11.0966Z"/><path d="M17.5803 25.3867V23.2885C17.5803 22.6001 17.0202 22.04 16.3318 22.04H11.6245C10.936 22.04 10.376 22.6001 10.376 23.2885V25.3867C10.376 26.0751 10.936 26.6352 11.6245 26.6352H16.3318C17.0202 26.6352 17.5803 26.0751 17.5803 25.3867ZM16.4009 25.3867C16.4009 25.4248 16.3698 25.4558 16.3318 25.4558H11.6245C11.5864 25.4558 11.5554 25.4248 11.5554 25.3867V23.2885C11.5554 23.2505 11.5864 23.2194 11.6245 23.2194H16.3318C16.3698 23.2194 16.4009 23.2505 16.4009 23.2885V25.3867Z"/><path d="M10.5264 19.8846C10.5264 20.2104 10.7903 20.4743 11.1161 20.4743H16.5903C16.916 20.4743 17.18 20.2104 17.18 19.8846C17.18 19.5589 16.916 19.2949 16.5903 19.2949H11.1161C10.7903 19.2949 10.5264 19.5589 10.5264 19.8846Z"/><path d="M15.6537 2.94108C15.9794 2.94108 16.2434 2.67714 16.2434 2.35139C16.2434 2.02564 15.9794 1.76169 15.6537 1.76169H12.3749C12.0491 1.76169 11.7852 2.02564 11.7852 2.35139C11.7852 2.67714 12.0491 2.94108 12.3749 2.94108H15.6537Z"/></svg>