<svg xmlns="http://www.w3.org/2000/svg" viewBox="0 0 40 40"><path d="M36.4691 24.9364C36.5782 24.7748 36.5998 24.5693 36.5268 24.3884L31.1554 11.082C31.0657 10.8601 30.8505 10.7148 30.6111 10.7148H9.38811C9.1488 10.7148 8.93343 10.8601 8.84382 11.082L3.47237 24.3884C3.39935 24.5693 3.42095 24.7748 3.53004 24.9364C3.63921 25.0981 3.82156 25.1951 4.01658 25.1951H35.9824C36.1776 25.1951 36.36 25.0982 36.4691 24.9364ZM15.5095 19.3296L15.9168 16.5803H24.0824L24.4897 19.3296H15.5095ZM24.6636 20.5035L25.1847 24.0212H14.8146L15.3357 20.5035H24.6636ZM7.89032 16.5803H14.7302L14.323 19.3296H6.78053L7.89032 16.5803ZM23.3875 11.8887L23.9086 15.4065H16.0908L16.6119 11.8887H23.3875ZM25.2691 16.5803H32.109L33.2188 19.3296H25.6764L25.2691 16.5803ZM31.6351 15.4065H25.0951L24.574 11.8887H30.215L31.6351 15.4065ZM9.78418 11.8887H15.4252L14.904 15.4065H8.36409L9.78418 11.8887ZM6.30659 20.5035H14.1489L13.6278 24.0212H4.88658L6.30659 20.5035ZM26.3714 24.0212L25.8503 20.5035H33.6926L35.1126 24.0212H26.3714Z"/><path d="M38.1598 33.5064H36.5699V32.3976C36.5699 31.5589 35.8876 30.8766 35.0489 30.8766H34.6588V27.5427H38.3174C38.7699 27.5427 39.1913 27.3187 39.4444 26.9435C39.6975 26.5684 39.7475 26.0939 39.578 25.6742L32.935 9.21765C32.7264 8.70083 32.2316 8.3669 31.6743 8.3669H19.7043C19.4113 5.7356 17.1746 3.68256 14.4665 3.68256C11.7583 3.68256 9.5216 5.73568 9.2286 8.3669H8.32565C7.76837 8.3669 7.27346 8.70083 7.0649 9.21757L0.421972 25.6742C0.252541 26.0939 0.302549 26.5684 0.555638 26.9436C0.808728 27.3188 1.23007 27.5428 1.68264 27.5428H5.41951V30.8767H4.95113C4.11243 30.8767 3.43009 31.559 3.43009 32.3977V33.5065H1.84018C0.825475 33.5064 0 34.3319 0 35.3466V38.4389C0 38.9891 0.447563 39.4366 0.997723 39.4366H39.0024C39.5525 39.4366 40.0001 38.9891 40.0001 38.4389V35.3466C40 34.3319 39.1745 33.5064 38.1598 33.5064ZM33.4849 30.8767H32.0789V27.5428H33.4849V30.8767ZM6.59339 27.5428H7.99931V30.8767H6.59339V27.5428ZM4.60405 32.3976C4.60405 32.2063 4.75978 32.0505 4.95121 32.0505H11.018C11.3421 32.0505 11.6049 31.7878 11.6049 31.4635C11.6049 31.1393 11.3421 30.8766 11.018 30.8766H9.17327V27.5427H25.8654C26.1895 27.5427 26.4523 27.28 26.4523 26.9557C26.4523 26.6315 26.1895 26.3688 25.8654 26.3688H1.68264C1.59672 26.3688 1.54929 26.3175 1.52871 26.2869C1.50813 26.2563 1.47831 26.1933 1.51048 26.1136L8.15356 9.65692C8.18205 9.58641 8.24966 9.54078 8.32573 9.54078H12.2798C12.6039 9.54078 12.8667 9.27807 12.8667 8.95384C12.8667 8.62961 12.6039 8.3669 12.2798 8.3669H10.4118C10.6974 6.38468 12.4065 4.85644 14.4665 4.85644C16.5266 4.85644 18.2357 6.38476 18.5213 8.3669H14.7811C14.4569 8.3669 14.1941 8.62961 14.1941 8.95384C14.1941 9.27807 14.4569 9.54078 14.7811 9.54078H31.6743C31.7504 9.54078 31.818 9.58641 31.8465 9.657L38.4895 26.1136C38.5217 26.1933 38.4919 26.2563 38.4713 26.2869C38.4507 26.3175 38.4032 26.3688 38.3174 26.3688H28.3667C28.0426 26.3688 27.7798 26.6315 27.7798 26.9557C27.7798 27.28 28.0426 27.5427 28.3667 27.5427H30.9051V30.8766H13.5193C13.1952 30.8766 12.9324 31.1393 12.9324 31.4635C12.9324 31.7878 13.1952 32.0505 13.5193 32.0505H35.0488C35.2402 32.0505 35.396 32.2062 35.396 32.3976V33.5064H4.60405V32.3976ZM38.8261 38.2627H1.17388V35.3465C1.17388 34.9791 1.47275 34.6802 1.84018 34.6802H38.1598C38.5272 34.6802 38.8261 34.9791 38.8261 35.3465V38.2627Z"/><path d="M14.4668 1.86773C14.791 1.86773 15.0538 1.60501 15.0538 1.28079V0.586942C15.0538 0.262715 14.791 0 14.4668 0C14.1427 0 13.8799 0.262715 13.8799 0.586942V1.28079C13.8799 1.60493 14.1427 1.86773 14.4668 1.86773Z"/><path d="M9.95309 2.7944C10.0641 2.97417 10.2563 3.07308 10.4531 3.07308C10.5583 3.07308 10.6648 3.04483 10.7609 2.98551C11.0367 2.81522 11.1223 2.45359 10.952 2.17772L10.5875 1.58726C10.4172 1.31148 10.0555 1.22586 9.77967 1.39623C9.50388 1.56652 9.41827 1.92816 9.58856 2.20402L9.95309 2.7944Z"/><path d="M6.78801 5.8346L7.40837 6.14545C7.49281 6.18779 7.58249 6.20782 7.67085 6.20782C7.88598 6.20782 8.09313 6.08902 8.19604 5.88359C8.34121 5.5938 8.22398 5.24117 7.93419 5.096L7.31383 4.78515C7.02388 4.63975 6.67132 4.75713 6.52615 5.04701C6.38098 5.3368 6.49821 5.68943 6.78801 5.8346Z"/><path d="M18.1723 2.9855C18.2684 3.04482 18.3748 3.07307 18.4801 3.07307C18.6769 3.07307 18.8691 2.97407 18.98 2.79431L19.3446 2.20385C19.5149 1.92807 19.4293 1.56635 19.1535 1.39614C18.8776 1.22593 18.516 1.31146 18.3457 1.58725L17.9812 2.17771C17.8109 2.45357 17.8964 2.81521 18.1723 2.9855Z"/><path d="M21.2623 6.2078C21.3507 6.2078 21.4404 6.18776 21.5248 6.14543L22.1452 5.83458C22.435 5.68941 22.5523 5.33678 22.407 5.04698C22.2618 4.75719 21.9093 4.63988 21.6194 4.78513L20.999 5.09597C20.7091 5.24114 20.5919 5.59378 20.7371 5.88357C20.84 6.089 21.0472 6.2078 21.2623 6.2078Z"/></svg>
