<svg xmlns="http://www.w3.org/2000/svg" viewBox="0 0 40 40"><path d="M38.4409 36.9348H25.3466V36.2648C25.3466 35.956 25.0963 35.7058 24.7876 35.7058C24.4789 35.7058 24.2286 35.956 24.2286 36.2648V37.3513C24.2286 37.6245 24.0063 37.8468 23.7331 37.8468H16.2669C15.9936 37.8468 15.7713 37.6245 15.7713 37.3513V32.7244C15.7713 32.4512 15.9936 32.2289 16.2669 32.2289H23.7331C24.0064 32.2289 24.2287 32.4512 24.2287 32.7244V33.8789C24.2287 34.1876 24.479 34.4378 24.7877 34.4378C25.0964 34.4378 25.3466 34.1876 25.3466 33.8789V33.1409H38.441C38.7497 33.1409 39 32.8907 39 32.5819C39 32.2731 38.7497 32.0229 38.441 32.0229H25.1859C24.9244 31.4837 24.3715 31.111 23.7331 31.111H23.0149V21.5133H23.1538C24.0543 21.5133 24.7869 20.7807 24.7869 19.8802V18.8617C24.7869 18.553 24.5366 18.3028 24.2279 18.3028C23.9192 18.3028 23.669 18.553 23.669 18.8617V19.8802C23.669 20.1643 23.4378 20.3954 23.1538 20.3954H16.8461C16.5621 20.3954 16.331 20.1642 16.331 19.8802V15.6491C16.331 15.3651 16.5621 15.1341 16.8461 15.1341H23.1538C23.4378 15.1341 23.669 15.3652 23.669 15.6491V16.4758C23.669 16.7846 23.9192 17.0348 24.2279 17.0348C24.5366 17.0348 24.7869 16.7846 24.7869 16.4758V15.6491C24.7869 14.7912 24.1217 14.0862 23.2801 14.0215V12.8878C23.2801 12.128 22.6621 11.51 21.9023 11.51H21.7108V9.78646H26.0928L27.1411 10.8347C27.2502 10.9438 27.3933 10.9984 27.5363 10.9984C27.6793 10.9984 27.8224 10.9438 27.9316 10.8347C28.1499 10.6163 28.1499 10.2625 27.9316 10.0442L26.7195 8.83217C26.6147 8.72738 26.4726 8.66851 26.3243 8.66851H21.7107V8.26582C22.2337 7.99446 22.5922 7.44815 22.5922 6.81927C22.5922 5.92118 21.8616 5.19049 20.9634 5.19049H19.0365C18.1384 5.19049 17.4077 5.92118 17.4077 6.81927C17.4077 7.44815 17.7661 7.99453 18.2892 8.26582V8.66851H13.6756C13.5274 8.66851 13.3852 8.72738 13.2804 8.83217L12.0684 10.0442C11.8501 10.2626 11.8501 10.6164 12.0684 10.8347C12.1775 10.9438 12.3206 10.9984 12.4636 10.9984C12.6066 10.9984 12.7497 10.9438 12.8588 10.8347L13.9071 9.78646H18.2892V11.51H18.0976C17.3379 11.51 16.7198 12.128 16.7198 12.8878V14.0215C15.8782 14.0862 15.213 14.7912 15.213 15.6491V19.8802C15.213 20.7807 15.9456 21.5133 16.8461 21.5133H16.985V23.829C16.985 24.1378 17.2353 24.388 17.544 24.388C17.8527 24.388 18.103 24.1378 18.103 23.829V21.5133H21.8969V31.1109H18.103V26.215C18.103 25.9062 17.8527 25.656 17.544 25.656C17.2353 25.656 16.985 25.9062 16.985 26.215V31.1109H16.2669C15.6284 31.1109 15.0755 31.4836 14.8141 32.0228H1.55897C1.25027 32.0228 1 32.273 1 32.5818C1 32.8906 1.25027 33.1408 1.55897 33.1408H14.6534V36.9347H1.55897C1.25027 36.9347 1 37.1849 1 37.4937C1 37.8025 1.25027 38.0527 1.55897 38.0527H14.8141C15.0755 38.5919 15.6284 38.9646 16.2669 38.9646H23.7331C24.3716 38.9646 24.9245 38.5919 25.1859 38.0527H38.441C38.7497 38.0527 39 37.8025 39 37.4937C39 37.1849 38.7497 36.9348 38.4409 36.9348ZM19.0365 6.30844H20.9634C21.2451 6.30844 21.4743 6.53755 21.4743 6.81927C21.4743 7.10099 21.2451 7.3301 20.9634 7.3301H19.0365C18.7548 7.3301 18.5256 7.10092 18.5256 6.81927C18.5256 6.53762 18.7548 6.30844 19.0365 6.30844ZM19.4072 8.44805H20.5927V11.51H19.4072V8.44805ZM17.8378 12.8879C17.8378 12.7446 17.9544 12.628 18.0977 12.628H21.9023C22.0456 12.628 22.1622 12.7446 22.1622 12.8879V14.0162H17.8378V12.8879Z"/><path d="M32.3512 15.6914C32.6311 15.8681 32.9483 15.9591 33.2715 15.9591C33.3994 15.9591 33.5283 15.9449 33.6561 15.916C34.1069 15.8142 34.491 15.5429 34.7377 15.1521C35.2469 14.3455 35.005 13.2749 34.1984 12.7656C34.0495 12.6716 33.596 12.3855 32.0809 12.6177C31.8059 12.6598 31.5631 12.8189 31.4146 13.054C31.2662 13.2891 31.227 13.5769 31.3071 13.8433C31.749 15.3112 32.2023 15.5973 32.3512 15.6914ZM33.6016 13.7109C33.887 13.8911 33.9726 14.2698 33.7924 14.5553C33.6122 14.8407 33.2334 14.9262 32.9482 14.7462C32.8831 14.7032 32.6719 14.4318 32.4326 13.6968C33.1993 13.5965 33.5349 13.6708 33.6016 13.7109Z"/><path d="M31.8934 7.21509C31.793 7.47453 31.8099 7.76437 31.94 8.01032C32.07 8.2562 32.3 8.43343 32.5709 8.49648C33.1475 8.63079 33.5719 8.6758 33.8849 8.6758C34.3823 8.6758 34.5978 8.56192 34.6934 8.51131C35.5367 8.06548 35.8601 7.01654 35.4142 6.17323C34.9682 5.32985 33.9193 5.00647 33.076 5.45246C32.9204 5.53489 32.4464 5.78553 31.8934 7.21509ZM33.5987 6.4408C33.897 6.28287 34.2682 6.3975 34.426 6.69591C34.5838 6.99426 34.4694 7.36534 34.1713 7.52305C34.1015 7.55815 33.7611 7.60622 33.0044 7.44755C33.2993 6.73295 33.5307 6.47866 33.5987 6.4408Z"/><path d="M27.1681 4.5026C27.338 4.63459 27.5455 4.70472 27.7572 4.70465C27.8191 4.70465 27.8814 4.69869 27.9431 4.68654C29.4471 4.38998 29.7761 3.9668 29.8843 3.82773C30.1679 3.46283 30.2925 3.00947 30.2351 2.55081C30.1776 2.0923 29.9451 1.6835 29.5803 1.39999C29.2154 1.11626 28.7618 0.99179 28.3035 1.0491C27.845 1.10657 27.4362 1.3391 27.1525 1.70392C27.0444 1.843 26.7154 2.26625 26.7988 3.79695C26.8139 4.07472 26.9486 4.33185 27.1681 4.5026ZM28.0351 2.39005C28.1355 2.26096 28.2801 2.17861 28.4423 2.15833C28.4682 2.15513 28.494 2.15356 28.5196 2.15356C28.6549 2.15356 28.7855 2.19821 28.8941 2.2825H28.8941C29.0232 2.38289 29.1055 2.52748 29.1258 2.68973C29.1461 2.85198 29.102 3.01245 29.0018 3.14138C28.9526 3.20198 28.6619 3.38569 27.9071 3.55219C27.8822 2.77939 27.9887 2.4525 28.0351 2.39005Z"/><path d="M32.1087 4.48606C32.2518 4.48606 32.3949 4.4315 32.504 4.32232L32.9081 3.91814C33.1264 3.69984 33.1264 3.3459 32.9081 3.12768C32.6898 2.90945 32.3359 2.90938 32.1176 3.12775L31.7135 3.53193C31.4952 3.75022 31.4953 4.10417 31.7135 4.32239C31.8227 4.4315 31.9656 4.48606 32.1087 4.48606Z"/><path d="M33.9022 10.1041C33.5935 10.1041 33.3433 10.3543 33.3433 10.663C33.3433 10.9718 33.5935 11.222 33.9022 11.222H34.4459C34.7546 11.222 35.0049 10.9718 35.0049 10.663C35.0049 10.3543 34.7546 10.1041 34.4459 10.1041H33.9022Z"/><path d="M29.8099 15.885C29.5506 16.0527 29.4765 16.3988 29.6442 16.6579L29.922 17.0874C30.029 17.2528 30.2086 17.3428 30.3919 17.3428C30.4959 17.3428 30.6011 17.3137 30.695 17.2531C30.9542 17.0854 31.0283 16.7393 30.8607 16.4801L30.5828 16.0507C30.4151 15.7915 30.0691 15.7175 29.8099 15.885Z"/><path d="M5.87629 12.7655C5.06966 13.2748 4.82773 14.3454 5.33707 15.152C5.58376 15.5428 5.96789 15.8141 6.41865 15.9159C6.54647 15.9448 6.67533 15.959 6.8033 15.959C7.12639 15.959 7.44366 15.8679 7.72359 15.6912C7.8725 15.5972 8.3258 15.3111 8.76768 13.843C8.8478 13.5767 8.8086 13.2889 8.66014 13.0538C8.51167 12.8187 8.26886 12.6596 7.99377 12.6175C6.4785 12.3852 6.02521 12.6714 5.87629 12.7655ZM7.12676 14.746C6.84131 14.9262 6.46255 14.8407 6.28233 14.5552C6.10212 14.2697 6.18768 13.891 6.47291 13.7109C6.53983 13.6706 6.87559 13.5966 7.64213 13.6967C7.40282 14.4318 7.19175 14.703 7.12676 14.746Z"/><path d="M5.38093 8.51141C5.47655 8.56194 5.69194 8.67582 6.1895 8.67582C6.50246 8.67582 6.92705 8.63081 7.50347 8.4965C7.77439 8.43338 8.00438 8.25614 8.13436 8.01034C8.26442 7.76439 8.28141 7.47462 8.18102 7.21511C7.62801 5.78547 7.154 5.5349 6.99823 5.45255C6.15492 5.00649 5.10606 5.32995 4.66008 6.17333C4.21424 7.01656 4.53755 8.06542 5.38093 8.51141ZM5.64842 6.69578C5.8062 6.39737 6.17728 6.28311 6.4754 6.44052C6.54375 6.47853 6.77509 6.73283 7.07008 7.44742C6.31345 7.60587 5.973 7.55787 5.90346 7.52307C5.60512 7.36529 5.49064 6.99413 5.64842 6.69578Z"/><path d="M12.1315 4.68653C12.1933 4.69868 12.2555 4.70472 12.3174 4.70472C12.529 4.70464 12.7366 4.63466 12.9065 4.50259C13.1261 4.33185 13.2607 4.07472 13.2758 3.79687C13.3592 2.26617 13.0302 1.84292 12.9221 1.70384C12.6384 1.33895 12.2297 1.10641 11.7712 1.04902C11.3126 0.991934 10.8593 1.11625 10.4944 1.39991C10.1295 1.6835 9.89701 2.09222 9.83962 2.55073C9.78216 3.00931 9.90677 3.46275 10.1904 3.82765C10.2985 3.96672 10.6276 4.38998 12.1315 4.68653ZM10.9489 2.68973C10.9691 2.52747 11.0514 2.38289 11.1805 2.28249H11.1806C11.2891 2.19813 11.4197 2.15356 11.555 2.15356C11.5806 2.15356 11.6064 2.15512 11.6323 2.15833C11.7945 2.1786 11.9392 2.26096 12.0394 2.38982C12.086 2.4525 12.1924 2.77946 12.1676 3.55211C11.4127 3.38569 11.1221 3.20197 11.0729 3.14145C10.9726 3.01244 10.9285 2.8519 10.9489 2.68973Z"/><path d="M7.57027 4.32232C7.67945 4.4315 7.82248 4.48606 7.96557 4.48606C8.1086 4.48606 8.25169 4.4315 8.36081 4.32239C8.5791 4.10409 8.5791 3.75015 8.36081 3.53193L7.9567 3.12775C7.73833 2.90938 7.38446 2.90945 7.16617 3.12768C6.94787 3.34597 6.94787 3.69992 7.16617 3.91814L7.57027 4.32232Z"/><path d="M6.17225 11.222C6.48095 11.222 6.73123 10.9718 6.73123 10.663C6.73123 10.3543 6.48095 10.1041 6.17225 10.1041H5.62855C5.31985 10.1041 5.06958 10.3543 5.06958 10.663C5.06958 10.9718 5.31985 11.222 5.62855 11.222H6.17225Z"/><path d="M9.37968 17.2531C9.47351 17.3138 9.57875 17.3428 9.68279 17.3428C9.86606 17.3428 10.0456 17.2528 10.1526 17.0874L10.4305 16.658C10.5982 16.3988 10.524 16.0527 10.2648 15.885C10.0057 15.7175 9.65961 15.7914 9.49184 16.0507L9.214 16.4802C9.0463 16.7393 9.12046 17.0854 9.37968 17.2531Z"/></svg>