<?xml version="1.0" standalone="no"?>
<!DOCTYPE svg PUBLIC "-//W3C//DTD SVG 20010904//EN"
 "http://www.w3.org/TR/2001/REC-SVG-20010904/DTD/svg10.dtd">
<svg version="1.0" xmlns="http://www.w3.org/2000/svg"
 width="32.000000pt" height="32.000000pt" viewBox="0 0 32.000000 32.000000"
 preserveAspectRatio="xMidYMid meet">

<g transform="translate(0.000000,32.000000) scale(0.100000,-0.100000)"
fill="#000000" stroke="none">
<path d="M184 223 c13 -52 32 -67 39 -31 3 15 5 9 6 -15 0 -21 -3 -47 -9 -57
-7 -13 -6 -19 4 -23 10 -4 15 11 19 59 7 76 4 88 -29 103 -39 18 -43 14 -30
-36z"/>
<path d="M108 190 c-27 -17 -48 -33 -48 -36 0 -3 4 -3 9 1 5 3 12 -9 14 -27
l4 -33 1 37 c2 32 8 40 45 62 23 14 38 26 32 26 -5 0 -31 -14 -57 -30z"/>
<path d="M260 169 c0 -5 5 -7 10 -4 6 3 10 8 10 11 0 2 -4 4 -10 4 -5 0 -10
-5 -10 -11z"/>
</g>
</svg>
