<?xml version="1.0" encoding="UTF-8"?>
<svg version="1.1" xmlns="http://www.w3.org/2000/svg" width="32" height="32">
<path d="M0 0 C10.56 0 21.12 0 32 0 C32 10.56 32 21.12 32 32 C21.44 32 10.88 32 0 32 C0 21.44 0 10.88 0 0 Z " fill="#FAFCFB" transform="translate(0,0)"/>
<path d="M0 0 C4.45768233 -0.43702768 6.34650802 -0.51445113 9.9375 2.3125 C12 5 12 5 12 8 C12.99 8 13.98 8 15 8 C14.34 9.65 13.68 11.3 13 13 C12.34 13 11.68 13 11 13 C10.67 14.65 10.34 16.3 10 18 C10.804375 18.12375 11.60875 18.2475 12.4375 18.375 C13.7059375 18.684375 13.7059375 18.684375 15 19 C15.33 19.66 15.66 20.32 16 21 C15.23429687 20.83628906 14.46859375 20.67257813 13.6796875 20.50390625 C8.80984281 19.83701669 4.03309368 19.89427153 -0.875 19.9375 C-1.84953125 19.94201172 -2.8240625 19.94652344 -3.828125 19.95117188 C-6.21881434 19.96289094 -8.6093744 19.97929781 -11 20 C-10.34 19.34 -9.68 18.68 -9 18 C-8.01 18 -7.02 18 -6 18 C-6 16.02 -6 14.04 -6 12 C-6.99 11.67 -7.98 11.34 -9 11 C-8.3503125 10.62488281 -7.700625 10.24976563 -7.03125 9.86328125 C-6.1959375 9.35152344 -5.360625 8.83976563 -4.5 8.3125 C-3.6646875 7.81363281 -2.829375 7.31476562 -1.96875 6.80078125 C0.2887504 5.13615562 0.2887504 5.13615562 0.28125 2.29296875 C0.1884375 1.53628906 0.095625 0.77960937 0 0 Z " fill="#B1D093" transform="translate(14,5)"/>
<path d="M0 0 C4.45768233 -0.43702768 6.34650802 -0.51445113 9.9375 2.3125 C12 5 12 5 12 8 C12.99 8 13.98 8 15 8 C14.34 9.65 13.68 11.3 13 13 C12.34 13 11.68 13 11 13 C10.67 14.65 10.34 16.3 10 18 C9.01 17.67 8.02 17.34 7 17 C7.33 15.68 7.66 14.36 8 13 C7.34 12.67 6.68 12.34 6 12 C4.875 9.9375 4.875 9.9375 4 8 C0.39007621 8.65585189 0.39007621 8.65585189 -3 10 C-3.46523063 11.89533342 -3.46523063 11.89533342 -3.625 14.0625 C-3.810625 16.0115625 -3.810625 16.0115625 -4 18 C-4.66 18 -5.32 18 -6 18 C-6 16.02 -6 14.04 -6 12 C-6.99 11.67 -7.98 11.34 -9 11 C-8.3503125 10.62488281 -7.700625 10.24976563 -7.03125 9.86328125 C-6.1959375 9.35152344 -5.360625 8.83976563 -4.5 8.3125 C-3.6646875 7.81363281 -2.829375 7.31476562 -1.96875 6.80078125 C0.2887504 5.13615562 0.2887504 5.13615562 0.28125 2.29296875 C0.1884375 1.53628906 0.095625 0.77960937 0 0 Z " fill="#1C8051" transform="translate(14,5)"/>
<path d="M0 0 C1.32 0.33 2.64 0.66 4 1 C4.33 3.31 4.66 5.62 5 8 C3.8553125 7.938125 3.8553125 7.938125 2.6875 7.875 C-0.22718416 7.77919176 -0.22718416 7.77919176 -3 10 C-3.57748803 11.96361864 -3.57748803 11.96361864 -3.6875 14.125 C-3.8421875 16.043125 -3.8421875 16.043125 -4 18 C-4.66 18 -5.32 18 -6 18 C-6 16.02 -6 14.04 -6 12 C-6.99 11.67 -7.98 11.34 -9 11 C-8.3503125 10.62488281 -7.700625 10.24976563 -7.03125 9.86328125 C-6.1959375 9.35152344 -5.360625 8.83976563 -4.5 8.3125 C-3.6646875 7.81363281 -2.829375 7.31476562 -1.96875 6.80078125 C0.2887504 5.13615562 0.2887504 5.13615562 0.28125 2.29296875 C0.1884375 1.53628906 0.095625 0.77960937 0 0 Z " fill="#1EAB5E" transform="translate(14,5)"/>
<path d="M0 0 C1.3125 2.0625 1.3125 2.0625 2 4 C1.34 4.66 0.68 5.32 0 6 C0 4.68 0 3.36 0 2 C-1.65 2 -3.3 2 -5 2 C-5 3.65 -5 5.3 -5 7 C-3.68 7.33 -2.36 7.66 -1 8 C-3.64 8.33 -6.28 8.66 -9 9 C-9.48492623 2.57472739 -9.48492623 2.57472739 -7.3125 0 C-4.35289466 -1.27982934 -2.98790191 -1.17943497 0 0 Z " fill="#FBFDFC" transform="translate(19,13)"/>
<path d="M0 0 C2.79224073 -0.08071788 5.58216566 -0.14035408 8.375 -0.1875 C9.1690625 -0.21263672 9.963125 -0.23777344 10.78125 -0.26367188 C12.85586148 -0.29004405 14.93100865 -0.15486462 17 0 C17.66 0.99 18.32 1.98 19 3 C12.4 3 5.8 3 -1 3 C-0.67 2.01 -0.34 1.02 0 0 Z " fill="#C9DFD4" transform="translate(7,24)"/>
<path d="M0 0 C0.66 0.33 1.32 0.66 2 1 C2 1.99 2 2.98 2 4 C2.99 4 3.98 4 5 4 C4.34 5.65 3.68 7.3 3 9 C2.34 9 1.68 9 1 9 C0.67 10.65 0.34 12.3 0 14 C-0.99 13.67 -1.98 13.34 -3 13 C-2.69240822 11.02006459 -2.3787932 9.04106401 -2.0625 7.0625 C-1.88847656 5.96035156 -1.71445312 4.85820312 -1.53515625 3.72265625 C-1 1 -1 1 0 0 Z " fill="#0B733F" transform="translate(24,9)"/>
<path d="M0 0 C2.4375 0.1875 2.4375 0.1875 5 1 C6.3125 3.0625 6.3125 3.0625 7 5 C6.34 5.66 5.68 6.32 5 7 C5 5.68 5 4.36 5 3 C3.35 3 1.7 3 0 3 C0 4.65 0 6.3 0 8 C-0.33 8 -0.66 8 -1 8 C-1.04241723 5.66705225 -1.04092937 3.33297433 -1 1 C-0.67 0.67 -0.34 0.34 0 0 Z " fill="#EBF6F1" transform="translate(14,12)"/>
<path d="M0 0 C1.32 0 2.64 0 4 0 C4 1.65 4 3.3 4 5 C2.68 5 1.36 5 0 5 C0 3.35 0 1.7 0 0 Z " fill="#57BF89" transform="translate(14,15)"/>
<path d="M0 0 C1.32 0.33 2.64 0.66 4 1 C4.33 3.31 4.66 5.62 5 8 C4.34 7.67 3.68 7.34 3 7 C3 6.34 3 5.68 3 5 C2.34 5 1.68 5 1 5 C0.67 3.35 0.34 1.7 0 0 Z " fill="#7FC9A6" transform="translate(14,5)"/>
<path d="M0 0 C0.33 0.99 0.66 1.98 1 3 C1.99 3 2.98 3 4 3 C3.34 4.65 2.68 6.3 2 8 C1.34 8 0.68 8 0 8 C-0.98120464 4.94736336 -0.98120464 3.05263664 0 0 Z " fill="#57B887" transform="translate(25,10)"/>
</svg>
